<?xml version="1.0" standalone="no"?>
<!DOCTYPE svg PUBLIC "-//W3C//DTD SVG 1.1//EN" "http://www.w3.org/Graphics/SVG/1.1/DTD/svg11.dtd" >
<svg xmlns="http://www.w3.org/2000/svg">
<metadata>
This is a custom SVG webfont generated by Font Squirrel.
Copyright   : Copyright c Christian Schwartz 2005 All rights reserved
Designer    : Christian Schwartz
Foundry     : Christian Schwartz
Foundry URL : wwworangeitaliccom
</metadata>
<defs>
<font id="StagBoldItalic" horiz-adv-x="1509" >
<font-face units-per-em="2048" ascent="1638" descent="-410" />
<missing-glyph horiz-adv-x="280" />
<glyph unicode=" "  horiz-adv-x="280" />
<glyph unicode="&#x09;" horiz-adv-x="280" />
<glyph unicode="&#xa0;" horiz-adv-x="280" />
<glyph unicode="!" horiz-adv-x="507" d="M-33 172q0 90 63.5 150.5t151.5 60.5q86 0 143.5 -56.5t57.5 -133.5q0 -88 -63.5 -147.5t-151.5 -59.5q-86 0 -143.5 55t-57.5 131zM119 449l57 722l62 263h452l-61 -263l-297 -722h-213z" />
<glyph unicode="&#x22;" horiz-adv-x="866" d="M188 1229l50 205h378l-47 -205l-170 -346h-206zM618 1229l50 205h379l-48 -205l-170 -346h-204z" />
<glyph unicode="#" horiz-adv-x="1001" d="M-2 356l72 318h153l37 135h-141l74 317h153l84 308h244l-84 -308h125l84 308h243l-84 -308h144l-74 -317h-156l-36 -135h145l-74 -318h-157l-97 -356h-243l96 356h-125l-96 -356h-244l96 356h-139zM467 674h125l37 135h-125z" />
<glyph unicode="$" horiz-adv-x="1126" d="M-80 82l80 346h240q18 -78 64 -112.5t138 -34.5q82 0 135.5 35.5t53.5 107.5q0 12 -2 22.5t-7.5 19.5t-10.5 15t-17 14.5t-19.5 12.5t-25 12t-28.5 12.5t-34.5 13.5t-37.5 15q-154 59 -240 139t-86 226q0 205 133 335t371 156l37 160h307l-37 -162q129 -14 291 -57 l-76 -328h-225q-37 141 -181 141q-88 0 -136 -36.5t-48 -102.5q0 -43 27.5 -63.5t107.5 -53.5q10 -4 17 -6q201 -76 290 -159.5t89 -231.5q0 -203 -130.5 -339t-386.5 -165l-51 -223h-307l51 223q-178 15 -346 68z" />
<glyph unicode="%" horiz-adv-x="1753" d="M135 973q0 213 138.5 346t320.5 133q150 0 244 -83t94 -228q0 -215 -140.5 -347t-322.5 -132q-147 0 -240.5 83t-93.5 228zM143 -70l1303 1563h242l-1303 -1563h-242zM428 944q0 -90 68 -90q57 0 98 101.5t41 207.5q0 94 -66 94q-57 0 -99 -102t-42 -211zM905 291 q0 215 138.5 348t318.5 133q152 0 246 -83t94 -228q0 -215 -140.5 -347t-322.5 -132q-147 0 -240.5 82t-93.5 227zM1198 262q0 -90 68 -90q57 0 98 101.5t41 209.5q0 92 -66 92q-57 0 -99 -102t-42 -211z" />
<glyph unicode="&#x26;" horiz-adv-x="1505" d="M-10 354q0 188 115.5 305t302.5 168q-31 86 -31 160q0 217 141 342t377 125q147 0 219 -20h311l-92 -412h-284l-13 129q-20 8 -57 8q-137 0 -137 -135q0 -68 80 -178l168 -232q63 125 98 246h338l-43 -186q-84 -166 -211 -309l49 -66q33 -47 63 -47h37l-57 -252h-389 l-57 78q-186 -96 -377 -96q-279 0 -415 102t-136 270zM444 430q0 -76 47.5 -121t137.5 -45q72 0 135 25l-236 325q-84 -71 -84 -184z" />
<glyph unicode="'" horiz-adv-x="462" d="M188 1229l50 205h405l-47 -205l-180 -346h-211z" />
<glyph unicode="(" horiz-adv-x="677" d="M41 508q0 377 193.5 653.5t459.5 356.5h193l-53 -238q-162 -47 -288 -274.5t-126 -528.5q0 -268 147 -350l-53 -227h-170q-303 194 -303 608z" />
<glyph unicode=")" horiz-adv-x="679" d="M-127 -100l51 227q166 57 292 284.5t126 528.5q0 260 -149 340l53 238h170q305 -190 305 -609q0 -379 -191.5 -650t-463.5 -359h-193z" />
<glyph unicode="*" horiz-adv-x="811" d="M119 985l96 82l281 -14l-267 67l-49 105l107 118l119 -36l110 -230l-59 252l71 105h166l21 -136l-168 -225l209 182h133l43 -141l-96 -82l-281 12l268 -65l47 -105l-100 -118l-121 32l-117 234l60 -250l-70 -104h-164l-24 137l170 221l-211 -184l-133 2z" />
<glyph unicode="+" horiz-adv-x="1058" d="M25 551l73 313h336l84 363h344l-84 -363h336l-72 -313h-335l-84 -363h-344l83 363h-337z" />
<glyph unicode="," horiz-adv-x="460" d="M-158 -246l37 158q156 23 156 94q0 12 -5 20.5t-20.5 20.5t-25.5 23q-45 45 -45 104q0 90 61 149.5t154 59.5q86 0 142 -54.5t56 -150.5q0 -195 -137 -304.5t-373 -119.5z" />
<glyph unicode="-" horiz-adv-x="595" d="M14 449l74 315h526l-73 -315h-527z" />
<glyph unicode="." horiz-adv-x="456" d="M-61 172q0 90 64.5 150.5t150.5 60.5q88 0 145 -56.5t57 -133.5q0 -88 -64.5 -147.5t-152.5 -59.5q-86 0 -143 55t-57 131z" />
<glyph unicode="/" horiz-adv-x="745" d="M-164 -100l854 1618h297l-856 -1618h-295z" />
<glyph unicode="0" horiz-adv-x="1411" d="M51 551q0 168 59.5 334t157.5 284q236 285 596 285q266 0 422 -160.5t156 -423.5q0 -170 -59.5 -336.5t-157.5 -283.5q-229 -272 -592 -273q-272 0 -427 155t-155 419zM520 481q0 -205 139 -205q129 0 207 179q41 96 71 233t30 244q0 201 -138 201q-125 0 -204 -179 q-43 -96 -74 -235.5t-31 -237.5z" />
<glyph unicode="1" horiz-adv-x="860" d="M-90 0l57 252h125q16 0 38 20.5t26 38.5l176 766l-125 -55h-76l62 268l344 144h356l-258 -1123q-4 -18 5 -38.5t26 -20.5h110l-57 -252h-809z" />
<glyph unicode="2" horiz-adv-x="1128" d="M-104 0l47 199q43 186 151.5 302.5t298.5 221.5q18 10 60.5 33.5t59.5 33t51 29t48.5 30.5t37 28.5t32.5 32t22.5 33t16.5 36.5t4 39q0 104 -119 104q-131 0 -211 -114h-235l84 370q201 76 448 76q256 0 390.5 -94t134.5 -277q0 -102 -34 -185t-101.5 -146.5t-135 -105.5 t-166.5 -89q-16 -8 -53 -25.5t-56.5 -26.5t-53 -25.5t-53 -28t-46 -26.5t-43 -27.5t-35 -27t-30 -27.5t-17.5 -28h326l59 115h281l-98 -430h-1065z" />
<glyph unicode="3" horiz-adv-x="1130" d="M-86 76l74 317h239q41 -113 187 -112q86 0 139 45t53 135q0 119 -162 119h-120l63 274h119q102 0 152.5 46t50.5 118q0 51 -34 83t-97 32q-111 0 -191 -97h-227l80 350q215 70 426 70q250 0 382 -92t132 -254q0 -322 -353 -387v-8q248 -51 248 -269q0 -219 -172 -344 t-469 -125q-327 1 -520 99z" />
<glyph unicode="4" horiz-adv-x="1212" d="M-18 373l71 319l778 742h451l-182 -785h123l-64 -276h-123l-14 -62q-4 -18 6 -38.5t27 -20.5h73l-57 -252h-723l58 252h81q16 0 38 21.5t26 37.5l14 62h-583zM350 649h293l88 373h-8l-373 -365v-8z" />
<glyph unicode="5" horiz-adv-x="1120" d="M-88 72l74 319h245q39 -111 177 -110q86 0 142 58t56 159q0 131 -135 131q-96 0 -158 -70h-262l203 875h975l-94 -408h-279l-14 82h-338l-66 -285h6q106 90 267 90q176 0 277.5 -95t101.5 -267q0 -268 -180.5 -421t-485.5 -153q-319 1 -512 95z" />
<glyph unicode="6" horiz-adv-x="1290" d="M39 489q0 203 67.5 385.5t180.5 309.5q242 270 657 270q231 0 422 -65l-76 -330h-223q-63 68 -168 67q-156 0 -256 -151q-47 -72 -82 -182q143 123 334 122q174 0 271.5 -88t97.5 -247q-2 -264 -187.5 -433.5t-480.5 -169.5q-262 0 -409.5 137t-147.5 375zM498 422 q0 -162 110 -162q82 0 131 81t49 185q0 117 -131 117q-61 0 -143 -35q-16 -108 -16 -186z" />
<glyph unicode="7" horiz-adv-x="1099" d="M88 0l43 195l770 890v9h-432l-80 -152h-276l112 492h1063l-84 -363l-639 -1071h-477z" />
<glyph unicode="8" horiz-adv-x="1282" d="M-10 354q0 158 97 266.5t267 151.5v6q-162 70 -161 236q0 205 177 323.5t433 118.5q246 0 388 -98t142 -256q0 -127 -78.5 -217t-220.5 -129v-8q203 -76 203 -269q0 -231 -178 -366.5t-479 -135.5q-291 0 -440.5 103.5t-149.5 273.5zM461 401q0 -135 133 -135 q88 0 139 70t51 164q0 135 -137 135q-88 0 -137 -70t-49 -164zM623 977q0 -47 27.5 -76t82.5 -29q68 0 109 52.5t41 132.5q-4 111 -107 110q-70 0 -111.5 -55t-41.5 -135z" />
<glyph unicode="9" horiz-adv-x="1288" d="M-16 45l75 317h226q68 -68 168 -67q180 0 280 151q47 74 82 185q-143 -121 -338 -121q-172 0 -269 89t-97 253q0 264 186 433t481 169q262 0 409.5 -137t147.5 -375q0 -203 -66.5 -391.5t-178.5 -312.5q-229 -258 -680 -258q-252 -1 -426 65zM586 903q0 -121 129 -121 q74 0 143 35q18 104 19 193q0 162 -111 161q-82 0 -131 -82t-49 -186z" />
<glyph unicode=":" horiz-adv-x="448" d="M-61 168q0 88 62 147.5t149 59.5q84 0 140 -55.5t56 -131.5q0 -86 -63.5 -144t-147.5 -58t-140 54t-56 128zM72 745q0 88 62.5 147.5t148.5 59.5q84 0 140 -55t56 -131q0 -86 -63.5 -144.5t-147.5 -58.5t-140 54t-56 128z" />
<glyph unicode=";" horiz-adv-x="450" d="M-158 -242l37 158q68 8 111 31.5t43 58.5q0 12 -5 19.5t-20.5 19.5t-25.5 23q-43 43 -43 102q0 88 59 146.5t149 58.5q84 0 138.5 -53.5t54.5 -147.5q0 -190 -133.5 -297t-364.5 -119zM72 745q0 88 62.5 147.5t148.5 59.5q84 0 140 -55t56 -131q0 -86 -63.5 -144.5 t-147.5 -58.5t-140 54t-56 128z" />
<glyph unicode="&#x3c;" horiz-adv-x="911" d="M29 565l59 252l838 371h108l-76 -332l-471 -184v-6l379 -207l-69 -299h-101z" />
<glyph unicode="=" horiz-adv-x="1007" d="M-27 272l70 303h942l-70 -303h-942zM70 690l69 301h942l-69 -301h-942z" />
<glyph unicode="&#x3e;" horiz-adv-x="911" d="M-57 160l75 332l471 184v6l-378 207l67 299h103l665 -404l-57 -252l-838 -372h-108z" />
<glyph unicode="?" horiz-adv-x="964" d="M115 172q0 90 63.5 150.5t151.5 60.5t145 -56.5t57 -133.5q0 -88 -64.5 -147.5t-152.5 -59.5q-86 0 -143 55t-57 131zM141 1051l78 333q178 72 402 72q225 0 338.5 -89t113.5 -237q0 -88 -25.5 -156.5t-81 -121.5t-103.5 -85t-134 -79q-82 -45 -121 -70.5t-73.5 -69.5 t-38.5 -99h-269q-4 125 42 215t143 172q8 6 59 45t72.5 58t45 57t23.5 77q0 80 -86 80q-84 0 -141 -102h-244z" />
<glyph unicode="@" horiz-adv-x="1775" d="M55 492q0 203 84 373.5t218.5 277t292 165t313.5 58.5q213 0 391 -77t289.5 -233.5t111.5 -365.5q0 -272 -153.5 -412.5t-391.5 -140.5q-219 0 -270 135q-109 -129 -256 -129q-115 0 -181.5 72t-66.5 201q0 223 142 385q117 127 288 127q131 0 207 -90q74 78 123 77h201 l-111 -495q-29 -115 47 -115q92 0 166 101.5t74 283.5q0 246 -168 385t-442 139q-133 0 -257 -45t-226.5 -131t-165 -228t-62.5 -318q0 -313 175 -464t470 -151t485 123h125l-28 -127q-102 -66 -257 -106.5t-325 -40.5q-166 0 -313.5 45t-267 135t-190.5 240.5t-71 345.5z M780 426q0 -80 68 -80q41 0 78 31l78 336q-25 8 -56 8q-76 0 -122 -87t-46 -208z" />
<glyph unicode="A" horiz-adv-x="1531" d="M-104 0l57 252h24q57 0 93 63l465 801q12 16 4.5 35.5t-25.5 19.5h-72l60 263h772l92 -1135q2 -16 18.5 -31.5t30.5 -15.5h35l-59 -252h-725l57 252h162l-11 186h-393q-47 -84 -46 -130q0 -56 79 -56h51l-57 -252h-612zM600 655h262l-22 426h-4z" />
<glyph unicode="B" horiz-adv-x="1361" d="M-104 0l57 252h67q16 0 38 21.5t26 37.5l184 803q4 18 -5 37.5t-27 19.5h-70l61 263h654q260 0 393 -83t133 -243q0 -293 -344 -360v-9q260 -51 260 -270q0 -221 -178 -345t-473 -124h-776zM545 264h92q211 0 211 217q0 129 -150 129h-73zM680 854h80q186 0 186 188 q0 121 -137 121h-57z" />
<glyph unicode="C" horiz-adv-x="1294" d="M51 535q0 393 235.5 657t594.5 264q147 0 241 -22h346l-118 -512h-297l-11 204q-45 16 -102 17q-172 0 -285.5 -168t-113.5 -438q0 -246 200 -246q141 0 265 137h235l-74 -330q-215 -121 -477 -121q-315 0 -477 148t-162 410z" />
<glyph unicode="D" horiz-adv-x="1503" d="M-104 0l57 252h59q18 0 43 21.5t29 37.5l184 803q4 16 -9 36.5t-30 20.5h-63l61 263h615q332 0 512 -153t180 -431q0 -180 -58.5 -334t-172 -269.5t-295 -181t-412.5 -65.5h-700zM553 264h74q195 0 309.5 164t114.5 440q0 139 -63.5 212t-180.5 73h-51z" />
<glyph unicode="E" horiz-adv-x="1267" d="M-104 0l57 252h67q16 0 38 21.5t26 37.5l184 803q4 18 -5 37.5t-27 19.5h-70l61 263h1203l-109 -465h-270l-7 182h-288l-64 -277h322l-68 -286h-321l-72 -314h303l88 218h291l-113 -492h-1226z" />
<glyph unicode="F" horiz-adv-x="1230" d="M-104 0l57 252h67q16 0 38 21.5t26 37.5l184 803q4 18 -5 37.5t-27 19.5h-70l61 263h1192l-112 -490h-273l-2 207h-276l-76 -324h321l-67 -292h-322l-63 -283h153l-57 -252h-749z" />
<glyph unicode="G" horiz-adv-x="1427" d="M51 520q0 395 238.5 664.5t621.5 269.5q133 0 236 -20h342l-115 -498h-299l-14 188q-45 18 -111 19q-178 0 -291.5 -183.5t-115.5 -451.5q0 -121 41 -177.5t133 -56.5q45 0 96 15l43 194h-100l57 250h643l-59 -256h-37q-18 0 -39 -19.5t-25 -37.5l-96 -420h-239 q-10 41 -48 41q-123 -63 -284 -64q-276 0 -427 146.5t-151 396.5z" />
<glyph unicode="H" horiz-adv-x="1552" d="M-104 0l57 252h67q16 0 38 21.5t26 37.5l184 803q4 18 -5 37.5t-27 19.5h-70l61 263h711l-61 -263h-115l-76 -323h326l73 323h-114l59 263h713l-62 -263h-65q-18 0 -39 -19t-25 -38l-184 -803q-4 -18 6 -38.5t27 -20.5h69l-57 -252h-713l58 252h116l80 352h-323l-82 -352 h117l-58 -252h-712z" />
<glyph unicode="I" horiz-adv-x="770" d="M-104 0l57 252h78q16 0 37.5 21.5t25.5 37.5l185 803q4 18 -5.5 37.5t-27.5 19.5h-80l61 263h731l-59 -263h-78q-18 0 -37.5 -19t-23.5 -38l-187 -803q-4 -18 6.5 -38.5t26.5 -20.5h80l-57 -252h-733z" />
<glyph unicode="J" horiz-adv-x="1101" d="M-88 61l70 308h231q31 -86 119 -86q94 0 125 123l161 708q4 18 -5 37.5t-27 19.5h-86l61 263h733l-61 -263h-72q-18 0 -37.5 -19t-23.5 -38l-156 -668q-57 -250 -192.5 -356t-421.5 -106q-256 -1 -418 77z" />
<glyph unicode="K" horiz-adv-x="1488" d="M-104 0l57 252h67q16 0 38 21.5t26 37.5l184 803q4 18 -5 37.5t-27 19.5h-70l61 263h695l-60 -263h-100l-80 -342l297 236q44 36 44 66q0 40 -56 40h-19l62 263h655l-59 -263h-19q-33 0 -100 -55l-377 -307l207 -502q23 -55 53 -55h37l-57 -252h-547l37 221l-127 332 l-113 -78l-51 -223h115l-58 -252h-710z" />
<glyph unicode="L" horiz-adv-x="1239" d="M-104 0l57 252h67q16 0 38 21.5t26 37.5l184 803q4 18 -5 37.5t-27 19.5h-70l61 263h758l-61 -263h-162l-209 -897h274l101 254h291l-121 -528h-1202z" />
<glyph unicode="M" horiz-adv-x="1910" d="M-104 0l57 252h67q16 0 38 21.5t26 37.5l184 803q4 18 -5 37.5t-27 19.5h-70l61 263h740l24 -658h6l306 658h796l-61 -263h-66q-18 0 -38.5 -19t-24.5 -38l-185 -803q-4 -18 6.5 -38.5t26.5 -20.5h70l-58 -252h-684l58 252h102l180 786h-6l-512 -1038h-270l-37 1038h-6 l-182 -786h125l-58 -252h-583z" />
<glyph unicode="N" horiz-adv-x="1486" d="M-104 0l57 252h67q16 0 38 21.5t26 37.5l184 803q4 18 -5 37.5t-27 19.5h-70l61 263h578l237 -764h7l116 501h-125l62 263h577l-61 -263h-59q-18 0 -39 -19t-25 -38l-256 -1114h-403l-281 848h-6l-137 -596h131l-58 -252h-589z" />
<glyph unicode="O" d="M51 565q0 383 250 636t602 253q291 0 464 -158.5t173 -431.5q0 -393 -240.5 -640t-592.5 -247q-307 0 -481.5 157t-174.5 431zM530 541q0 -262 197 -262q145 0 239.5 179t94.5 410q0 264 -197 265q-147 0 -240.5 -176t-93.5 -416z" />
<glyph unicode="P" horiz-adv-x="1347" d="M-104 0l57 252h67q16 0 38 21.5t26 37.5l184 803q4 18 -5 37.5t-27 19.5h-70l61 263h647q557 0 558 -383q0 -539 -711 -539h-113l-59 -260h151l-57 -252h-747zM655 766h80q213 0 213 254q0 133 -129 133h-74z" />
<glyph unicode="Q" d="M53 565q0 262 121 468t314.5 313.5t416.5 107.5q289 0 462 -160.5t173 -433.5q0 -281 -133 -454t-356 -242v-8q272 -27 389 -144l-60 -252h-342q-43 84 -140 134.5t-288 82.5q-557 99 -557 588zM530 535q0 -127 51.5 -196t147.5 -69q143 0 236.5 181.5t93.5 420.5 q0 127 -49 194t-142 67q-147 0 -242.5 -176t-95.5 -422z" />
<glyph unicode="R" horiz-adv-x="1447" d="M-104 0l57 252h67q16 0 38 21.5t26 37.5l184 803q4 18 -5 37.5t-27 19.5h-70l61 263h684q270 0 405.5 -94.5t135.5 -262.5q0 -156 -98.5 -257t-282.5 -138v-8q94 -23 140 -81t65 -198l12 -92q8 -51 45 -51h33l-57 -252h-482l-18 389q-4 92 -29.5 125t-95.5 33h-68 l-67 -295h129l-57 -252h-725zM664 795h81q219 0 220 227q0 131 -150 131h-70z" />
<glyph unicode="S" horiz-adv-x="1130" d="M-94 0l102 451h307l9 -179q49 -16 125 -16q88 0 139 36t51 103q0 31 -9 51.5t-39 41t-53.5 30.5t-82.5 37q-76 31 -124 57.5t-100.5 71.5t-77 108.5t-24.5 149.5q0 238 158.5 376t435.5 138q147 0 274 -22h267l-99 -416h-297l-10 160q-49 16 -110 16q-86 0 -135.5 -36 t-49.5 -103q0 -51 30 -78t99 -57q109 -43 176.5 -79t123 -85t79 -113.5t23.5 -150.5q0 -231 -151.5 -373t-440.5 -142q-135 0 -279 23h-317z" />
<glyph unicode="T" horiz-adv-x="1378" d="M106 895l123 539h1338l-125 -539h-283l23 264h-109l-194 -848q-4 -18 6 -38.5t26 -20.5h78l-57 -252h-729l57 252h76q16 0 37.5 21.5t25.5 37.5l195 848h-113l-96 -264h-279z" />
<glyph unicode="U" horiz-adv-x="1482" d="M133 559l127 555q4 18 -5 37.5t-28 19.5h-61l59 263h729l-61 -263h-139l-156 -671q-10 -42 -10 -76q0 -143 176 -143q98 0 148.5 49t74.5 162l156 679h-142l62 263h608l-61 -263h-58q-18 0 -38.5 -19t-24.5 -38l-148 -637q-59 -254 -213.5 -373.5t-422.5 -119.5 q-356 0 -496 151q-96 104 -96 265q0 74 20 159z" />
<glyph unicode="V" horiz-adv-x="1492" d="M164 1171l61 263h695l-62 -263h-135l53 -718h6l297 565q32 60 32 96q0 57 -79 57h-35l62 263h627l-62 -263h-29q-20 0 -45.5 -18t-40.5 -43l-649 -1110h-477l-137 1126q-2 18 -14.5 31.5t-30.5 13.5h-37z" />
<glyph unicode="W" horiz-adv-x="2050" d="M166 1171l61 263h676l-61 -263h-129v-587h6l387 850h315l17 -850h6l198 434q29 60 29 97q0 57 -69 56h-33l61 263h611l-60 -263h-24q-23 0 -49.5 -18t-39.5 -43l-540 -1110h-447l-18 727h-4l-336 -727h-455l-26 1126q0 16 -13.5 30.5t-29.5 14.5h-33z" />
<glyph unicode="X" horiz-adv-x="1452" d="M-104 0l57 252h43q45 0 80 39l395 418l-209 405q-27 57 -61 57h-35l61 263h684l-59 -248h-104l120 -256l129 141q35 42 36 71q0 6 -2 12q-9 32 -58 32h-29l57 248h641l-61 -263h-41q-45 0 -86 -45l-387 -411l207 -406q31 -57 69 -57h25l-57 -252h-686l55 240h111 l-127 264l-138 -158q-32 -37 -32 -65q0 -6 2 -11q8 -31 61 -30h31l-56 -240h-636z" />
<glyph unicode="Y" horiz-adv-x="1404" d="M166 1171l61 263h672l-61 -263h-125l121 -335h6l155 208q34 47 34 79q0 8 -2 15q-11 34 -73 33h-26l59 263h608l-61 -263h-23q-41 0 -92 -59l-467 -567l-53 -234q-4 -18 5 -38.5t28 -20.5h78l-58 -252h-731l60 252h73q18 0 40 20.5t26 38.5l57 250l-229 567 q-16 43 -49 43h-33z" />
<glyph unicode="Z" horiz-adv-x="1206" d="M-104 0l73 313l809 830v8h-268l-80 -172h-276l104 455h1124l-75 -322l-809 -829v-9h290l89 201h290l-110 -475h-1161z" />
<glyph unicode="[" horiz-adv-x="593" d="M-113 -100l373 1618h543l-60 -263h-168l-256 -1103h170l-59 -252h-543z" />
<glyph unicode="\" horiz-adv-x="745" d="M213 1518h266l139 -1618h-268z" />
<glyph unicode="]" horiz-adv-x="593" d="M-129 -100l57 252h170l254 1103h-168l60 263h544l-372 -1618h-545z" />
<glyph unicode="^" horiz-adv-x="825" d="M109 924l34 149l308 361h307l174 -361l-35 -149h-227l-111 194h-6l-188 -194h-256z" />
<glyph unicode="_" horiz-adv-x="802" d="M-203 -332l53 236h814l-56 -236h-811z" />
<glyph unicode="`" horiz-adv-x="819" d="M266 1319l27 115h352l55 -293h-245z" />
<glyph unicode="a" horiz-adv-x="1161" d="M-29 262q0 188 129 279.5t334 91.5q133 0 207 -25l18 76q4 17 4 32q0 84 -128 85q-117 0 -209 -80h-199l72 313q211 68 456 68q270 0 386 -100q83 -71 84 -196q0 -49 -13 -106l-92 -397q-4 -16 7 -33.5t26 -17.5h43l-47 -213q-111 -57 -250 -57q-188 0 -230 141 q-131 -137 -307 -137q-131 0 -211 73.5t-80 202.5zM395 309q0 -74 80 -73q43 0 88 32l37 162q-35 12 -78 12q-59 0 -93 -38t-34 -95z" />
<glyph unicode="b" horiz-adv-x="1218" d="M-68 0l256 1120q4 16 -6 33.5t-24 17.5h-58l60 263h479q31 0 44 -25q8 -15 8 -37q0 -13 -3 -29l-90 -393q143 152 313 152q135 0 220.5 -92t85.5 -265q0 -184 -50.5 -338.5t-128.5 -248.5q-150 -178 -381 -178q-201 0 -301 147q-100 -127 -176 -127h-248zM442 279 q41 -23 86 -23q109 0 173.5 107.5t64.5 267.5q0 78 -36 111.5t-112 33.5q-29 0 -63 -10z" />
<glyph unicode="c" horiz-adv-x="1019" d="M10 408q0 309 189.5 501.5t498.5 192.5q260 0 404 -70l-72 -311h-231q-10 49 -35 73.5t-78 24.5q-102 0 -166.5 -134t-64.5 -288q0 -152 123 -151q96 0 159 94h219l-65 -285q-156 -76 -354 -75q-268 0 -397.5 113.5t-129.5 314.5z" />
<glyph unicode="d" horiz-adv-x="1275" d="M4 367q0 160 56.5 316.5t158.5 260.5q152 158 354 158q172 0 258 -105l41 174h-104l61 263h482q31 0 45 -26q8 -15 8 -34q0 -14 -4 -31l-240 -1040q-4 -16 7.5 -33.5t25.5 -17.5h53l-49 -215q-100 -55 -250 -55q-217 0 -245 155q-150 -158 -338 -157q-145 0 -232.5 100.5 t-87.5 286.5zM457 401q0 -139 141 -139q31 0 68 12l116 510q-37 14 -82 15q-115 0 -179 -112t-64 -286z" />
<glyph unicode="e" horiz-adv-x="1101" d="M12 410q0 309 191.5 500.5t490.5 191.5q207 0 318.5 -90t111.5 -234q0 -109 -48 -184.5t-143 -116.5t-212 -59.5t-281 -20.5q6 -152 133 -151.5t209 94.5h228l-66 -279q-164 -82 -395 -81q-283 0 -410 116.5t-127 313.5zM459 606q135 12 199.5 47t64.5 103q0 86 -80 86 q-68 0 -114.5 -65t-69.5 -171z" />
<glyph unicode="f" horiz-adv-x="724" d="M-178 -332l55 236q106 27 139 178l160 731h-108l61 268h107l10 47q39 178 149.5 256t306.5 78q125 0 218 -30l-56 -234h-43q-66 0 -93.5 -17.5t-37.5 -68.5l-8 -31h143l-59 -268h-143l-162 -735q-35 -162 -129 -265.5t-213 -144.5h-297z" />
<glyph unicode="g" horiz-adv-x="1089" d="M-137 -137q0 162 252 233q-41 18 -68 56t-27 84q0 143 185 233q-121 78 -121 223q0 184 140.5 297t381.5 113q90 0 178 -21h404l-60 -268h-24q-23 0 -47 -29v-4q0 -176 -136.5 -282.5t-369.5 -106.5q-135 0 -227 27q-8 -25 -9 -37q0 -55 72 -55h303q324 0 324 -254 q0 -442 -635 -443q-274 0 -395 58.5t-121 175.5zM238 -47q0 -51 30.5 -70.5t128.5 -19.5q96 0 157.5 23.5t61.5 68.5t-77 45h-295q-6 -20 -6 -47zM479 674q0 -92 72 -92q51 0 90 63.5t39 159.5q0 82 -78 82q-49 0 -86 -60.5t-37 -152.5z" />
<glyph unicode="h" horiz-adv-x="1300" d="M2 57l244 1063q4 16 -6.5 33.5t-24.5 17.5h-57l59 263h479q31 0 44 -25q8 -15 9 -37q0 -13 -4 -29l-100 -436q203 195 404 195q129 0 189 -78q39 -50 39 -126q0 -41 -11 -89l-117 -506q-4 -16 7 -33.5t26 -17.5h53l-49 -215q-100 -55 -271 -55q-235 0 -235 185 q0 42 12 93l92 393q5 19 5 35q0 24 -12 39q-19 25 -81 25q-39 0 -92 -17l-168 -735h-397q-18 0 -30 18q-8 14 -8 29q0 5 1 10z" />
<glyph unicode="i" horiz-adv-x="673" d="M51 260l115 502q4 14 -6 32.5t-25 18.5h-65l51 227q156 53 313 54q119 0 173 -67q36 -45 37 -112q0 -33 -9 -71l-127 -541q-4 -16 7 -33.5t26 -17.5h63l-49 -215q-98 -55 -279 -55q-237 0 -237 185q0 42 12 93zM281 1307q0 92 64.5 146t158.5 54q88 0 141 -48t53 -124 q0 -94 -63.5 -148t-157.5 -54q-90 0 -143 49t-53 125z" />
<glyph unicode="j" horiz-adv-x="622" d="M-229 -317l51 225h57q53 0 78 21.5t37 76.5l172 756q4 16 -6 33.5t-25 17.5h-65l51 227q156 53 313 54q119 0 173 -67q36 -45 37 -112q0 -33 -9 -71l-199 -858q-41 -182 -145.5 -258t-282.5 -76q-133 0 -237 31zM281 1307q0 92 64.5 146t158.5 54q88 0 141 -48t53 -124 q0 -94 -63.5 -148t-157.5 -54q-90 0 -143 49t-53 125z" />
<glyph unicode="k" horiz-adv-x="1212" d="M2 57l244 1063q4 14 -7.5 32.5t-23.5 18.5h-59l61 263h479q31 0 44 -25q8 -15 9 -37q0 -13 -4 -29l-157 -686q117 86 208 207t113 217h371l-47 -215q-100 -141 -272 -286l114 -277q23 -51 58 -51h43l-50 -215q-84 -55 -208 -55q-61 0 -102.5 12t-70 46t-43 61.5 t-40.5 91.5l-72 178q-72 -31 -76 -33l-78 -338h-397q-20 0 -31 18q-7 13 -7 28q0 5 1 11z" />
<glyph unicode="l" horiz-adv-x="677" d="M55 260l197 860q4 14 -6 32.5t-25 18.5h-63l59 263h485q31 0 46 -25q8 -14 8 -34q0 -14 -4 -32l-240 -1040q-4 -16 7 -33.5t26 -17.5h65l-49 -215q-98 -55 -280 -55q-237 0 -238 185q0 42 12 93z" />
<glyph unicode="m" horiz-adv-x="1902" d="M2 57l162 705q4 14 -6.5 32.5t-24.5 18.5h-63l51 227q156 53 309 54q98 0 152.5 -49.5t54.5 -137.5q190 195 391 195q102 0 161.5 -52.5t63.5 -150.5q193 203 398 203q129 0 189 -78q40 -52 40 -129q0 -40 -10 -86l-119 -506q-4 -16 7 -33.5t26 -17.5h53l-49 -215 q-98 -55 -268 -55q-237 0 -237 187q0 41 11 91l92 397q5 23 6 40q0 22 -9 35q-15 24 -72 24q-29 0 -80 -19l-172 -737h-395q-20 0 -31.5 18.5t-7.5 38.5l139 600q5 22 5 39q0 21 -8 35q-15 25 -73 25q-37 0 -82 -17l-170 -739h-397q-18 0 -30 18q-8 14 -8 29q0 5 1 10z" />
<glyph unicode="n" horiz-adv-x="1300" d="M2 57l162 705q4 14 -6.5 32.5t-24.5 18.5h-63l51 227q156 53 309 54q98 0 153.5 -50.5t53.5 -142.5q209 201 412 201q129 0 189 -78q39 -50 39 -126q0 -41 -11 -89l-117 -506q-4 -16 7 -33.5t26 -17.5h53l-49 -215q-100 -55 -271 -55q-235 0 -235 185q0 42 12 93l92 393 q5 19 5 35q0 24 -12 39q-19 25 -81 25q-37 0 -90 -17l-170 -735h-397q-18 0 -30 18q-8 14 -8 29q0 5 1 10z" />
<glyph unicode="o" horiz-adv-x="1204" d="M12 459q0 268 179.5 455.5t461.5 187.5q256 0 399.5 -128t143.5 -349q0 -270 -177 -456.5t-464 -186.5q-256 0 -399.5 127t-143.5 350zM451 395q0 -147 108 -147q86 0 141.5 132t55.5 286q0 145 -109 145q-86 0 -141 -131t-55 -285z" />
<glyph unicode="p" horiz-adv-x="1280" d="M-188 -332l53 236h53q16 0 36.5 17.5t22.5 31.5l187 809q4 14 -6.5 32.5t-24.5 18.5h-63l51 227q156 53 309 54q94 0 148.5 -46.5t58.5 -127.5q150 182 340 182q133 0 217 -92t84 -265q0 -362 -188 -563q-143 -156 -363 -155q-170 0 -264 82l-47 -205h92l-53 -236h-643z M504 291q45 -20 92 -21q104 0 167.5 105.5t63.5 259.5q0 143 -147 143q-31 0 -68 -12z" />
<glyph unicode="q" horiz-adv-x="1236" d="M8 373q0 338 197 557q156 172 383 172q182 0 274 -146q90 125 182 125h259l-259 -1128q-4 -14 9.5 -31.5t29.5 -17.5h54l-56 -236h-645l56 236h94l53 237q-129 -115 -299 -114q-154 0 -243 91t-89 255zM459 422q0 -76 39 -112t104 -36q39 0 70 13l112 497q-35 14 -82 15 q-106 0 -174.5 -112.5t-68.5 -264.5z" />
<glyph unicode="r" horiz-adv-x="892" d="M2 57l162 705q4 14 -6.5 32.5t-24.5 18.5h-63l51 227q156 53 309 54q90 0 142.5 -51.5t56.5 -141.5q111 188 303 189q39 0 63 -9l-84 -360h-53q-152 0 -272 -76l-150 -645h-397q-18 0 -30 18q-8 14 -8 29q0 5 1 10z" />
<glyph unicode="s" horiz-adv-x="956" d="M-72 74l64 266h213q23 -51 59.5 -76.5t104.5 -25.5q51 0 87 20.5t36 60.5q0 33 -32 50.5t-116 38.5q-133 33 -205.5 99t-72.5 187q0 203 138 303.5t365 100.5q250 0 432 -74l-61 -268h-217q-45 96 -152 96q-115 0 -114 -76q0 -31 28.5 -50t102.5 -40q160 -39 237.5 -98.5 t77.5 -184.5q0 -203 -134 -311t-380 -108q-295 0 -461 90z" />
<glyph unicode="t" horiz-adv-x="739" d="M63 354l107 459h-100l59 268h102l66 281h448l-65 -281h158l-60 -268h-160l-100 -432q-5 -23 -5 -43q0 -86 105 -86h41l-55 -244q-104 -31 -213 -31q-342 0 -342 259q-1 53 14 118z" />
<glyph unicode="u" horiz-adv-x="1292" d="M55 293l107 469q4 14 -6.5 32.5t-24.5 18.5h-61l51 227q162 55 307 56q121 0 174 -73q35 -47 35 -114q0 -36 -10 -78l-99 -423q-4 -19 -4 -36q0 -73 92 -73q41 0 78 12l176 770h400q20 0 30 -17q7 -12 8 -28q0 -6 -1 -12l-168 -721q-4 -16 7 -33.5t25 -17.5h56l-49 -215 q-100 -55 -271 -55q-244 0 -237 190q-190 -190 -385 -190q-137 0 -201 81q-41 53 -41 134q0 44 12 96z" />
<glyph unicode="v" horiz-adv-x="1153" d="M70 813l51 227q125 55 256 56q102 0 154.5 -47.5t60.5 -155.5l35 -475h6q174 287 231 663h381l-57 -241q-113 -260 -227.5 -450.5t-313.5 -389.5h-389l-98 770q-4 16 -14.5 29.5t-22.5 13.5h-53z" />
<glyph unicode="w" horiz-adv-x="1689" d="M70 813l51 227q125 55 250 56q106 0 158.5 -46t54.5 -157l16 -404h6l238 592h325l50 -612h6q123 223 188 612h373l-55 -241q-178 -485 -494 -840h-334l-33 547h-4l-254 -547h-401l-53 770q-2 14 -13.5 28.5t-23.5 14.5h-51z" />
<glyph unicode="x" horiz-adv-x="1087" d="M-80 0l57 252q139 29 326 262l-139 264q-20 35 -47 35h-54l50 227q111 53 213 54q109 0 161 -37t99 -152l55 -143q137 229 246 319h289l-62 -268q-131 -33 -321 -260l141 -260q25 -41 53 -41h49l-49 -215q-84 -55 -211 -55q-111 0 -167 40.5t-101 141.5l-59 131 q-106 -178 -238 -295h-291z" />
<glyph unicode="y" horiz-adv-x="1267" d="M-53 -287l65 281h256q35 -76 154 -76q182 0 221 178l25 109q-170 -143 -367 -144q-135 0 -200 80q-44 54 -43 132q0 37 10 79l94 410q4 14 -6.5 32.5t-24.5 18.5h-61l51 227q162 55 307 56q121 0 174 -73q35 -47 35 -114q0 -36 -10 -78l-90 -391q-4 -19 -5 -35 q0 -73 93 -73q39 0 75 12l170 737h400q20 0 30 -17q7 -12 8 -28q0 -6 -1 -12l-224 -965q-47 -203 -208.5 -307t-466.5 -104q-311 -1 -461 65z" />
<glyph unicode="z" horiz-adv-x="1052" d="M-90 0l65 285l603 520h-195l-72 -131h-237l94 407h985l-66 -293l-614 -520h209l63 129h248l-90 -397h-993z" />
<glyph unicode="{" horiz-adv-x="700" d="M35 596l59 262h33q115 0 137 100l68 293q61 266 366 267h211l-61 -263h-90q-16 0 -37 -20.5t-25 -36.5l-59 -258q-39 -172 -264 -211v-6q201 -57 157 -244l-63 -268q-4 -18 7 -38.5t30 -20.5h90l-57 -252h-168q-162 0 -237 80.5t-42 224.5l64 274q10 47 -8.5 82t-71.5 35 h-39z" />
<glyph unicode="|" horiz-adv-x="350" d="M82 -100v1618h266v-1618h-266z" />
<glyph unicode="}" horiz-adv-x="700" d="M-127 -100l57 252h90q18 0 39 20.5t25 38.5l66 278q39 168 262 211v7q-199 53 -156 243l55 248q4 16 -7 36.5t-28 20.5h-92l62 263h170q160 0 234.5 -81t41.5 -225l-59 -264q-12 -47 6 -82t72 -35h41l-60 -260h-33q-115 0 -139 -102l-69 -303q-61 -266 -367 -266h-211z " />
<glyph unicode="~" horiz-adv-x="751" d="M-6 426l43 192q35 68 94 111t131 43q55 0 144.5 -22.5t111.5 -22.5q43 0 78 53h197l-48 -200q-78 -147 -225 -148q-55 0 -143 23.5t-111 23.5q-47 0 -73 -53h-199z" />
<glyph unicode="&#xa1;" horiz-adv-x="507" d="M-125 -131l62 262l296 723h213l-57 -723l-61 -262h-453zM182 1110q0 88 63.5 147.5t151.5 59.5q86 0 143.5 -55.5t57.5 -131.5q0 -90 -63.5 -150t-151.5 -60q-86 0 -143.5 56t-57.5 134z" />
<glyph unicode="&#xa2;" horiz-adv-x="1019" d="M10 408q0 276 150.5 460.5t408.5 223.5l37 155h312l-37 -155q131 -16 221 -60l-72 -311h-231q-10 49 -35 73.5t-78 24.5q-102 0 -166.5 -131t-64.5 -291q0 -152 123 -151q94 0 159 94h219l-65 -285q-117 -55 -266 -71l-45 -193h-312l49 213q-307 82 -307 404z" />
<glyph unicode="&#xa3;" horiz-adv-x="1116" d="M-104 0l57 252q233 63 242 334h-160l57 248h88q-4 66 -4 100q0 256 167 388t470 132q285 0 457 -84l-84 -364h-238q-33 117 -147 116q-121 0 -162 -135q-12 -35 -27 -153h265l-56 -248h-241q-2 -8 -5.5 -22.5t-3.5 -18.5q-31 -121 -65 -195q111 -25 235 -24l54 118h282 l-102 -444h-96q-391 0 -594 88q-78 -51 -187 -88h-202z" />
<glyph unicode="&#xa5;" horiz-adv-x="1316" d="M51 377l41 178h330l18 84h-327l41 178h208l-122 311q-20 43 -52 43h-22l61 263h635l-61 -263h-101l91 -294h4l129 174q39 51 26.5 85.5t-63.5 34.5h-17l60 263h577l-61 -263h-25q-45 0 -82 -49l-258 -305h209l-41 -178h-329l-19 -84h330l-41 -178h-330l-14 -66 q-4 -18 5 -38.5t26 -20.5h79l-57 -252h-731l57 252h76q18 0 39.5 20.5t26.5 38.5l14 66h-330z" />
<glyph unicode="&#xa6;" horiz-adv-x="350" d="M41 -100v731h268l-2 -731h-266zM41 793v725h266l2 -725h-268z" />
<glyph unicode="&#xa7;" horiz-adv-x="1159" d="M-45 -182l61 276h252q12 -57 48 -87t110 -30q53 0 86 25t33 66q0 35 -33 59.5t-137 62.5q-184 66 -266 139.5t-82 194.5q0 242 264 336q-47 66 -47 166q0 186 140 308t390 122q244 0 420 -86l-57 -260h-248q-16 49 -49 72.5t-103 23.5q-57 0 -84.5 -24.5t-27.5 -63.5 q0 -31 29.5 -52.5t121.5 -51.5q207 -70 298 -140.5t91 -191.5q0 -262 -274 -352q53 -68 53 -164q0 -199 -135 -320.5t-385 -121.5q-266 0 -469 94zM371 664q0 -39 37.5 -69t146.5 -67q123 -45 195 -84q51 33 51 91q0 41 -42 73.5t-153 71.5q-106 37 -184 76q-51 -33 -51 -92 z" />
<glyph unicode="&#xa8;" horiz-adv-x="819" d="M188 1300q0 86 56.5 136.5t142.5 50.5q82 0 130 -46t48 -118q0 -88 -56 -139t-140 -51q-82 0 -131.5 46.5t-49.5 120.5zM614 1300q0 86 55.5 136.5t141.5 50.5q82 0 131 -46t49 -118q0 -88 -57 -139t-141 -51q-82 0 -130.5 45.5t-48.5 121.5z" />
<glyph unicode="&#xa9;" horiz-adv-x="1554" d="M88 717q0 340 212 536.5t521 196.5q199 0 363 -83t266 -252t102 -398.5t-102 -398t-266 -251.5t-363 -83q-309 0 -521 196.5t-212 536.5zM184 717q0 -305 180.5 -479.5t457 -174.5t455.5 174.5t179 479.5t-179 479t-455.5 174t-457 -174t-180.5 -479zM403 705 q0 205 112 316.5t302 111.5q63 0 137 -13h199v-295h-190l-29 103q-29 8 -53 8q-74 0 -112 -49t-38 -170q0 -223 137 -223q78 0 136 75h151v-192q-131 -82 -317 -82q-213 0 -324 104.5t-111 305.5z" />
<glyph unicode="&#xaa;" horiz-adv-x="999" d="M80 756q0 156 107.5 230.5t283.5 74.5q115 0 176 -19l15 58q10 47 -14.5 71.5t-90.5 24.5q-106 0 -174 -63h-174l61 264q174 55 387 55q227 0 325.5 -83t59.5 -255l-73 -323q-2 -12 7 -26.5t19 -14.5h37l-41 -183q-94 -49 -211 -49q-162 0 -194 117q-109 -113 -256 -113 q-109 0 -179.5 62.5t-70.5 171.5zM438 793q0 -63 70 -64q39 0 74 27l32 143q-41 12 -69 12q-49 0 -78 -34.5t-29 -83.5z" />
<glyph unicode="&#xab;" horiz-adv-x="1034" d="M20 475l37 158l351 350h237l-24 -104l-250 -347v-6l90 -336l-25 -108h-200zM481 471l37 158l348 354h238l-25 -104l-248 -351v-6l89 -332l-25 -108h-201z" />
<glyph unicode="&#xad;" horiz-adv-x="595" d="M14 449l74 315h526l-73 -315h-527z" />
<glyph unicode="&#xae;" horiz-adv-x="796" d="M158 1083q0 168 107.5 267.5t262.5 99.5q154 0 262.5 -99.5t108.5 -267.5t-108.5 -267t-262 -99t-262 99t-108.5 267zM238 1083.5q0 -141.5 81.5 -220.5t208.5 -79t209 79t82 220.5t-82 220t-209 78.5t-208.5 -78.5t-81.5 -220zM350 909v68h17q14 0 14 16v191 q0 14 -14 14h-17v70h178q164 0 164 -103q0 -59 -67 -80v-2q47 -8 63 -67l8 -27q4 -12 13 -12h10v-68h-141l-13 99q-4 23 -13 31t-32 8h-12v-70h35v-68h-193zM504 1114h18q43 0 43 41q0 39 -43 39h-18v-80z" />
<glyph unicode="&#xaf;" horiz-adv-x="819" d="M266 1174l58 245h583l-57 -245h-584z" />
<glyph unicode="&#x2c9;" horiz-adv-x="819" d="M266 1174l58 245h583l-57 -245h-584z" />
<glyph unicode="&#xb0;" horiz-adv-x="706" d="M174 1126q0 141 100.5 230.5t235.5 89.5q129 0 217 -81t88 -202q0 -147 -99.5 -236t-236.5 -89q-129 0 -217 81.5t-88 206.5zM346 1130q0 -66 37 -106.5t102 -40.5q68 0 114 47t46 127q0 66 -39 104.5t-104 38.5q-68 0 -112 -45t-44 -125z" />
<glyph unicode="&#xb2;" horiz-adv-x="702" d="M35 621l31 127q27 106 91 171.5t169 118.5q133 70 155 97q18 20 19 45q0 53 -62 53q-66 0 -108 -62h-154l53 232q121 45 277 45t240.5 -58.5t84.5 -158.5q0 -106 -62 -171t-175 -116q-27 -12 -64.5 -28.5t-56 -24.5t-40 -19.5t-34 -22.5t-18.5 -24h156l26 52h185 l-62 -256h-651z" />
<glyph unicode="&#xb3;" horiz-adv-x="702" d="M45 666l47 194h156q23 -63 96 -63q39 0 64.5 22.5t25.5 59.5q0 57 -76 57h-82l43 170h78q47 0 72 22.5t25 57.5q0 53 -68 53q-57 0 -100 -49h-148l53 221q133 37 263 37q154 0 232.5 -52.5t78.5 -146.5q0 -174 -203 -219v-4q150 -29 150 -156q0 -125 -103.5 -194.5 t-281.5 -69.5q-216 1 -322 60z" />
<glyph unicode="&#xb4;" horiz-adv-x="819" d="M401 1141l101 293h409l-26 -115l-226 -178h-258z" />
<glyph unicode="&#xb6;" horiz-adv-x="1159" d="M131 954q0 248 161 364t427 116h631l-62 -263h-65q-18 0 -39 -19t-25 -38l-301 -1300h-225l315 1366h-112l-316 -1366h-225l184 798q-164 23 -256 109t-92 233z" />
<glyph unicode="&#xb7;" horiz-adv-x="456" d="M35 590q0 90 64.5 150.5t150.5 60.5q88 0 145.5 -56.5t57.5 -134.5q0 -88 -64.5 -147.5t-152.5 -59.5q-86 0 -143.5 55.5t-57.5 131.5z" />
<glyph unicode="&#x2219;" horiz-adv-x="456" d="M35 590q0 90 64.5 150.5t150.5 60.5q88 0 145.5 -56.5t57.5 -134.5q0 -88 -64.5 -147.5t-152.5 -59.5q-86 0 -143.5 55.5t-57.5 131.5z" />
<glyph unicode="&#xb8;" horiz-adv-x="819" d="M35 -324l31 131h98q12 -27 47 -26q47 0 47 35q0 33 -49 32h-45l35 152h155l-12 -51q143 -12 143 -129q0 -84 -68.5 -131t-185.5 -47q-126 -1 -196 34z" />
<glyph unicode="&#xb9;" horiz-adv-x="600" d="M51 621l41 170h76q8 0 21.5 11t17.5 19l86 365l-80 -41h-55l45 190l237 99h250l-147 -613q-2 -8 4 -19t16 -11h82l-43 -170h-551z" />
<glyph unicode="&#xba;" horiz-adv-x="1005" d="M109 915q0 223 151.5 380t388.5 157q215 0 336 -106.5t121 -290.5q0 -225 -149.5 -381t-389.5 -156q-217 0 -337.5 106.5t-120.5 290.5zM483 864q0 -119 86 -119q72 0 116 108t44 234q0 119 -86 119q-72 0 -116 -107.5t-44 -234.5z" />
<glyph unicode="&#xbb;" horiz-adv-x="1036" d="M-70 82l25 104l250 351v6l-90 331l24 109h201l213 -389l-37 -158l-348 -354h-238zM391 82l25 104l248 346v7l-89 335l25 109h201l213 -393l-37 -158l-348 -350h-238z" />
<glyph unicode="&#xbc;" horiz-adv-x="1644" d="M51 621l41 170h76q8 0 21.5 11t17.5 19l86 365l-80 -41h-55l45 190l237 99h250l-147 -613q-2 -8 4 -19t16 -11h82l-43 -170h-551zM100 -70l1303 1563h242l-1303 -1563h-242zM821 231l45 191l430 391h318l-98 -416h81l-38 -166h-84l-7 -28q-4 -10 3.5 -21.5t15.5 -11.5h57 l-41 -170h-497l41 170h59q8 0 21.5 11.5t17.5 21.5l6 28h-330zM1055 397h151l43 181h-4l-190 -177v-4z" />
<glyph unicode="&#xbd;" horiz-adv-x="1728" d="M51 621l41 170h76q8 0 21.5 11t17.5 19l86 365l-80 -41h-55l45 190l237 99h250l-147 -613q-2 -8 4 -19t16 -11h82l-43 -170h-551zM94 -70l1303 1563h241l-1302 -1563h-242zM918 0l30 129q25 104 88.5 170t169.5 121q6 2 17 8q63 33 89.5 47t47 37t20.5 49q0 51 -61 51 q-70 0 -109 -61h-153l53 231q121 45 276 45q158 0 242 -57t84 -160q0 -106 -62.5 -170.5t-174.5 -115.5q-27 -12 -65 -28.5t-56.5 -25t-40 -19.5t-32.5 -21.5t-17 -22.5h153l27 49h184l-61 -256h-649z" />
<glyph unicode="&#xbe;" horiz-adv-x="1660" d="M45 666l47 194h156q23 -63 96 -63q39 0 64.5 22.5t25.5 59.5q0 57 -76 57h-82l43 170h78q47 0 72 22.5t25 57.5q0 53 -68 53q-57 0 -100 -49h-148l53 221q133 37 263 37q154 0 232.5 -52.5t78.5 -146.5q0 -174 -203 -219v-4q150 -29 150 -156q0 -125 -103.5 -194.5 t-281.5 -69.5q-216 1 -322 60zM127 -70l1303 1563h241l-1302 -1563h-242zM836 231l45 191l430 391h317l-98 -416h82l-39 -166h-84l-6 -28q-4 -10 3 -21.5t15 -11.5h58l-41 -170h-498l41 170h59q8 0 21.5 11.5t17.5 21.5l6 28h-329zM1069 397h152l43 181h-4l-191 -177v-4z " />
<glyph unicode="&#xbf;" horiz-adv-x="964" d="M-55 170q0 88 25.5 157.5t82 122t104.5 84t134 78.5q84 47 122 73t72.5 70t38.5 99h269q8 -229 -185 -387q-6 -6 -59 -46t-72.5 -58.5t-44 -57.5t-24.5 -76q0 -80 84 -79q88 0 141 102h244l-76 -334q-170 -72 -402 -72q-225 0 -339.5 88.5t-114.5 235.5zM487 1110 q0 88 64.5 147.5t153.5 59.5q86 0 143 -55.5t57 -131.5q0 -90 -64.5 -150t-150.5 -60q-88 0 -145.5 55t-57.5 135z" />
<glyph unicode="&#xc0;" horiz-adv-x="1531" d="M-104 0l57 252h24q57 0 93 63l465 801q12 16 4.5 35.5t-25.5 19.5h-72l60 263h772l92 -1135q2 -16 18.5 -31.5t30.5 -15.5h35l-59 -252h-725l57 252h162l-11 186h-393q-51 -92 -46 -139t79 -47h51l-57 -252h-612zM600 655h262l-22 426h-4zM651 1669l27 115h352l55 -293 h-245z" />
<glyph unicode="&#xc1;" horiz-adv-x="1531" d="M-104 0l57 252h24q57 0 93 63l465 801q12 16 4.5 35.5t-25.5 19.5h-72l60 263h772l92 -1135q2 -16 18.5 -31.5t30.5 -15.5h35l-59 -252h-725l57 252h162l-11 186h-393q-51 -92 -46 -139t79 -47h51l-57 -252h-612zM600 655h262l-22 426h-4zM786 1491l101 293h409l-26 -115 l-226 -178h-258z" />
<glyph unicode="&#xc2;" horiz-adv-x="1531" d="M-104 0l57 252h24q57 0 93 63l465 801q12 16 4.5 35.5t-25.5 19.5h-72l60 263h772l92 -1135q2 -16 18.5 -31.5t30.5 -15.5h35l-59 -252h-725l57 252h162l-11 186h-393q-51 -92 -46 -139t79 -47h51l-57 -252h-612zM600 655h262l-22 426h-4zM631 1491l18 82l193 211h291 l124 -211l-18 -82h-172l-106 96l-146 -96h-184z" />
<glyph unicode="&#xc3;" horiz-adv-x="1531" d="M-104 0l57 252h24q57 0 93 63l465 801q12 16 4.5 35.5t-25.5 19.5h-72l60 263h772l92 -1135q2 -16 18.5 -31.5t30.5 -15.5h35l-59 -252h-725l57 252h162l-11 186h-393q-51 -92 -46 -139t79 -47h51l-57 -252h-612zM592 1491l37 158q72 127 221 127q47 0 128 -18.5 t105 -18.5q55 0 82 45h183l-37 -158q-78 -129 -224 -129q-47 0 -127.5 20.5t-105.5 20.5q-53 0 -80 -47h-182zM600 655h262l-22 426h-4z" />
<glyph unicode="&#xc4;" horiz-adv-x="1531" d="M-104 0l57 252h24q57 0 93 63l465 801q12 16 4.5 35.5t-25.5 19.5h-72l60 263h772l92 -1135q2 -16 18.5 -31.5t30.5 -15.5h35l-59 -252h-725l57 252h162l-11 186h-393q-51 -92 -46 -139t79 -47h51l-57 -252h-612zM573 1651q0 86 56.5 136t142.5 50q82 0 130 -46t48 -118 q0 -88 -56 -139t-140 -51q-82 0 -131.5 47t-49.5 121zM600 655h262l-22 426h-4zM999 1651q0 86 55.5 136t141.5 50q82 0 131 -46t49 -118q0 -88 -57 -139t-141 -51q-82 0 -130.5 46t-48.5 122z" />
<glyph unicode="&#xc5;" horiz-adv-x="1531" d="M-104 0l57 252h24q57 0 93 63l465 801q12 16 4.5 35.5t-25.5 19.5h-72l60 263h772l92 -1135q2 -16 18.5 -31.5t30.5 -15.5h35l-59 -252h-725l57 252h162l-11 186h-393q-51 -92 -46 -139t79 -47h51l-57 -252h-612zM600 655h262l-22 426h-4zM750 1692q0 104 68.5 163.5 t164.5 59.5q90 0 151.5 -55.5t61.5 -143.5q0 -104 -68.5 -163.5t-162.5 -59.5q-92 0 -153.5 55.5t-61.5 143.5zM879 1694q0 -41 23.5 -65.5t64.5 -24.5q45 0 73.5 28.5t28.5 79.5q0 43 -24.5 68.5t-67.5 25.5t-70.5 -29.5t-27.5 -82.5z" />
<glyph unicode="&#xc6;" horiz-adv-x="2269" d="M-106 0l57 252h37q51 0 98 63l606 801q12 16 6 35.5t-26 19.5h-72l62 263h1562l-108 -465h-277l2 182h-305l-63 -274h327l-67 -291h-328l-72 -312h314l86 218h290l-112 -492h-1231l57 252h111l43 186h-383q-66 -88 -60.5 -137t80.5 -49h43l-57 -252h-620zM672 655h268 l117 496h-13z" />
<glyph unicode="&#xc7;" horiz-adv-x="1294" d="M51 535q0 393 235.5 657t594.5 264q147 0 241 -22h346l-118 -512h-297l-11 204q-45 16 -102 17q-172 0 -285.5 -168t-113.5 -438q0 -246 200 -246q141 0 265 137h235l-74 -330q-215 -121 -477 -121q-29 0 -82 5l-6 -33q143 -12 143 -129q0 -84 -68.5 -131t-184.5 -47 q-127 0 -197 34l31 131h98q12 -27 47 -26q47 0 47 35q0 33 -49 32h-45l35 154q-203 49 -305.5 186.5t-102.5 346.5z" />
<glyph unicode="&#xc8;" horiz-adv-x="1267" d="M-104 0l57 252h67q16 0 38 21.5t26 37.5l184 803q4 18 -5 37.5t-27 19.5h-70l61 263h1203l-109 -465h-270l-7 182h-288l-64 -277h322l-68 -286h-321l-72 -314h303l88 218h291l-113 -492h-1226zM571 1669l27 115h352l56 -293h-246z" />
<glyph unicode="&#xc9;" horiz-adv-x="1267" d="M-104 0l57 252h67q16 0 38 21.5t26 37.5l184 803q4 18 -5 37.5t-27 19.5h-70l61 263h1203l-109 -465h-270l-7 182h-288l-64 -277h322l-68 -286h-321l-72 -314h303l88 218h291l-113 -492h-1226zM707 1491l100 293h410l-27 -115l-225 -178h-258z" />
<glyph unicode="&#xca;" horiz-adv-x="1267" d="M-104 0l57 252h67q16 0 38 21.5t26 37.5l184 803q4 18 -5 37.5t-27 19.5h-70l61 263h1203l-109 -465h-270l-7 182h-288l-64 -277h322l-68 -286h-321l-72 -314h303l88 218h291l-113 -492h-1226zM551 1491l18 82l193 211h291l125 -211l-19 -82h-172l-106 96l-146 -96h-184z " />
<glyph unicode="&#xcb;" horiz-adv-x="1267" d="M-104 0l57 252h67q16 0 38 21.5t26 37.5l184 803q4 18 -5 37.5t-27 19.5h-70l61 263h1203l-109 -465h-270l-7 182h-288l-64 -277h322l-68 -286h-321l-72 -314h303l88 218h291l-113 -492h-1226zM494 1651q0 86 56 136t142 50q82 0 130 -46t48 -118q0 -88 -56 -139 t-140 -51q-82 0 -131 47t-49 121zM920 1651q0 86 55 136t141 50q82 0 131 -46t49 -118q0 -88 -57 -139t-141 -51q-82 0 -130 46t-48 122z" />
<glyph unicode="&#xcc;" horiz-adv-x="770" d="M-104 0l57 252h78q16 0 37.5 21.5t25.5 37.5l185 803q4 18 -5.5 37.5t-27.5 19.5h-80l61 263h731l-59 -263h-78q-18 0 -37.5 -19t-23.5 -38l-187 -803q-4 -18 6.5 -38.5t26.5 -20.5h80l-57 -252h-733zM322 1669l26 115h352l56 -293h-246z" />
<glyph unicode="&#xcd;" horiz-adv-x="770" d="M-104 0l57 252h78q16 0 37.5 21.5t25.5 37.5l185 803q4 18 -5.5 37.5t-27.5 19.5h-80l61 263h731l-59 -263h-78q-18 0 -37.5 -19t-23.5 -38l-187 -803q-4 -18 6.5 -38.5t26.5 -20.5h80l-57 -252h-733zM457 1491l100 293h410l-27 -115l-225 -178h-258z" />
<glyph unicode="&#xce;" horiz-adv-x="770" d="M-104 0l57 252h78q16 0 37.5 21.5t25.5 37.5l185 803q4 18 -5.5 37.5t-27.5 19.5h-80l61 263h731l-59 -263h-78q-18 0 -37.5 -19t-23.5 -38l-187 -803q-4 -18 6.5 -38.5t26.5 -20.5h80l-57 -252h-733zM301 1491l18 82l193 211h291l125 -211l-19 -82h-172l-106 96 l-146 -96h-184z" />
<glyph unicode="&#xcf;" horiz-adv-x="770" d="M-104 0l57 252h78q16 0 37.5 21.5t25.5 37.5l185 803q4 18 -5.5 37.5t-27.5 19.5h-80l61 263h731l-59 -263h-78q-18 0 -37.5 -19t-23.5 -38l-187 -803q-4 -18 6.5 -38.5t26.5 -20.5h80l-57 -252h-733zM244 1651q0 86 56 136t142 50q82 0 130.5 -46t48.5 -118 q0 -88 -56.5 -139t-140.5 -51q-82 0 -131 47t-49 121zM670 1651q0 86 55 136t141 50q82 0 131.5 -46t49.5 -118q0 -88 -57.5 -139t-141.5 -51q-82 0 -130 46t-48 122z" />
<glyph unicode="&#xd0;" horiz-adv-x="1503" d="M-104 0l57 252h59q18 0 43 21.5t29 37.5l63 279h-114l57 250h115l63 274q4 16 -9 36.5t-30 20.5h-63l61 263h615q332 0 512 -153t180 -431q0 -180 -58.5 -334t-172 -269.5t-295 -181t-412.5 -65.5h-700zM553 264h74q195 0 309.5 164t114.5 440q0 139 -63.5 212t-180.5 73 h-51l-72 -313h197l-58 -250h-196z" />
<glyph unicode="&#xd1;" horiz-adv-x="1486" d="M-104 0l57 252h67q16 0 38 21.5t26 37.5l184 803q4 18 -5 37.5t-27 19.5h-70l61 263h578l237 -764h7l116 501h-125l62 263h577l-61 -263h-59q-18 0 -39 -19t-25 -38l-256 -1114h-403l-281 848h-6l-137 -596h131l-58 -252h-589zM621 1491l36 158q72 127 222 127 q47 0 127.5 -18.5t105.5 -18.5q55 0 82 45h182l-37 -158q-78 -129 -223 -129q-47 0 -128 20.5t-105 20.5q-53 0 -80 -47h-182z" />
<glyph unicode="&#xd2;" d="M51 565q0 383 250 636t602 253q291 0 464 -158.5t173 -431.5q0 -393 -240.5 -640t-592.5 -247q-307 0 -481.5 157t-174.5 431zM530 541q0 -262 197 -262q145 0 239.5 179t94.5 410q0 264 -197 265q-147 0 -240.5 -176t-93.5 -416zM668 1683l26 115h353l55 -293h-246z" />
<glyph unicode="&#xd3;" d="M51 565q0 383 250 636t602 253q291 0 464 -158.5t173 -431.5q0 -393 -240.5 -640t-592.5 -247q-307 0 -481.5 157t-174.5 431zM530 541q0 -262 197 -262q145 0 239.5 179t94.5 410q0 264 -197 265q-147 0 -240.5 -176t-93.5 -416zM803 1505l100 293h410l-27 -115 l-225 -178h-258z" />
<glyph unicode="&#xd4;" d="M51 565q0 383 250 636t602 253q291 0 464 -158.5t173 -431.5q0 -393 -240.5 -640t-592.5 -247q-307 0 -481.5 157t-174.5 431zM530 541q0 -262 197 -262q145 0 239.5 179t94.5 410q0 264 -197 265q-147 0 -240.5 -176t-93.5 -416zM647 1505l19 82l192 211h291l125 -211 l-19 -82h-172l-106 97l-146 -97h-184z" />
<glyph unicode="&#xd5;" d="M51 565q0 383 250 636t602 253q291 0 464 -158.5t173 -431.5q0 -393 -240.5 -640t-592.5 -247q-307 0 -481.5 157t-174.5 431zM530 541q0 -262 197 -262q145 0 239.5 179t94.5 410q0 264 -197 265q-147 0 -240.5 -176t-93.5 -416zM608 1505l37 158q72 127 221 127 q47 0 128 -18.5t106 -18.5q55 0 82 45h182l-37 -158q-78 -129 -223 -129q-47 0 -128 20.5t-106 20.5q-53 0 -79 -47h-183z" />
<glyph unicode="&#xd6;" d="M51 565q0 383 250 636t602 253q291 0 464 -158.5t173 -431.5q0 -393 -240.5 -640t-592.5 -247q-307 0 -481.5 157t-174.5 431zM530 541q0 -262 197 -262q145 0 239.5 179t94.5 410q0 264 -197 265q-147 0 -240.5 -176t-93.5 -416zM586 1647q0 86 56 136t142 50 q82 0 130.5 -46t48.5 -118q0 -88 -56.5 -139t-140.5 -51q-82 0 -131 47t-49 121zM1012 1647q0 86 55 136t141 50q82 0 131.5 -46t49.5 -118q0 -88 -57.5 -139t-141.5 -51q-82 0 -130 46t-48 122z" />
<glyph unicode="&#xd7;" horiz-adv-x="1083" d="M25 432l333 279l-221 272l256 215l221 -274l330 274l189 -227l-332 -277l221 -272l-254 -217l-223 274l-330 -274z" />
<glyph unicode="&#xd8;" d="M-23 -59l216 227q-141 152 -142 397q0 383 250 636t602 253q233 0 400 -108l122 131h213l-221 -236q123 -152 123 -377q0 -393 -240.5 -640t-592.5 -247q-236 0 -396 95l-123 -131h-211zM522 518l508 539q-51 88 -164 88q-152 0 -248 -181.5t-96 -426.5v-19zM567 342 q51 -76 158 -76q150 0 247 184.5t97 421.5z" />
<glyph unicode="&#xd9;" horiz-adv-x="1482" d="M133 559l127 555q4 18 -5 37.5t-28 19.5h-61l59 263h729l-61 -263h-139l-156 -671q-51 -219 166 -219q98 0 148.5 49t74.5 162l156 679h-142l62 263h608l-61 -263h-58q-18 0 -38.5 -19t-24.5 -38l-148 -637q-59 -254 -213.5 -373.5t-422.5 -119.5q-356 0 -495.5 151.5 t-76.5 423.5zM713 1669l26 115h353l55 -293h-246z" />
<glyph unicode="&#xda;" horiz-adv-x="1482" d="M133 559l127 555q4 18 -5 37.5t-28 19.5h-61l59 263h729l-61 -263h-139l-156 -671q-51 -219 166 -219q98 0 148.5 49t74.5 162l156 679h-142l62 263h608l-61 -263h-58q-18 0 -38.5 -19t-24.5 -38l-148 -637q-59 -254 -213.5 -373.5t-422.5 -119.5q-356 0 -495.5 151.5 t-76.5 423.5zM848 1491l100 293h410l-27 -115l-225 -178h-258z" />
<glyph unicode="&#xdb;" horiz-adv-x="1482" d="M133 559l127 555q4 18 -5 37.5t-28 19.5h-61l59 263h729l-61 -263h-139l-156 -671q-51 -219 166 -219q98 0 148.5 49t74.5 162l156 679h-142l62 263h608l-61 -263h-58q-18 0 -38.5 -19t-24.5 -38l-148 -637q-59 -254 -213.5 -373.5t-422.5 -119.5q-356 0 -495.5 151.5 t-76.5 423.5zM692 1491l19 82l192 211h291l125 -211l-19 -82h-172l-106 96l-145 -96h-185z" />
<glyph unicode="&#xdc;" horiz-adv-x="1482" d="M133 559l127 555q4 18 -5 37.5t-28 19.5h-61l59 263h729l-61 -263h-139l-156 -671q-51 -219 166 -219q98 0 148.5 49t74.5 162l156 679h-142l62 263h608l-61 -263h-58q-18 0 -38.5 -19t-24.5 -38l-148 -637q-59 -254 -213.5 -373.5t-422.5 -119.5q-356 0 -495.5 151.5 t-76.5 423.5zM635 1651q0 86 56.5 136t142.5 50q82 0 130 -46t48 -118q0 -88 -56.5 -139t-140.5 -51q-82 0 -131 47t-49 121zM1061 1651q0 86 55 136t141 50q82 0 131.5 -46t49.5 -118q0 -88 -57.5 -139t-141.5 -51q-82 0 -130 46t-48 122z" />
<glyph unicode="&#xdd;" horiz-adv-x="1404" d="M166 1171l61 263h672l-61 -263h-125l121 -335h6l155 208q43 59 32 93t-73 34h-26l59 263h608l-61 -263h-23q-41 0 -92 -59l-467 -567l-53 -234q-4 -18 5 -38.5t28 -20.5h78l-58 -252h-731l60 252h73q18 0 40 20.5t26 38.5l57 250l-229 567q-16 43 -49 43h-33zM797 1491 l100 293h410l-27 -115l-225 -178h-258z" />
<glyph unicode="&#xde;" horiz-adv-x="1337" d="M-104 0l57 252h59q18 0 43 21.5t29 37.5l184 803q4 16 -9 36.5t-30 20.5h-63l61 263h719l-61 -263h-123l-19 -73h134q483 0 483 -310q0 -231 -160 -343.5t-450 -112.5h-183l-18 -80h129l-57 -252h-725zM618 555h91q84 0 128 53.5t44 134.5q0 117 -119 117h-72z" />
<glyph unicode="&#xdf;" horiz-adv-x="1400" d="M-209 -332l53 236q53 14 88 53t54 125l217 971q43 190 205.5 296.5t445.5 106.5q250 0 388 -80t138 -215q0 -139 -176 -252q-98 -61 -136 -92t-38 -57q0 -18 16.5 -31.5t73.5 -50.5q18 -12 29 -19q102 -59 149.5 -117.5t47.5 -148.5q0 -174 -124 -291.5t-358 -117.5 q-213 0 -354 73l59 254h211q16 -78 84 -78q35 0 55.5 17.5t20.5 44.5q0 29 -29.5 50.5t-107.5 62.5q-90 51 -131 102t-41 129q0 115 137 256q18 20 57 58t55.5 55.5t32 44t15.5 49.5q0 35 -27 56.5t-76 21.5q-145 0 -182 -174l-211 -928q-70 -303 -342 -410h-299z" />
<glyph unicode="&#xe0;" horiz-adv-x="1161" d="M-29 262q0 188 129 279.5t334 91.5q133 0 207 -25l18 76q27 117 -124 117q-117 0 -209 -80h-199l72 313q211 68 456 68q270 0 386 -99.5t71 -302.5l-92 -397q-4 -16 7 -33.5t26 -17.5h43l-47 -213q-111 -57 -250 -57q-188 0 -230 141q-131 -137 -307 -137 q-131 0 -211 73.5t-80 202.5zM395 309q0 -74 80 -73q43 0 88 32l37 162q-35 12 -78 12q-59 0 -93 -38t-34 -95zM416 1319l26 115h353l55 -293h-246z" />
<glyph unicode="&#xe1;" horiz-adv-x="1161" d="M-29 262q0 188 129 279.5t334 91.5q133 0 207 -25l18 76q27 117 -124 117q-117 0 -209 -80h-199l72 313q211 68 456 68q270 0 386 -99.5t71 -302.5l-92 -397q-4 -16 7 -33.5t26 -17.5h43l-47 -213q-111 -57 -250 -57q-188 0 -230 141q-131 -137 -307 -137 q-131 0 -211 73.5t-80 202.5zM395 309q0 -74 80 -73q43 0 88 32l37 162q-35 12 -78 12q-59 0 -93 -38t-34 -95zM551 1141l100 293h410l-27 -115l-225 -178h-258z" />
<glyph unicode="&#xe2;" horiz-adv-x="1161" d="M-29 262q0 188 129 279.5t334 91.5q133 0 207 -25l18 76q27 117 -124 117q-117 0 -209 -80h-199l72 313q211 68 456 68q270 0 386 -99.5t71 -302.5l-92 -397q-4 -16 7 -33.5t26 -17.5h43l-47 -213q-111 -57 -250 -57q-188 0 -230 141q-131 -137 -307 -137 q-131 0 -211 73.5t-80 202.5zM395 309q0 -74 80 -73q43 0 88 32l37 162q-35 12 -78 12q-59 0 -93 -38t-34 -95zM395 1141l19 82l192 211h291l125 -211l-18 -82h-173l-106 96l-145 -96h-185z" />
<glyph unicode="&#xe3;" horiz-adv-x="1161" d="M-29 262q0 188 129 279.5t334 91.5q133 0 207 -25l18 76q27 117 -124 117q-117 0 -209 -80h-199l72 313q211 68 456 68q270 0 386 -99.5t71 -302.5l-92 -397q-4 -16 7 -33.5t26 -17.5h43l-47 -213q-111 -57 -250 -57q-188 0 -230 141q-131 -137 -307 -137 q-131 0 -211 73.5t-80 202.5zM322 1141l36 157q72 127 222 127q47 0 127.5 -18t105.5 -18q55 0 82 45h182l-37 -158q-78 -129 -223 -129q-47 0 -128 20.5t-105 20.5q-53 0 -80 -47h-182zM395 309q0 -74 80 -73q43 0 88 32l37 162q-35 12 -78 12q-59 0 -93 -38t-34 -95z" />
<glyph unicode="&#xe4;" horiz-adv-x="1161" d="M-29 262q0 188 129 279.5t334 91.5q133 0 207 -25l18 76q27 117 -124 117q-117 0 -209 -80h-199l72 313q211 68 456 68q270 0 386 -99.5t71 -302.5l-92 -397q-4 -16 7 -33.5t26 -17.5h43l-47 -213q-111 -57 -250 -57q-188 0 -230 141q-131 -137 -307 -137 q-131 0 -211 73.5t-80 202.5zM303 1300q0 86 56.5 136.5t142.5 50.5q82 0 130 -46t48 -118q0 -88 -56.5 -139t-140.5 -51q-82 0 -131 46.5t-49 120.5zM395 309q0 -74 80 -73q43 0 88 32l37 162q-35 12 -78 12q-59 0 -93 -38t-34 -95zM729 1300q0 86 55.5 136.5t141.5 50.5 q82 0 131 -46t49 -118q0 -88 -57.5 -139t-141.5 -51q-82 0 -130 45.5t-48 121.5z" />
<glyph unicode="&#xe5;" horiz-adv-x="1161" d="M-29 262q0 188 129 279.5t334 91.5q133 0 207 -25l18 76q27 117 -124 117q-117 0 -209 -80h-199l72 313q211 68 456 68q270 0 386 -99.5t71 -302.5l-92 -397q-4 -16 7 -33.5t26 -17.5h43l-47 -213q-111 -57 -250 -57q-188 0 -230 141q-131 -137 -307 -137 q-131 0 -211 73.5t-80 202.5zM395 309q0 -74 80 -73q43 0 88 32l37 162q-35 12 -78 12q-59 0 -93 -38t-34 -95zM512 1341q0 104 68.5 164t164.5 60q90 0 151.5 -55.5t61.5 -143.5q0 -104 -68.5 -163.5t-162.5 -59.5q-92 0 -153.5 55t-61.5 143zM641 1343q0 -41 23.5 -65.5 t64.5 -24.5q45 0 73.5 29t28.5 80q0 43 -24.5 68.5t-67.5 25.5t-70.5 -30t-27.5 -83z" />
<glyph unicode="&#xe6;" horiz-adv-x="1695" d="M-29 262q0 188 126 282.5t329 94.5q133 0 213 -21l16 66q12 55 -16.5 86t-103.5 31q-113 0 -209 -78h-199l72 311q211 68 456 68q223 0 308 -82q125 82 333 82q203 0 312.5 -90t109.5 -234q0 -209 -173 -287.5t-511 -78.5q2 -166 133 -166q127 0 209 94h228l-66 -279 q-164 -82 -393 -81q-348 0 -471 182q-147 -176 -383 -176q-147 0 -233.5 73.5t-86.5 202.5zM395 309q0 -74 88 -73q61 0 135 63q-12 57 -12 127v8q-35 8 -84 8q-63 0 -95 -38t-32 -95zM1057 621q135 10 197.5 39.5t62.5 97.5q0 90 -80 90q-63 0 -109 -62.5t-71 -164.5z" />
<glyph unicode="&#xe7;" horiz-adv-x="1019" d="M10 408q0 309 189.5 501.5t498.5 192.5q260 0 404 -70l-72 -311h-231q-10 49 -35 73.5t-78 24.5q-102 0 -166.5 -134t-64.5 -288q0 -152 123 -151q96 0 159 94h219l-65 -285q-156 -76 -354 -75q-23 0 -64 4l-6 -35q72 -6 108.5 -41t36.5 -88q0 -84 -68.5 -131t-185.5 -47 q-131 0 -196 34l28 131h99q14 -27 49 -26q45 0 45 35q0 33 -49 32h-43l33 156q-314 80 -314 404z" />
<glyph unicode="&#xe8;" horiz-adv-x="1101" d="M12 410q0 309 191.5 500.5t490.5 191.5q207 0 318.5 -90t111.5 -234q0 -109 -48 -184.5t-143 -116.5t-212 -59.5t-281 -20.5q6 -152 133 -151.5t209 94.5h228l-66 -279q-164 -82 -395 -81q-283 0 -410 116.5t-127 313.5zM387 1319l27 115h352l55 -293h-246zM459 606 q135 12 199.5 47t64.5 103q0 86 -80 86q-68 0 -114.5 -65t-69.5 -171z" />
<glyph unicode="&#xe9;" horiz-adv-x="1101" d="M12 410q0 309 191.5 500.5t490.5 191.5q207 0 318.5 -90t111.5 -234q0 -109 -48 -184.5t-143 -116.5t-212 -59.5t-281 -20.5q6 -152 133 -151.5t209 94.5h228l-66 -279q-164 -82 -395 -81q-283 0 -410 116.5t-127 313.5zM459 606q135 12 199.5 47t64.5 103q0 86 -80 86 q-68 0 -114.5 -65t-69.5 -171zM522 1141l101 293h409l-26 -115l-226 -178h-258z" />
<glyph unicode="&#xea;" horiz-adv-x="1101" d="M12 410q0 309 191.5 500.5t490.5 191.5q207 0 318.5 -90t111.5 -234q0 -109 -48 -184.5t-143 -116.5t-212 -59.5t-281 -20.5q6 -152 133 -151.5t209 94.5h228l-66 -279q-164 -82 -395 -81q-283 0 -410 116.5t-127 313.5zM367 1141l18 82l193 211h290l125 -211l-18 -82 h-172l-107 96l-145 -96h-184zM459 606q135 12 199.5 47t64.5 103q0 86 -80 86q-68 0 -114.5 -65t-69.5 -171z" />
<glyph unicode="&#xeb;" horiz-adv-x="1101" d="M12 410q0 309 191.5 500.5t490.5 191.5q207 0 318.5 -90t111.5 -234q0 -109 -48 -184.5t-143 -116.5t-212 -59.5t-281 -20.5q6 -152 133 -151.5t209 94.5h228l-66 -279q-164 -82 -395 -81q-283 0 -410 116.5t-127 313.5zM309 1300q0 86 56.5 136.5t142.5 50.5 q82 0 130 -46t48 -118q0 -88 -56.5 -139t-140.5 -51q-82 0 -131 46.5t-49 120.5zM459 606q135 12 199.5 47t64.5 103q0 86 -80 86q-68 0 -114.5 -65t-69.5 -171zM735 1300q0 86 55.5 136.5t141.5 50.5q82 0 131 -46t49 -118q0 -88 -57.5 -139t-141.5 -51q-82 0 -130 45.5 t-48 121.5z" />
<glyph unicode="&#xec;" horiz-adv-x="673" d="M51 260l115 502q4 14 -6 32.5t-25 18.5h-65l51 227q156 53 313 54q119 0 173.5 -66.5t27.5 -183.5l-127 -541q-4 -16 7 -33.5t26 -17.5h63l-49 -215q-98 -55 -279 -55q-291 -1 -225 278zM188 1319l27 115h352l56 -293h-246z" />
<glyph unicode="&#xed;" horiz-adv-x="673" d="M51 260l115 502q4 14 -6 32.5t-25 18.5h-65l51 227q156 53 313 54q119 0 173.5 -66.5t27.5 -183.5l-127 -541q-4 -16 7 -33.5t26 -17.5h63l-49 -215q-98 -55 -279 -55q-291 -1 -225 278zM324 1141l100 293h410l-27 -115l-225 -178h-258z" />
<glyph unicode="&#xee;" horiz-adv-x="673" d="M51 260l115 502q4 14 -6 32.5t-25 18.5h-65l51 227q156 53 313 54q119 0 173.5 -66.5t27.5 -183.5l-127 -541q-4 -16 7 -33.5t26 -17.5h63l-49 -215q-98 -55 -279 -55q-291 -1 -225 278zM168 1141l18 82l193 211h291l125 -211l-19 -82h-172l-106 96l-146 -96h-184z" />
<glyph unicode="&#xef;" horiz-adv-x="673" d="M51 260l115 502q4 14 -6 32.5t-25 18.5h-65l51 227q156 53 313 54q119 0 173.5 -66.5t27.5 -183.5l-127 -541q-4 -16 7 -33.5t26 -17.5h63l-49 -215q-98 -55 -279 -55q-291 -1 -225 278zM111 1300q0 86 56 136.5t142 50.5q82 0 130 -46t48 -118q0 -88 -56 -139t-140 -51 q-82 0 -131 46.5t-49 120.5zM537 1300q0 86 55 136.5t141 50.5q82 0 131 -46t49 -118q0 -88 -57 -139t-141 -51q-82 0 -130 45.5t-48 121.5z" />
<glyph unicode="&#xf0;" horiz-adv-x="1216" d="M8 434q0 178 80 311.5t190.5 193.5t229.5 60q162 0 235 -90q-33 115 -108 178l-82 -55h-205l14 64l113 75q-66 16 -102 25l55 238h207q90 -25 149 -52l76 52h205l-14 -64l-111 -76q276 -199 277 -559q0 -354 -183.5 -553.5t-490.5 -199.5q-252 0 -393.5 122.5 t-141.5 329.5zM446 385q0 -145 109 -145q86 0 142.5 126t56.5 267t-111 141q-84 0 -140.5 -125t-56.5 -264z" />
<glyph unicode="&#xf1;" horiz-adv-x="1300" d="M2 57l162 705q4 14 -6.5 32.5t-24.5 18.5h-63l51 227q156 53 309 54q98 0 153.5 -50.5t53.5 -142.5q209 201 412 201q129 0 189 -78t28 -215l-117 -506q-4 -16 7 -33.5t26 -17.5h53l-49 -215q-100 -55 -271 -55q-289 0 -223 278l92 393q12 49 -7 74t-81 25q-37 0 -90 -17 l-170 -735h-397q-18 0 -29.5 18.5t-7.5 38.5zM430 1141l37 157q72 127 221 127q47 0 128 -18t106 -18q55 0 82 45h182l-37 -158q-78 -129 -223 -129q-47 0 -128 20.5t-106 20.5q-53 0 -80 -47h-182z" />
<glyph unicode="&#xf2;" horiz-adv-x="1204" d="M12 459q0 268 179.5 455.5t461.5 187.5q256 0 399.5 -128t143.5 -349q0 -270 -177 -456.5t-464 -186.5q-256 0 -399.5 127t-143.5 350zM412 1319l26 115h353l55 -293h-246zM451 395q0 -147 108 -147q86 0 141.5 132t55.5 286q0 145 -109 145q-86 0 -141 -131t-55 -285z " />
<glyph unicode="&#xf3;" horiz-adv-x="1204" d="M12 459q0 268 179.5 455.5t461.5 187.5q256 0 399.5 -128t143.5 -349q0 -270 -177 -456.5t-464 -186.5q-256 0 -399.5 127t-143.5 350zM451 395q0 -147 108 -147q86 0 141.5 132t55.5 286q0 145 -109 145q-86 0 -141 -131t-55 -285zM547 1141l100 293h410l-27 -115 l-225 -178h-258z" />
<glyph unicode="&#xf4;" horiz-adv-x="1204" d="M12 459q0 268 179.5 455.5t461.5 187.5q256 0 399.5 -128t143.5 -349q0 -270 -177 -456.5t-464 -186.5q-256 0 -399.5 127t-143.5 350zM391 1141l19 82l192 211h291l125 -211l-19 -82h-172l-106 96l-146 -96h-184zM451 395q0 -147 108 -147q86 0 141.5 132t55.5 286 q0 145 -109 145q-86 0 -141 -131t-55 -285z" />
<glyph unicode="&#xf5;" horiz-adv-x="1204" d="M12 459q0 268 179.5 455.5t461.5 187.5q256 0 399.5 -128t143.5 -349q0 -270 -177 -456.5t-464 -186.5q-256 0 -399.5 127t-143.5 350zM352 1141l37 157q72 127 221 127q47 0 128 -18t106 -18q55 0 82 45h182l-37 -158q-78 -129 -223 -129q-47 0 -128 20.5t-106 20.5 q-53 0 -79 -47h-183zM451 395q0 -147 108 -147q86 0 141.5 132t55.5 286q0 145 -109 145q-86 0 -141 -131t-55 -285z" />
<glyph unicode="&#xf6;" horiz-adv-x="1204" d="M12 459q0 268 179.5 455.5t461.5 187.5q256 0 399.5 -128t143.5 -349q0 -270 -177 -456.5t-464 -186.5q-256 0 -399.5 127t-143.5 350zM334 1300q0 86 56 136.5t142 50.5q82 0 130.5 -46t48.5 -118q0 -88 -56.5 -139t-140.5 -51q-82 0 -131 46.5t-49 120.5zM451 395 q0 -147 108 -147q86 0 141.5 132t55.5 286q0 145 -109 145q-86 0 -141 -131t-55 -285zM760 1300q0 86 55 136.5t141 50.5q82 0 131.5 -46t49.5 -118q0 -88 -57.5 -139t-141.5 -51q-82 0 -130 45.5t-48 121.5z" />
<glyph unicode="&#xf7;" horiz-adv-x="1058" d="M25 551l73 313h1016l-72 -313h-1017zM274 297q6 90 72 149.5t154 59.5q86 0 141 -56.5t49 -136.5q-6 -86 -72.5 -145t-152.5 -59t-140.5 56t-50.5 132zM446 1098q6 90 73 149.5t155 59.5q86 0 140 -56.5t48 -136.5q-4 -86 -70.5 -145.5t-152.5 -59.5t-141.5 56.5 t-51.5 132.5z" />
<glyph unicode="&#xf8;" horiz-adv-x="1204" d="M-66 -59l193 194q-115 125 -115 324q0 266 179.5 454.5t461.5 188.5q197 0 336 -84l105 108h186l-188 -194q104 -125 104 -307q0 -268 -178 -455.5t-463 -187.5q-193 0 -324 71l-110 -112h-187zM446 459l297 313q-29 49 -94 49q-84 0 -141.5 -111.5t-61.5 -250.5z M463 287q29 -47 94 -47q84 0 139.5 107.5t63.5 250.5z" />
<glyph unicode="&#xf9;" horiz-adv-x="1292" d="M55 293l107 469q4 14 -6.5 32.5t-24.5 18.5h-61l51 227q162 55 307 56q121 0 174 -73t25 -192l-99 -423q-25 -109 88 -109q41 0 78 12l176 770h400q20 0 30.5 -17t6.5 -40l-168 -721q-4 -16 7 -33.5t25 -17.5h56l-49 -215q-100 -55 -271 -55q-244 0 -237 190 q-190 -190 -385 -190q-137 0 -201 82t-29 229zM471 1319l27 115h352l55 -293h-246z" />
<glyph unicode="&#xfa;" horiz-adv-x="1292" d="M55 293l107 469q4 14 -6.5 32.5t-24.5 18.5h-61l51 227q162 55 307 56q121 0 174 -73t25 -192l-99 -423q-25 -109 88 -109q41 0 78 12l176 770h400q20 0 30.5 -17t6.5 -40l-168 -721q-4 -16 7 -33.5t25 -17.5h56l-49 -215q-100 -55 -271 -55q-244 0 -237 190 q-190 -190 -385 -190q-137 0 -201 82t-29 229zM606 1141l101 293h409l-26 -115l-226 -178h-258z" />
<glyph unicode="&#xfb;" horiz-adv-x="1292" d="M55 293l107 469q4 14 -6.5 32.5t-24.5 18.5h-61l51 227q162 55 307 56q121 0 174 -73t25 -192l-99 -423q-25 -109 88 -109q41 0 78 12l176 770h400q20 0 30.5 -17t6.5 -40l-168 -721q-4 -16 7 -33.5t25 -17.5h56l-49 -215q-100 -55 -271 -55q-244 0 -237 190 q-190 -190 -385 -190q-137 0 -201 82t-29 229zM451 1141l18 82l193 211h290l125 -211l-18 -82h-172l-107 96l-145 -96h-184z" />
<glyph unicode="&#xfc;" horiz-adv-x="1292" d="M55 293l107 469q4 14 -6.5 32.5t-24.5 18.5h-61l51 227q162 55 307 56q121 0 174 -73t25 -192l-99 -423q-25 -109 88 -109q41 0 78 12l176 770h400q20 0 30.5 -17t6.5 -40l-168 -721q-4 -16 7 -33.5t25 -17.5h56l-49 -215q-100 -55 -271 -55q-244 0 -237 190 q-190 -190 -385 -190q-137 0 -201 82t-29 229zM393 1300q0 86 56.5 136.5t142.5 50.5q82 0 130 -46t48 -118q0 -88 -56.5 -139t-140.5 -51q-82 0 -131 46.5t-49 120.5zM819 1300q0 86 55.5 136.5t141.5 50.5q82 0 131 -46t49 -118q0 -88 -57.5 -139t-141.5 -51 q-82 0 -130 45.5t-48 121.5z" />
<glyph unicode="&#xfd;" horiz-adv-x="1267" d="M-53 -287l65 281h256q35 -76 154 -76q182 0 221 178l25 109q-170 -143 -367 -144q-135 0 -199.5 80t-33.5 211l94 410q4 14 -6.5 32.5t-24.5 18.5h-61l51 227q162 55 307 56q121 0 174 -73t25 -192l-90 -391q-25 -109 88 -108q39 0 75 12l170 737h400q20 0 30.5 -17 t6.5 -40l-224 -965q-47 -203 -208.5 -307t-466.5 -104q-311 -1 -461 65zM621 1141l100 293h409l-26 -115l-225 -178h-258z" />
<glyph unicode="&#xfe;" horiz-adv-x="1220" d="M-244 -332l56 236h51q16 0 37.5 17.5t23.5 31.5l269 1167q4 14 -7.5 32.5t-23.5 18.5h-60l62 263h477q31 0 45 -25t6 -66l-92 -397q145 156 318 156q131 0 216 -92t85 -265q0 -362 -189 -563q-143 -156 -362 -155q-168 0 -262 77l-46 -200h95l-56 -236h-643zM449 289 q41 -18 88 -19q104 0 167.5 105.5t63.5 259.5q0 143 -147 143q-25 0 -62 -10z" />
<glyph unicode="&#xff;" horiz-adv-x="1267" d="M-53 -287l65 281h256q35 -76 154 -76q182 0 221 178l25 109q-170 -143 -367 -144q-135 0 -199.5 80t-33.5 211l94 410q4 14 -6.5 32.5t-24.5 18.5h-61l51 227q162 55 307 56q121 0 174 -73t25 -192l-90 -391q-25 -109 88 -108q39 0 75 12l170 737h400q20 0 30.5 -17 t6.5 -40l-224 -965q-47 -203 -208.5 -307t-466.5 -104q-311 -1 -461 65zM408 1300q0 86 56 136.5t142 50.5q82 0 130 -46t48 -118q0 -88 -56 -139t-140 -51q-82 0 -131 46.5t-49 120.5zM834 1300q0 86 55 136.5t141 50.5q82 0 131 -46t49 -118q0 -88 -57 -139t-141 -51 q-82 0 -130 45.5t-48 121.5z" />
<glyph unicode="&#x152;" horiz-adv-x="2021" d="M63 707q172 727 971 727h1155l-108 -465h-277l2 182h-307l-63 -274h327l-67 -291h-328l-72 -312h314l88 218h291l-113 -492h-1188q-406 0 -557.5 173.5t-67.5 533.5zM557 723q-106 -451 209 -451h51l203 885h-51q-158 0 -258.5 -104.5t-153.5 -329.5z" />
<glyph unicode="&#x153;" horiz-adv-x="1824" d="M12 457q0 270 178.5 457.5t460.5 187.5q233 0 359 -141q160 141 407 141q207 0 318.5 -90t111.5 -234q0 -109 -48 -184.5t-143 -116.5t-212 -59.5t-281 -20.5q6 -152 133 -151.5t209 94.5h228l-66 -279q-164 -82 -393 -81q-262 0 -381 124q-150 -123 -340 -122 q-256 0 -398.5 126t-142.5 349zM451 395q0 -147 106 -147q88 0 141.5 130t53.5 288q0 145 -107 145q-88 0 -141 -131t-53 -285zM1182 606q135 12 199.5 47t64.5 103q0 86 -80 86q-68 0 -114.5 -65t-69.5 -171z" />
<glyph unicode="&#x178;" horiz-adv-x="1404" d="M166 1171l61 263h672l-61 -263h-125l121 -335h6l155 208q43 59 32 93t-73 34h-26l59 263h608l-61 -263h-23q-41 0 -92 -59l-467 -567l-53 -234q-4 -18 5 -38.5t28 -20.5h78l-58 -252h-731l60 252h73q18 0 40 20.5t26 38.5l57 250l-229 567q-16 43 -49 43h-33zM584 1651 q0 86 56 136t142 50q82 0 130.5 -46t48.5 -118q0 -88 -56.5 -139t-140.5 -51q-82 0 -131 47t-49 121zM1010 1651q0 86 55 136t141 50q82 0 131 -46t49 -118q0 -88 -57 -139t-141 -51q-82 0 -130 46t-48 122z" />
<glyph unicode="&#x2c6;" horiz-adv-x="819" d="M246 1141l18 82l193 211h291l124 -211l-18 -82h-172l-107 96l-145 -96h-184z" />
<glyph unicode="&#x2dc;" horiz-adv-x="819" d="M207 1141l37 157q72 127 221 127q47 0 128 -18t105 -18q55 0 82 45h183l-37 -158q-78 -129 -224 -129q-47 0 -127.5 20.5t-105.5 20.5q-53 0 -80 -47h-182z" />
<glyph unicode="&#x2000;" horiz-adv-x="956" />
<glyph unicode="&#x2001;" horiz-adv-x="1914" />
<glyph unicode="&#x2002;" horiz-adv-x="956" />
<glyph unicode="&#x2003;" horiz-adv-x="1914" />
<glyph unicode="&#x2004;" horiz-adv-x="636" />
<glyph unicode="&#x2005;" horiz-adv-x="477" />
<glyph unicode="&#x2006;" horiz-adv-x="317" />
<glyph unicode="&#x2007;" horiz-adv-x="317" />
<glyph unicode="&#x2008;" horiz-adv-x="237" />
<glyph unicode="&#x2009;" horiz-adv-x="382" />
<glyph unicode="&#x200a;" horiz-adv-x="104" />
<glyph unicode="&#x2010;" horiz-adv-x="595" d="M14 449l74 315h526l-73 -315h-527z" />
<glyph unicode="&#x2011;" horiz-adv-x="595" d="M14 449l74 315h526l-73 -315h-527z" />
<glyph unicode="&#x2012;" horiz-adv-x="595" d="M14 449l74 315h526l-73 -315h-527z" />
<glyph unicode="&#x2013;" horiz-adv-x="847" d="M12 434l68 297h780l-69 -297h-779z" />
<glyph unicode="&#x2014;" horiz-adv-x="1406" d="M12 434l68 297h1339l-69 -297h-1338z" />
<glyph unicode="&#x2018;" horiz-adv-x="434" d="M139 1038q0 184 131 286.5t357 113.5l-35 -150q-145 -23 -146 -88q0 -12 4.5 -19t19.5 -19.5t24 -20.5q41 -41 41 -99q0 -86 -58.5 -141t-146.5 -55q-82 0 -136.5 51t-54.5 141z" />
<glyph unicode="&#x2019;" horiz-adv-x="434" d="M94 862l35 150q145 23 145 88q0 12 -4 19t-19 19.5t-24 20.5q-41 41 -41 98q0 86 57.5 141.5t145.5 55.5q82 0 137.5 -51t55.5 -141q0 -184 -131.5 -287t-356.5 -113z" />
<glyph unicode="&#x201a;" horiz-adv-x="436" d="M-158 -231l35 151q145 18 146 88q0 12 -4.5 19.5t-19.5 19.5t-24 21q-43 39 -43 96q0 86 58.5 141t146.5 55q82 0 136.5 -50t54.5 -140q0 -184 -130.5 -287.5t-355.5 -113.5z" />
<glyph unicode="&#x201c;" horiz-adv-x="866" d="M139 1038q0 184 131 286.5t357 113.5l-35 -150q-145 -23 -146 -88q0 -12 4.5 -19t19.5 -19.5t24 -20.5q41 -41 41 -99q0 -86 -58.5 -141t-146.5 -55q-82 0 -136.5 51t-54.5 141zM571 1038q0 184 131.5 286.5t356.5 113.5l-35 -150q-145 -23 -145 -88q0 -12 4 -19 t19.5 -19.5t23.5 -20.5q43 -39 43 -99q0 -86 -58.5 -141t-146.5 -55q-82 0 -137.5 51t-55.5 141z" />
<glyph unicode="&#x201d;" horiz-adv-x="866" d="M94 862l35 150q145 23 145 88q0 12 -4 19t-19 19.5t-24 20.5q-41 41 -41 98q0 86 57.5 141.5t145.5 55.5q82 0 137.5 -51t55.5 -141q0 -184 -131.5 -287t-356.5 -113zM526 862l35 150q145 23 146 88q0 12 -4.5 19t-19.5 19.5t-24 20.5q-41 41 -41 98q0 86 58.5 141.5 t146.5 55.5q82 0 136.5 -51t54.5 -141q0 -184 -131.5 -287t-356.5 -113z" />
<glyph unicode="&#x201e;" horiz-adv-x="868" d="M-158 -231l35 151q145 18 146 88q0 12 -4.5 19.5t-19.5 19.5t-24 21q-43 39 -43 96q0 86 58.5 141t146.5 55q82 0 136.5 -50t54.5 -140q0 -184 -130.5 -287.5t-355.5 -113.5zM274 -231l35 151q145 18 146 88q0 12 -4.5 19.5t-19.5 19.5t-23 21q-41 41 -41 96q0 86 57 141 t145 55q84 0 138.5 -50t54.5 -140q0 -182 -131.5 -286.5t-356.5 -114.5z" />
<glyph unicode="&#x2022;" horiz-adv-x="708" d="M31 545q0 162 103.5 257t250.5 95q135 0 222 -81t87 -212q0 -166 -101 -260t-249 -94q-135 0 -224 82t-89 213z" />
<glyph unicode="&#x2026;" horiz-adv-x="1355" d="M-61 172q0 90 64.5 150.5t150.5 60.5q88 0 145 -56.5t57 -133.5q0 -88 -64.5 -147.5t-152.5 -59.5q-86 0 -143 55t-57 131zM389 172q0 90 63.5 150.5t151.5 60.5q86 0 143.5 -56.5t57.5 -133.5q0 -88 -63.5 -147.5t-151.5 -59.5q-86 0 -143.5 55t-57.5 131zM838 172 q0 90 64.5 150.5t152.5 60.5q86 0 143 -56.5t57 -133.5q0 -88 -64.5 -147.5t-150.5 -59.5t-144 55t-58 131z" />
<glyph unicode="&#x202f;" horiz-adv-x="382" />
<glyph unicode="&#x2039;" horiz-adv-x="598" d="M23 475l36 158l359 350h250l-25 -104l-264 -349v-6l104 -334l-24 -108h-213z" />
<glyph unicode="&#x203a;" horiz-adv-x="598" d="M-70 82l25 104l264 349v6l-104 333l24 109h213l223 -393l-36 -158l-359 -350h-250z" />
<glyph unicode="&#x205f;" horiz-adv-x="477" />
<glyph unicode="&#x20ac;" horiz-adv-x="1277" d="M10 481l41 178h96q2 16 7.5 48t5.5 36h-90l43 181h98q45 127 127 233q236 299 635 299q274 0 461 -90l-84 -352h-244q-27 129 -143 129q-156 0 -248 -219h307l-72 -181h-295q-2 -12 -7 -40.5t-9 -43.5h279l-70 -178h-225v-4q0 -96 37.5 -141t119.5 -45q121 0 211 110h230 l-76 -333q-190 -90 -402 -91q-297 0 -451.5 138.5t-154.5 365.5h-127z" />
<glyph unicode="&#x2122;" horiz-adv-x="1472" d="M178 1208l51 226h580l-53 -226h-123l8 97h-39l-70 -301q-2 -6 2.5 -14.5t12.5 -8.5h31l-27 -121h-328l27 121h29q18 0 24 23l70 301h-39l-37 -97h-119zM702 860l29 121h25q18 0 24 23l66 282q6 23 -12 23h-29l31 125h333l11 -242h2l118 242h363l-31 -125h-26 q-6 0 -14.5 -8.5t-10.5 -14.5l-65 -282q-2 -6 2 -14.5t10 -8.5h28l-26 -121h-316l29 121h45l64 281h-2l-203 -402h-127l-21 402h-2l-63 -281h47l-29 -121h-250z" />
<glyph unicode="&#xe000;" horiz-adv-x="1095" d="M0 1095h1095v-1095h-1095v1095z" />
<glyph unicode="&#xfb01;" horiz-adv-x="1306" d="M-176 -332l53 236q53 14 88 53t53 125l160 731h-108l59 268h109l10 47q39 176 149.5 255t290.5 79q133 0 213 -30l-55 -234h-37q-51 0 -79 -18.5t-40 -67.5l-8 -31h381q121 0 175 -61.5t28 -175.5l-125 -541q-4 -16 7 -33.5t26 -17.5h61l-49 -215q-98 -55 -279 -55 q-289 0 -225 278l127 553h-184l-162 -735q-37 -162 -130 -265.5t-214 -144.5h-295zM920 1307q0 92 63.5 146t155.5 54q88 0 140 -48t52 -124q0 -94 -63.5 -148t-155.5 -54q-88 0 -140 49t-52 125z" />
<glyph unicode="&#xfb02;" horiz-adv-x="1306" d="M-176 -332l53 236q53 14 88 53t53 125l160 731h-108l59 268h109l10 47q39 178 154.5 256t314.5 78q102 0 225 -28h389q31 0 44.5 -25t4.5 -66l-239 -1040q-4 -16 7 -33.5t26 -17.5h65l-49 -215q-100 -55 -281 -55q-291 0 -225 278l215 938h-78q-63 0 -91 -17.5t-40 -68.5 l-8 -31h129l-61 -268h-125l-162 -735q-37 -162 -130 -265.5t-214 -144.5h-295z" />
<glyph unicode="&#xfb03;" horiz-adv-x="1937" d="M-176 -332l53 236q53 14 88 53t53 125l158 731h-106l59 268h107l6 31q41 176 149.5 254t288.5 78q129 0 211 -29l-53 -225h-25q-57 0 -85 -17.5t-40 -68.5l-6 -23h186l11 47q39 176 149.5 255t290.5 79q133 0 213 -30l-55 -234h-37q-51 0 -79 -18.5t-40 -67.5l-8 -31h381 q121 0 175 -61.5t27 -175.5l-124 -541q-4 -16 7 -33.5t25 -17.5h62l-49 -215q-98 -55 -279 -55q-289 0 -225 278l127 553h-185l-161 -735q-37 -162 -130.5 -265.5t-213.5 -144.5h-285l53 236q49 14 80 53t51 125l160 731h-184l-162 -735q-37 -162 -130 -265.5t-214 -144.5 h-295zM1550 1307q0 92 63.5 146t155.5 54q88 0 140.5 -48t52.5 -124q0 -94 -63.5 -148t-155.5 -54q-88 0 -140.5 49t-52.5 125z" />
<glyph unicode="&#xfb04;" horiz-adv-x="1937" d="M-176 -332l53 236q53 14 88 53t53 125l158 731h-106l59 268h107l6 31q41 176 149.5 254t288.5 78q129 0 211 -29l-53 -225h-25q-57 0 -85 -17.5t-40 -68.5l-6 -23h186l11 47q39 178 154.5 256t314.5 78q102 0 225 -28h389q31 0 44 -25t5 -66l-239 -1040q-4 -16 7 -33.5 t25 -17.5h66l-49 -215q-100 -55 -281 -55q-291 0 -225 278l215 938h-78q-63 0 -91 -17.5t-40 -68.5l-8 -31h127l-60 -268h-125l-161 -735q-37 -162 -130.5 -265.5t-213.5 -144.5h-285l53 236q49 14 80 53t51 125l160 731h-184l-162 -735q-37 -162 -130 -265.5t-214 -144.5 h-295z" />
</font>
</defs>
</svg>
