<?xml version="1.0" encoding="utf-8"?>
<!-- Generator: Adobe Illustrator 16.0.0, SVG Export Plug-In . SVG Version: 6.00 Build 0)  -->
<!DOCTYPE svg PUBLIC "-//W3C//DTD SVG 1.1//EN" "http://www.w3.org/Graphics/SVG/1.1/DTD/svg11.dtd">
<svg version="1.1" id="Layer_1" xmlns="http://www.w3.org/2000/svg" xmlns:xlink="http://www.w3.org/1999/xlink" x="0px" y="0px"
	 width="407px" height="266px" viewBox="0 0 407 266" enable-background="new 0 0 407 266" xml:space="preserve">
<g>
	<rect x="98.427" y="228.455" fill="#FFFFFF" width="33.912" height="29.086"/>
	<rect x="146.516" y="228.455" fill="#FFFFFF" width="31" height="31"/>
	<rect x="190.557" y="228.455" fill="#FFFFFF" width="31" height="31"/>
	<rect x="239.072" y="227.121" fill="#FFFFFF" width="30.421" height="30.42"/>
	<rect x="286.333" y="228.455" fill="#FFFFFF" width="31" height="31"/>
	<rect x="331.333" y="228.455" fill="#FFFFFF" width="30.843" height="31"/>
	<rect x="109" y="4.336" fill="#FFFFFF" width="22" height="20.561"/>
	<rect x="144.333" y="4.336" fill="#FFFFFF" width="22.409" height="20.561"/>
	<rect x="176.892" y="4.336" fill="#FFFFFF" width="22.302" height="22.452"/>
	<rect x="207.873" y="4.336" fill="#FFFFFF" width="24.906" height="22.452"/>
	<rect x="246.333" y="4.336" fill="#FFFFFF" width="18.334" height="22.452"/>
	<rect x="279.017" y="4.336" fill="#FFFFFF" width="20.279" height="20.561"/>
	<rect x="312.333" y="4.336" fill="#FFFFFF" width="22" height="23.785"/>
	<rect x="343.333" y="4.336" fill="#FFFFFF" width="23.372" height="22.452"/>
</g>
<polygon fill="#1B1C1C" points="60.095,62.518 57.084,62.518 57.084,63.033 57.084,63.601 57.084,64.58 58.069,64.58 58.069,63.601 
	60.095,63.601 "/>
<polygon fill="#787878" points="29.042,62.518 26.031,62.518 26.031,63.033 26.031,63.601 26.031,64.58 27.016,64.58 27.016,63.601 
	29.042,63.601 "/>
<g>
	<rect x="214.008" y="33.575" fill="#404041" width="51.969" height="36.026"/>
	<rect x="47.122" y="213.541" fill="#363737" width="44" height="44"/>
	<path fill="#404041" d="M232.779,222.385v42h42v-42H232.779z M262.129,239.105c0.012,0.18,0.016,0.371,0.016,0.553
		c0,5.695-4.337,12.26-12.26,12.26c-2.436,0-4.697-0.711-6.605-1.934c0.337,0.039,0.68,0.055,1.027,0.055
		c2.023,0,3.877-0.682,5.352-1.844c-1.885-0.027-3.479-1.279-4.023-2.994c0.264,0.059,0.533,0.08,0.809,0.08
		c0.393,0,0.775-0.051,1.137-0.146c-1.969-0.398-3.457-2.135-3.457-4.225c0-0.023,0-0.037,0-0.061
		c0.58,0.324,1.246,0.521,1.951,0.537c-1.154-0.764-1.914-2.09-1.914-3.58c0-0.787,0.211-1.527,0.58-2.168
		c2.127,2.611,5.303,4.328,8.881,4.504c-0.07-0.318-0.109-0.648-0.109-0.982c0-2.381,1.928-4.309,4.309-4.309
		c1.236,0,2.357,0.525,3.143,1.359c0.98-0.197,1.904-0.547,2.738-1.041c-0.324,1-1.004,1.85-1.896,2.383
		c0.873-0.109,1.701-0.334,2.475-0.684C263.703,237.732,262.971,238.496,262.129,239.105z"/>
	<path fill="#404041" d="M324.705,222.385v42h42v-42H324.705z M338.035,253.863c-1.539,0-2.787-1.25-2.787-2.789
		c0-1.541,1.248-2.789,2.787-2.789s2.789,1.248,2.789,2.789C340.824,252.613,339.574,253.863,338.035,253.863z M345.029,253.881
		c0-2.637-1.021-5.104-2.869-6.963c-1.844-1.854-4.295-2.875-6.91-2.875v-4.023c7.609,0,13.803,6.217,13.803,13.861H345.029z
		 M352.141,253.885c0-9.359-7.576-16.977-16.881-16.977v-4.023c11.527,0,20.904,9.416,20.904,21H352.141z"/>
	<g>
		<polygon fill="#404041" points="291.976,245.43 293.294,245.43 293.294,251.996 294.575,251.996 294.575,245.43 295.896,245.43 
			295.896,244.314 291.976,244.314 		"/>
		<path fill="#404041" d="M299.817,239.975c0.176,0,0.309-0.045,0.41-0.148c0.104-0.092,0.158-0.223,0.158-0.389v-3.402
			c0-0.145-0.055-0.246-0.158-0.33s-0.236-0.125-0.41-0.125c-0.152,0-0.277,0.041-0.377,0.125c-0.098,0.084-0.145,0.186-0.145,0.33
			v3.402c0,0.17,0.045,0.299,0.133,0.389C299.522,239.932,299.649,239.975,299.817,239.975z"/>
		<path fill="#404041" d="M302.638,246.256c-0.18,0-0.35,0.043-0.527,0.131c-0.168,0.088-0.33,0.23-0.48,0.398v-2.471h-1.146v7.682
			h1.146v-0.439c0.146,0.184,0.311,0.309,0.48,0.391c0.176,0.084,0.369,0.123,0.594,0.123c0.332,0,0.594-0.109,0.771-0.322
			c0.176-0.213,0.268-0.525,0.268-0.928v-3.139c0-0.473-0.096-0.818-0.285-1.062C303.271,246.377,302.993,246.256,302.638,246.256z
			 M302.575,250.672c0,0.178-0.035,0.305-0.1,0.385c-0.064,0.082-0.166,0.123-0.307,0.123c-0.098,0-0.186-0.016-0.271-0.057
			c-0.092-0.039-0.18-0.113-0.268-0.201v-3.531c0.072-0.08,0.15-0.145,0.23-0.184c0.08-0.037,0.162-0.051,0.242-0.051
			c0.15,0,0.27,0.047,0.352,0.152c0.082,0.094,0.121,0.232,0.121,0.43V250.672z"/>
		<path fill="#404041" d="M298.497,250.635c-0.105,0.123-0.225,0.219-0.352,0.301c-0.125,0.08-0.236,0.119-0.318,0.119
			c-0.105,0-0.184-0.031-0.23-0.088c-0.045-0.066-0.068-0.158-0.068-0.289v-4.35h-1.137v4.734c0,0.348,0.07,0.596,0.199,0.764
			c0.131,0.17,0.33,0.252,0.594,0.252c0.211,0,0.432-0.053,0.658-0.176c0.227-0.121,0.445-0.305,0.654-0.527v0.621h1.131v-5.668
			h-1.131V250.635z"/>
		<path fill="#404041" d="M279.017,222.385v42h42v-42H279.017z M302.546,235.193h1.199v4.494c0,0.135,0.025,0.242,0.072,0.297
			c0.053,0.068,0.137,0.09,0.244,0.09c0.092,0,0.201-0.041,0.34-0.123c0.131-0.082,0.254-0.18,0.367-0.307v-4.451h1.195v5.857
			h-1.195v-0.65c-0.22,0.24-0.449,0.43-0.689,0.555c-0.234,0.123-0.471,0.182-0.695,0.182c-0.273,0-0.48-0.088-0.623-0.262
			c-0.141-0.168-0.215-0.438-0.215-0.779V235.193z M298.108,236.535c0-0.453,0.164-0.816,0.486-1.078
			c0.316-0.273,0.75-0.404,1.297-0.404c0.494,0,0.9,0.137,1.215,0.42c0.318,0.283,0.473,0.652,0.473,1.098v3.029
			c0,0.498-0.15,0.883-0.461,1.17c-0.309,0.285-0.738,0.434-1.285,0.434c-0.52,0-0.941-0.152-1.254-0.445
			c-0.311-0.293-0.471-0.691-0.471-1.188V236.535z M294.851,233.119l0.877,3.17h0.084l0.828-3.17h1.371l-1.566,4.643v3.289h-1.348
			v-3.148l-1.602-4.783H294.851z M310.517,249.82c0,2.123-1.719,3.83-3.835,3.83h-13.331c-2.115,0-3.834-1.707-3.834-3.83v-3.08
			c0-2.123,1.719-3.844,3.834-3.844h13.331c2.116,0,3.835,1.721,3.835,3.844V249.82z"/>
		<path fill="#404041" d="M306.06,246.182c-0.51,0-0.92,0.156-1.244,0.471c-0.322,0.303-0.479,0.709-0.479,1.199v2.545
			c0,0.543,0.146,0.979,0.436,1.281c0.291,0.318,0.693,0.475,1.197,0.475c0.566,0,0.994-0.15,1.271-0.441
			c0.287-0.293,0.428-0.734,0.428-1.314v-0.289h-1.166v0.254c0,0.332-0.041,0.557-0.109,0.65c-0.078,0.094-0.207,0.152-0.395,0.152
			c-0.182,0-0.309-0.064-0.385-0.182c-0.076-0.119-0.115-0.326-0.115-0.621v-1.066h2.17v-1.443c0-0.537-0.141-0.947-0.416-1.234
			C306.974,246.33,306.577,246.182,306.06,246.182z M306.503,248.418h-1.004v-0.572c0-0.24,0.039-0.41,0.119-0.516
			c0.08-0.1,0.207-0.16,0.389-0.16c0.176,0,0.303,0.061,0.381,0.16c0.074,0.105,0.115,0.275,0.115,0.516V248.418z"/>
	</g>
	<path fill="#404041" d="M239.072,0.511V30.51h30V0.511H239.072z M257.542,15.515h-2.358c0,3.359,0,7.495,0,7.495h-3.113
		c0,0,0-4.095,0-7.495h-1.482v-2.646h1.482v-1.714c0-1.226,0.582-3.145,3.143-3.145l2.308,0.009v2.57c0,0-1.402,0-1.677,0
		c-0.271,0-0.66,0.136-0.66,0.722v1.557h2.375L257.542,15.515z"/>
	<path fill="#404041" d="M273.256,0.511v30h30v-30H273.256z M294.221,12.452c0.006,0.132,0.008,0.265,0.008,0.398
		c0,4.066-3.094,8.756-8.756,8.756c-1.738,0-3.355-0.51-4.717-1.383c0.242,0.027,0.486,0.042,0.734,0.042
		c1.441,0,2.768-0.491,3.82-1.316c-1.346-0.025-2.482-0.915-2.873-2.138c0.188,0.036,0.379,0.056,0.578,0.056
		c0.281,0,0.553-0.038,0.811-0.108c-1.406-0.283-2.469-1.527-2.469-3.018c0-0.013,0-0.025,0-0.04
		c0.416,0.231,0.891,0.37,1.395,0.385c-0.826-0.551-1.369-1.494-1.369-2.561c0-0.564,0.152-1.092,0.418-1.547
		c1.516,1.862,3.785,3.087,6.342,3.215c-0.053-0.225-0.08-0.459-0.08-0.701c0-1.7,1.379-3.077,3.078-3.077
		c0.885,0,1.686,0.374,2.246,0.972c0.701-0.138,1.359-0.394,1.955-0.747c-0.23,0.719-0.719,1.321-1.354,1.702
		c0.623-0.074,1.217-0.239,1.768-0.484C295.344,11.476,294.822,12.018,294.221,12.452z"/>
	<path fill="#404041" d="M340.155,0.511v30h30v-30H340.155z M349.677,22.994c-1.1,0-1.99-0.892-1.99-1.992s0.891-1.991,1.99-1.991
		s1.992,0.891,1.992,1.991S350.776,22.994,349.677,22.994z M354.673,23.007c0-1.879-0.729-3.645-2.049-4.97
		c-1.316-1.326-3.07-2.055-4.936-2.055v-2.875c5.436,0,9.859,4.441,9.859,9.899H354.673z M359.751,23.011
		c0-6.687-5.408-12.125-12.059-12.125V8.011c8.234,0,14.934,6.729,14.934,15H359.751z"/>
	<g>
		<polygon fill="#404041" points="316.319,17.094 317.263,17.094 317.263,21.785 318.175,21.785 318.175,17.094 319.12,17.094 
			319.12,16.296 316.319,16.296 		"/>
		<path fill="#404041" d="M321.923,13.198c0.123,0,0.221-0.034,0.293-0.103c0.074-0.068,0.111-0.163,0.111-0.282v-2.43
			c0-0.098-0.037-0.176-0.111-0.237c-0.074-0.06-0.172-0.089-0.293-0.089c-0.111,0-0.201,0.029-0.271,0.089
			c-0.068,0.062-0.104,0.14-0.104,0.237v2.43c0,0.123,0.033,0.217,0.098,0.283C321.71,13.166,321.802,13.198,321.923,13.198z"/>
		<path fill="#404041" d="M323.935,17.687c-0.127,0-0.25,0.031-0.375,0.096c-0.121,0.064-0.236,0.159-0.346,0.281v-1.768h-0.818
			v5.489h0.818v-0.311c0.105,0.125,0.223,0.216,0.346,0.274c0.123,0.06,0.264,0.088,0.424,0.088c0.238,0,0.424-0.075,0.549-0.229
			c0.129-0.154,0.191-0.374,0.191-0.659v-2.248c0-0.331-0.066-0.584-0.203-0.757C324.386,17.771,324.19,17.687,323.935,17.687z
			 M323.89,20.837c0,0.13-0.023,0.222-0.07,0.279s-0.119,0.087-0.219,0.087c-0.068,0-0.133-0.016-0.195-0.044
			s-0.127-0.079-0.191-0.144v-2.523c0.055-0.056,0.109-0.098,0.166-0.124s0.115-0.039,0.172-0.039c0.109,0,0.193,0.035,0.252,0.105
			s0.086,0.174,0.086,0.312V20.837z"/>
		<path fill="#404041" d="M320.978,20.812c-0.076,0.088-0.16,0.16-0.252,0.218c-0.09,0.057-0.166,0.084-0.225,0.084
			c-0.076,0-0.131-0.02-0.166-0.064c-0.033-0.042-0.051-0.111-0.051-0.207v-3.106h-0.809v3.386c0,0.242,0.047,0.421,0.141,0.542
			c0.096,0.122,0.236,0.182,0.424,0.182c0.152,0,0.309-0.042,0.471-0.13c0.162-0.085,0.316-0.21,0.467-0.374v0.444h0.809v-4.05
			h-0.809V20.812z"/>
		<path fill="#404041" d="M307.063,0.636v30h30v-30H307.063z M323.872,9.787h0.854v3.206c0,0.1,0.02,0.171,0.055,0.215
			c0.035,0.045,0.096,0.066,0.174,0.066c0.062,0,0.143-0.029,0.24-0.088c0.096-0.06,0.184-0.134,0.262-0.224V9.787h0.855v4.183
			h-0.855v-0.464c-0.155,0.171-0.32,0.302-0.49,0.391c-0.17,0.088-0.336,0.135-0.496,0.135c-0.197,0-0.346-0.064-0.447-0.19
			c-0.1-0.123-0.15-0.309-0.15-0.558V9.787z M320.7,10.743c0-0.325,0.117-0.582,0.346-0.773c0.229-0.192,0.539-0.288,0.928-0.288
			c0.354,0,0.643,0.102,0.869,0.304c0.225,0.201,0.338,0.464,0.338,0.781v2.161c0,0.357-0.109,0.637-0.332,0.842
			c-0.221,0.204-0.527,0.306-0.916,0.306c-0.373,0-0.672-0.105-0.896-0.316c-0.223-0.21-0.336-0.492-0.336-0.848V10.743z
			 M318.374,8.3l0.625,2.267h0.061l0.594-2.267h0.979l-1.121,3.317v2.353h-0.961v-2.247L317.405,8.3H318.374z M329.563,20.231
			c0,1.513-1.227,2.74-2.739,2.74h-9.522c-1.512,0-2.738-1.228-2.738-2.74v-2.202c0-1.514,1.227-2.741,2.738-2.741h9.522
			c1.513,0,2.739,1.228,2.739,2.741V20.231z"/>
		<path fill="#404041" d="M326.378,17.635c-0.363,0-0.656,0.11-0.887,0.331c-0.229,0.221-0.344,0.509-0.344,0.858v1.819
			c0,0.391,0.105,0.697,0.312,0.918c0.209,0.224,0.494,0.334,0.857,0.334c0.402,0,0.707-0.104,0.908-0.312
			c0.205-0.211,0.305-0.524,0.305-0.939v-0.208h-0.832v0.185c0,0.238-0.029,0.392-0.08,0.462c-0.055,0.07-0.148,0.105-0.283,0.105
			c-0.129,0-0.221-0.041-0.273-0.123c-0.053-0.083-0.08-0.231-0.08-0.444v-0.763h1.549v-1.033c0-0.384-0.1-0.678-0.299-0.883
			C327.034,17.737,326.749,17.635,326.378,17.635z M326.698,19.228h-0.717v-0.409c0-0.17,0.027-0.292,0.084-0.363
			c0.057-0.075,0.148-0.112,0.277-0.112c0.123,0,0.215,0.037,0.27,0.112c0.057,0.071,0.086,0.193,0.086,0.363V19.228z"/>
	</g>
	<rect x="31.053" y="34.617" fill="#363737" width="29.042" height="27.979"/>
	<polygon fill="#363737" points="132.339,47.495 118.979,34.135 115.266,37.847 124.923,47.504 115.266,57.162 118.979,60.874 
		132.339,47.514 132.33,47.504 	"/>
	<polygon fill="#363737" points="303.59,34.617 292.447,45.76 295.544,48.855 303.598,40.801 311.652,48.855 314.748,45.76 
		303.605,34.617 303.598,34.624 	"/>
	<polygon fill="#363737" points="98.193,47.495 111.554,34.135 115.266,37.847 105.609,47.504 115.266,57.162 111.554,60.874 
		98.193,47.514 98.203,47.504 	"/>
	<polygon fill="#363737" points="133,64.601 133,85.581 142.062,85.581 142.062,90.726 147.125,85.581 160.031,85.581 
		160.031,64.601 	"/>
</g>
<g>
	<rect x="162.027" y="33.575" fill="#AEB0B0" width="52.031" height="36.026"/>
	<rect x="0.9" y="213.541" fill="#AEB0B0" width="44" height="44"/>
	<path fill="#AEB0B0" d="M104.905,0.511V30.51h30V0.511H104.905z M123.375,15.515h-2.358c0,3.359,0,7.495,0,7.495h-3.113
		c0,0,0-4.095,0-7.495h-1.482v-2.646h1.482v-1.714c0-1.226,0.582-3.145,3.143-3.145l2.308,0.009v2.57c0,0-1.402,0-1.677,0
		c-0.271,0-0.66,0.136-0.66,0.722v1.557h2.375L123.375,15.515z"/>
	<path fill="#AEB0B0" d="M139.089,0.511v30h30v-30H139.089z M160.054,12.452c0.006,0.132,0.008,0.265,0.008,0.398
		c0,4.066-3.095,8.756-8.756,8.756c-1.738,0-3.355-0.51-4.717-1.383c0.241,0.027,0.486,0.042,0.734,0.042
		c1.441,0,2.768-0.491,3.82-1.316c-1.346-0.025-2.482-0.915-2.873-2.138c0.188,0.036,0.379,0.056,0.578,0.056
		c0.281,0,0.553-0.038,0.811-0.108c-1.406-0.283-2.469-1.527-2.469-3.018c0-0.013,0-0.025,0-0.04
		c0.416,0.231,0.891,0.37,1.395,0.385c-0.826-0.551-1.369-1.494-1.369-2.561c0-0.564,0.152-1.092,0.418-1.547
		c1.516,1.862,3.785,3.087,6.342,3.215c-0.053-0.225-0.08-0.459-0.08-0.701c0-1.7,1.379-3.077,3.078-3.077
		c0.885,0,1.686,0.374,2.246,0.972c0.701-0.138,1.359-0.394,1.955-0.747c-0.23,0.719-0.719,1.321-1.354,1.702
		c0.623-0.074,1.217-0.239,1.768-0.484C161.177,11.476,160.656,12.018,160.054,12.452z"/>
	<path fill="#AEB0B0" d="M205.988,0.511v30h30v-30H205.988z M215.51,22.994c-1.1,0-1.99-0.892-1.99-1.992s0.891-1.991,1.99-1.991
		s1.992,0.891,1.992,1.991S216.609,22.994,215.51,22.994z M220.506,23.007c0-1.879-0.729-3.645-2.049-4.97
		c-1.316-1.326-3.07-2.055-4.936-2.055v-2.875c5.436,0,9.859,4.441,9.859,9.899H220.506z M225.584,23.011
		c0-6.687-5.408-12.125-12.059-12.125V8.011c8.234,0,14.934,6.729,14.934,15H225.584z"/>
	<g>
		<polygon fill="#AEB0B0" points="182.152,17.094 183.096,17.094 183.096,21.785 184.008,21.785 184.008,17.094 184.953,17.094 
			184.953,16.296 182.152,16.296 		"/>
		<path fill="#AEB0B0" d="M187.756,13.198c0.123,0,0.221-0.034,0.293-0.103c0.074-0.068,0.111-0.163,0.111-0.282v-2.43
			c0-0.098-0.037-0.176-0.111-0.237c-0.074-0.06-0.172-0.089-0.293-0.089c-0.111,0-0.201,0.029-0.271,0.089
			c-0.068,0.062-0.104,0.14-0.104,0.237v2.43c0,0.123,0.033,0.217,0.098,0.283C187.543,13.166,187.635,13.198,187.756,13.198z"/>
		<path fill="#AEB0B0" d="M189.768,17.687c-0.127,0-0.25,0.031-0.375,0.096c-0.121,0.064-0.236,0.159-0.346,0.281v-1.768h-0.818
			v5.489h0.818v-0.311c0.105,0.125,0.223,0.216,0.346,0.274c0.123,0.06,0.264,0.088,0.424,0.088c0.238,0,0.424-0.075,0.549-0.229
			c0.129-0.154,0.191-0.374,0.191-0.659v-2.248c0-0.331-0.066-0.584-0.203-0.757C190.219,17.771,190.023,17.687,189.768,17.687z
			 M189.723,20.837c0,0.13-0.023,0.222-0.07,0.279s-0.119,0.087-0.219,0.087c-0.068,0-0.133-0.016-0.195-0.044
			s-0.127-0.079-0.191-0.144v-2.523c0.055-0.056,0.109-0.098,0.166-0.124s0.115-0.039,0.172-0.039c0.109,0,0.193,0.035,0.252,0.105
			s0.086,0.174,0.086,0.312V20.837z"/>
		<path fill="#AEB0B0" d="M186.811,20.812c-0.076,0.088-0.16,0.16-0.252,0.218c-0.09,0.057-0.166,0.084-0.225,0.084
			c-0.076,0-0.131-0.02-0.166-0.064c-0.033-0.042-0.051-0.111-0.051-0.207v-3.106h-0.809v3.386c0,0.242,0.047,0.421,0.141,0.542
			c0.096,0.122,0.236,0.182,0.424,0.182c0.152,0,0.309-0.042,0.471-0.13c0.162-0.085,0.316-0.21,0.467-0.374v0.444h0.809v-4.05
			h-0.809V20.812z"/>
		<path fill="#AEB0B0" d="M172.896,0.636v30h30v-30H172.896z M189.705,9.787h0.854v3.206c0,0.1,0.02,0.171,0.055,0.215
			c0.035,0.045,0.096,0.066,0.174,0.066c0.062,0,0.143-0.029,0.24-0.088c0.096-0.06,0.184-0.134,0.262-0.224V9.787h0.855v4.183
			h-0.855v-0.464c-0.155,0.171-0.32,0.302-0.49,0.391c-0.17,0.088-0.336,0.135-0.496,0.135c-0.197,0-0.346-0.064-0.447-0.19
			c-0.1-0.123-0.15-0.309-0.15-0.558V9.787z M186.533,10.743c0-0.325,0.117-0.582,0.346-0.773c0.229-0.192,0.539-0.288,0.928-0.288
			c0.354,0,0.643,0.102,0.869,0.304c0.225,0.201,0.338,0.464,0.338,0.781v2.161c0,0.357-0.109,0.637-0.332,0.842
			c-0.221,0.204-0.527,0.306-0.916,0.306c-0.373,0-0.672-0.105-0.896-0.316c-0.223-0.21-0.336-0.492-0.336-0.848V10.743z
			 M184.207,8.3l0.625,2.267h0.061l0.594-2.267h0.979l-1.121,3.317v2.353h-0.961v-2.247L183.238,8.3H184.207z M195.396,20.231
			c0,1.513-1.227,2.74-2.739,2.74h-9.522c-1.512,0-2.738-1.228-2.738-2.74v-2.202c0-1.514,1.227-2.741,2.738-2.741h9.522
			c1.513,0,2.739,1.228,2.739,2.741V20.231z"/>
		<path fill="#AEB0B0" d="M192.211,17.635c-0.363,0-0.656,0.11-0.887,0.331c-0.229,0.221-0.344,0.509-0.344,0.858v1.819
			c0,0.391,0.105,0.697,0.312,0.918c0.209,0.224,0.494,0.334,0.857,0.334c0.402,0,0.707-0.104,0.908-0.312
			c0.205-0.211,0.305-0.524,0.305-0.939v-0.208h-0.832v0.185c0,0.238-0.029,0.392-0.08,0.462c-0.055,0.07-0.148,0.105-0.283,0.105
			c-0.129,0-0.221-0.041-0.273-0.123c-0.053-0.083-0.08-0.231-0.08-0.444v-0.763h1.549v-1.033c0-0.384-0.1-0.678-0.299-0.883
			C192.867,17.737,192.582,17.635,192.211,17.635z M192.531,19.228h-0.717v-0.409c0-0.17,0.027-0.292,0.084-0.363
			c0.057-0.075,0.148-0.112,0.277-0.112c0.123,0,0.215,0.037,0.27,0.112c0.057,0.071,0.086,0.193,0.086,0.363V19.228z"/>
	</g>
	<g>
		<polygon fill="#AEB0B0" points="154.975,245.43 156.293,245.43 156.293,251.996 157.575,251.996 157.575,245.43 158.895,245.43 
			158.895,244.314 154.975,244.314 		"/>
		<path fill="#AEB0B0" d="M162.817,239.975c0.176,0,0.309-0.045,0.41-0.148c0.104-0.092,0.158-0.223,0.158-0.389v-3.402
			c0-0.145-0.055-0.246-0.158-0.33s-0.236-0.125-0.41-0.125c-0.152,0-0.277,0.041-0.377,0.125c-0.098,0.084-0.145,0.186-0.145,0.33
			v3.402c0,0.17,0.045,0.299,0.133,0.389C162.522,239.932,162.649,239.975,162.817,239.975z"/>
		<path fill="#AEB0B0" d="M165.637,246.256c-0.18,0-0.35,0.043-0.527,0.131c-0.168,0.088-0.33,0.23-0.48,0.398v-2.471h-1.146v7.682
			h1.146v-0.439c0.146,0.184,0.311,0.309,0.48,0.391c0.176,0.084,0.369,0.123,0.594,0.123c0.332,0,0.594-0.109,0.771-0.322
			c0.176-0.213,0.268-0.525,0.268-0.928v-3.139c0-0.473-0.096-0.818-0.285-1.062C166.27,246.377,165.993,246.256,165.637,246.256z
			 M165.575,250.672c0,0.178-0.035,0.305-0.1,0.385c-0.064,0.082-0.166,0.123-0.307,0.123c-0.098,0-0.186-0.016-0.271-0.057
			c-0.092-0.039-0.18-0.113-0.268-0.201v-3.531c0.072-0.08,0.15-0.145,0.23-0.184c0.08-0.037,0.162-0.051,0.242-0.051
			c0.15,0,0.27,0.047,0.352,0.152c0.082,0.094,0.121,0.232,0.121,0.43V250.672z"/>
		<path fill="#AEB0B0" d="M161.497,250.635c-0.105,0.123-0.225,0.219-0.352,0.301c-0.125,0.08-0.236,0.119-0.318,0.119
			c-0.105,0-0.184-0.031-0.23-0.088c-0.045-0.066-0.068-0.158-0.068-0.289v-4.35h-1.137v4.734c0,0.348,0.07,0.596,0.199,0.764
			c0.131,0.17,0.33,0.252,0.594,0.252c0.211,0,0.432-0.053,0.658-0.176c0.227-0.121,0.445-0.305,0.654-0.527v0.621h1.131v-5.668
			h-1.131V250.635z"/>
		<path fill="#AEB0B0" d="M142.016,222.385v42h42v-42H142.016z M165.545,235.193h1.199v4.494c0,0.135,0.025,0.242,0.072,0.297
			c0.053,0.068,0.137,0.09,0.244,0.09c0.092,0,0.201-0.041,0.34-0.123c0.131-0.082,0.254-0.18,0.367-0.307v-4.451h1.195v5.857
			h-1.195v-0.65c-0.22,0.24-0.449,0.43-0.689,0.555c-0.234,0.123-0.471,0.182-0.695,0.182c-0.273,0-0.48-0.088-0.623-0.262
			c-0.141-0.168-0.215-0.438-0.215-0.779V235.193z M161.108,236.535c0-0.453,0.164-0.816,0.486-1.078
			c0.316-0.273,0.75-0.404,1.297-0.404c0.494,0,0.9,0.137,1.215,0.42c0.318,0.283,0.473,0.652,0.473,1.098v3.029
			c0,0.498-0.15,0.883-0.461,1.17c-0.309,0.285-0.738,0.434-1.285,0.434c-0.52,0-0.941-0.152-1.254-0.445
			c-0.311-0.293-0.471-0.691-0.471-1.188V236.535z M157.85,233.119l0.877,3.17h0.084l0.828-3.17h1.371l-1.566,4.643v3.289h-1.348
			v-3.148l-1.602-4.783H157.85z M173.516,249.82c0,2.123-1.719,3.83-3.835,3.83H156.35c-2.115,0-3.834-1.707-3.834-3.83v-3.08
			c0-2.123,1.719-3.844,3.834-3.844h13.331c2.116,0,3.835,1.721,3.835,3.844V249.82z"/>
		<path fill="#AEB0B0" d="M169.059,246.182c-0.51,0-0.92,0.156-1.244,0.471c-0.322,0.303-0.479,0.709-0.479,1.199v2.545
			c0,0.543,0.146,0.979,0.436,1.281c0.291,0.318,0.693,0.475,1.197,0.475c0.566,0,0.994-0.15,1.271-0.441
			c0.287-0.293,0.428-0.734,0.428-1.314v-0.289h-1.166v0.254c0,0.332-0.041,0.557-0.109,0.65c-0.078,0.094-0.207,0.152-0.395,0.152
			c-0.182,0-0.309-0.064-0.385-0.182c-0.076-0.119-0.115-0.326-0.115-0.621v-1.066h2.17v-1.443c0-0.537-0.141-0.947-0.416-1.234
			C169.973,246.33,169.577,246.182,169.059,246.182z M169.502,248.418h-1.004v-0.572c0-0.24,0.039-0.41,0.119-0.516
			c0.08-0.1,0.207-0.16,0.389-0.16c0.176,0,0.303,0.061,0.381,0.16c0.074,0.105,0.115,0.275,0.115,0.516V248.418z"/>
	</g>
	<path fill="#AEB0B0" d="M93.904,222.385v42h42v-42H93.904z M123.254,239.105c0.012,0.18,0.016,0.371,0.016,0.553
		c0,5.695-4.337,12.26-12.26,12.26c-2.436,0-4.697-0.711-6.605-1.934c0.337,0.039,0.68,0.055,1.027,0.055
		c2.023,0,3.877-0.682,5.352-1.844c-1.885-0.027-3.479-1.279-4.023-2.994c0.264,0.059,0.533,0.08,0.809,0.08
		c0.393,0,0.775-0.051,1.137-0.146c-1.969-0.398-3.457-2.135-3.457-4.225c0-0.023,0-0.037,0-0.061
		c0.58,0.324,1.246,0.521,1.951,0.537c-1.154-0.764-1.914-2.09-1.914-3.58c0-0.787,0.211-1.527,0.58-2.168
		c2.127,2.611,5.303,4.328,8.881,4.504c-0.07-0.318-0.109-0.648-0.109-0.982c0-2.381,1.928-4.309,4.309-4.309
		c1.236,0,2.357,0.525,3.143,1.359c0.98-0.197,1.904-0.547,2.738-1.041c-0.324,1-1.004,1.85-1.896,2.383
		c0.873-0.109,1.701-0.334,2.475-0.684C124.828,237.732,124.096,238.496,123.254,239.105z"/>
	<path fill="#AEB0B0" d="M186.872,222.385v42h42.001v-42H186.872z M200.202,253.863c-1.539,0-2.787-1.25-2.787-2.789
		c0-1.541,1.248-2.789,2.787-2.789s2.789,1.248,2.789,2.789C202.991,252.613,201.741,253.863,200.202,253.863z M207.197,253.881
		c0-2.637-1.021-5.104-2.869-6.963c-1.845-1.854-4.296-2.875-6.911-2.875v-4.023c7.61,0,13.804,6.217,13.804,13.861H207.197z
		 M214.309,253.885c0-9.359-7.576-16.977-16.882-16.977v-4.023c11.528,0,20.905,9.416,20.905,21H214.309z"/>
	<rect y="34.617" fill="#AEB0B0" width="29.042" height="27.979"/>
	<polygon fill="#AEB0B0" points="97.756,47.743 84.396,34.382 80.683,38.095 90.34,47.752 80.683,57.409 84.396,61.122 
		97.756,47.761 97.747,47.752 	"/>
	<polygon fill="#AEB0B0" points="63.61,47.743 76.971,34.382 80.683,38.095 71.026,47.752 80.683,57.409 76.971,61.122 
		63.61,47.761 63.62,47.752 	"/>
	<polygon fill="#AEB0B0" points="280.955,34.617 269.812,45.76 272.909,48.855 280.963,40.801 289.018,48.855 292.113,45.76 
		280.971,34.617 280.963,34.624 	"/>
	<polygon fill="#AEB0B0" points="133,35.601 133,56.581 142.062,56.581 142.062,61.726 147.125,56.581 160.031,56.581 
		160.031,35.601 	"/>
</g>
<rect x="41.167" y="-0.384" fill="#AEB0B0" width="30" height="30"/>
<rect x="73.147" y="-0.384" fill="#363737" width="30" height="30"/>
<path fill="#FFFFFF" d="M98.427,22.782l-6.837-6.836c1.921-2.904,1.605-6.863-0.95-9.417c-1.414-1.414-3.292-2.192-5.292-2.192
	c-1.998,0-3.877,0.778-5.291,2.191c-1.413,1.413-2.191,3.292-2.191,5.291c0,1.999,0.778,3.878,2.191,5.292
	c1.413,1.413,3.292,2.191,5.291,2.191c1.491,0,2.914-0.434,4.128-1.239l6.835,6.835L98.427,22.782z M81.653,15.514
	c-0.987-0.987-1.531-2.299-1.531-3.696c0-1.396,0.543-2.708,1.531-3.695s2.3-1.531,3.695-1.531c1.396,0,2.709,0.543,3.696,1.531
	c2.038,2.038,2.038,5.354,0,7.391c-0.987,0.987-2.299,1.531-3.696,1.531C83.953,17.044,82.64,16.501,81.653,15.514z"/>
<rect x="305.27" y="176.428" fill="#AEB0B0" width="44" height="44"/>
<path fill="#FFFFFF" d="M339.742,208.334l-8.295-8.293c2.332-3.523,1.949-8.326-1.152-11.426c-1.715-1.715-3.994-2.66-6.42-2.66
	c-2.424,0-4.703,0.945-6.418,2.658c-1.715,1.715-2.658,3.994-2.658,6.418c0,2.428,0.943,4.707,2.658,6.42
	c1.715,1.715,3.994,2.658,6.418,2.658c1.809,0,3.535-0.525,5.01-1.502l8.291,8.291L339.742,208.334z M319.391,199.516
	c-1.195-1.197-1.855-2.789-1.855-4.484c0-1.693,0.66-3.283,1.855-4.482c1.199-1.197,2.791-1.857,4.484-1.857s3.287,0.66,4.484,1.857
	c2.473,2.473,2.473,6.494,0,8.967c-1.197,1.199-2.791,1.857-4.484,1.857S320.59,200.715,319.391,199.516z"/>
<rect x="352.176" y="176.428" fill="#363737" width="44" height="44"/>
<path fill="#FFFFFF" d="M386.646,208.334l-8.293-8.293c2.332-3.523,1.947-8.326-1.154-11.426c-1.713-1.715-3.992-2.66-6.42-2.66
	c-2.424,0-4.703,0.945-6.418,2.658c-1.713,1.715-2.658,3.994-2.658,6.418c0,2.428,0.945,4.707,2.658,6.42
	c1.715,1.715,3.994,2.658,6.418,2.658c1.811,0,3.535-0.525,5.01-1.502l8.291,8.291L386.646,208.334z M366.297,199.516
	c-1.197-1.197-1.857-2.789-1.857-4.484c0-1.693,0.66-3.283,1.857-4.482c1.199-1.197,2.791-1.857,4.482-1.857
	c1.695,0,3.287,0.66,4.484,1.857c2.473,2.473,2.473,6.494,0,8.967c-1.197,1.199-2.789,1.857-4.484,1.857
	C369.088,201.373,367.494,200.715,366.297,199.516z"/>
<rect x="41.147" y="-0.384" fill="#AEB0B0" width="30" height="30"/>
<path fill="#FFFFFF" d="M66.427,22.782l-6.837-6.836c1.921-2.904,1.605-6.863-0.95-9.417c-1.414-1.414-3.292-2.192-5.292-2.192
	c-1.998,0-3.877,0.778-5.291,2.191c-1.413,1.413-2.191,3.292-2.191,5.291c0,1.999,0.778,3.878,2.191,5.292
	c1.413,1.413,3.292,2.191,5.291,2.191c1.491,0,2.914-0.434,4.128-1.239l6.835,6.835L66.427,22.782z M49.653,15.514
	c-0.987-0.987-1.531-2.299-1.531-3.696c0-1.396,0.543-2.708,1.531-3.695s2.3-1.531,3.695-1.531c1.396,0,2.709,0.543,3.696,1.531
	c2.038,2.038,2.038,5.354,0,7.391c-0.987,0.987-2.299,1.531-3.696,1.531C51.953,17.044,50.64,16.501,49.653,15.514z"/>
<g>
	<path fill="#FFFFFF" d="M17.982,233.842c0.328,2.717,2.667,5.535,4.788,5.535c2.438,0,4.756-2.963,5.118-5.535
		c0.137-0.098,0.362-0.334,0.444-0.871c0,0,0.522-1.863-0.168-1.662c0.241-0.721,1.038-3.52-0.508-5.258c0,0-0.722-0.988-2.481-1.51
		c-0.061-0.053-0.123-0.104-0.196-0.154c0,0,0.039,0.045,0.096,0.123c-0.1-0.027-0.206-0.053-0.311-0.078
		c-0.095-0.1-0.203-0.203-0.324-0.311c0,0,0.107,0.107,0.235,0.291c-0.049-0.012-0.093-0.023-0.14-0.031
		c-0.081-0.123-0.178-0.248-0.3-0.377c0,0,0.051,0.1,0.119,0.254c-0.324-0.236-0.975-0.789-0.975-1.404c0,0-0.407,0.191-0.645,0.539
		c0.093-0.287,0.25-0.553,0.506-0.771c0,0-0.269,0.137-0.515,0.434c-0.191,0.109-0.631,0.41-0.778,0.941l-0.139-0.07
		c0.069-0.148,0.164-0.311,0.294-0.471c0,0-0.189,0.17-0.356,0.441l-0.282-0.141c0.084-0.158,0.194-0.32,0.344-0.479
		c0,0-0.151,0.117-0.312,0.312c0.045-0.182,0.036-0.393-0.533,0.232c0,0-2.568,1.111-3.311,3.42c0,0-0.437,1.041,0.143,4.104
		c-0.823-0.389-0.262,1.625-0.262,1.625C17.618,233.51,17.844,233.744,17.982,233.842z M22.648,223.158
		c-0.125,0.174-0.232,0.393-0.285,0.656l-0.09-0.033C22.343,223.557,22.461,223.344,22.648,223.158z"/>
	<path fill="#FFFFFF" d="M35.174,248.463c-0.448-3.18-1.612-5.842-1.612-5.842c-0.671-1.49-4.76-2.779-4.76-2.779
		c-2.18-0.766-2.196-1.535-2.196-1.535c-4.288,8.453-7.544,0.023-7.544,0.023c-0.297,1.141-4.71,2.48-4.71,2.48
		c-1.288,0.496-1.834,1.238-1.834,1.238c-1.089,1.613-1.627,4.355-1.891,6.414H35.174z"/>
</g>
<g>
	<path fill="#FFFFFF" d="M64.203,233.842c0.328,2.717,2.667,5.535,4.788,5.535c2.438,0,4.756-2.963,5.117-5.535
		c0.137-0.098,0.362-0.334,0.444-0.871c0,0,0.522-1.863-0.168-1.662c0.241-0.721,1.038-3.52-0.508-5.258c0,0-0.722-0.988-2.481-1.51
		c-0.061-0.053-0.123-0.104-0.195-0.154c0,0,0.039,0.045,0.096,0.123c-0.1-0.027-0.205-0.053-0.311-0.078
		c-0.095-0.1-0.203-0.203-0.324-0.311c0,0,0.106,0.107,0.235,0.291c-0.05-0.012-0.093-0.023-0.141-0.031
		c-0.08-0.123-0.178-0.248-0.3-0.377c0,0,0.052,0.1,0.119,0.254c-0.323-0.236-0.975-0.789-0.975-1.404c0,0-0.407,0.191-0.645,0.539
		c0.093-0.287,0.25-0.553,0.506-0.771c0,0-0.269,0.137-0.515,0.434c-0.191,0.109-0.631,0.41-0.777,0.941l-0.14-0.07
		c0.069-0.148,0.164-0.311,0.295-0.471c0,0-0.189,0.17-0.356,0.441l-0.282-0.141c0.084-0.158,0.194-0.32,0.344-0.479
		c0,0-0.15,0.117-0.312,0.312c0.045-0.182,0.036-0.393-0.533,0.232c0,0-2.567,1.111-3.311,3.42c0,0-0.437,1.041,0.143,4.104
		c-0.822-0.389-0.262,1.625-0.262,1.625C63.839,233.51,64.065,233.744,64.203,233.842z"/>
	<path fill="#FFFFFF" d="M79.783,242.621c-0.672-1.49-4.76-2.779-4.76-2.779c-2.18-0.766-2.196-1.535-2.196-1.535
		c-4.288,8.453-7.544,0.023-7.544,0.023c-0.297,1.141-4.71,2.48-4.71,2.48c-1.288,0.496-1.834,1.238-1.834,1.238
		c-1.089,1.613-1.628,4.355-1.891,6.414h24.547C80.947,245.283,79.783,242.621,79.783,242.621z"/>
</g>
<path fill="#FFFFFF" d="M46.656,41.034l6.081,6.787l-6.154,6.154v-4.072c0,0-7.344-1.542-8.145,2.448
	c-0.562-7.75,8.218-6.991,8.218-6.991V41.034z"/>
<path fill="#FFFFFF" d="M15.656,41.034l6.081,6.787l-6.154,6.154v-4.072c0,0-7.344-1.542-8.145,2.448
	c-0.562-7.75,8.218-6.991,8.218-6.991V41.034z"/>
<polygon fill="#FFFFFF" points="188.034,44.468 176.892,55.611 179.988,58.707 188.042,50.652 196.097,58.707 199.193,55.611 
	188.05,44.468 188.042,44.476 "/>
<polygon fill="#FFFFFF" points="239.984,44.468 228.842,55.611 231.938,58.707 239.992,50.652 248.047,58.707 251.143,55.611 
	240,44.468 239.992,44.476 "/>
<rect x="305.004" y="130.748" fill="#AEB0B0" width="44" height="44"/>
<g>
	<rect x="315.004" y="141.248" fill="#3B3C3B" width="24" height="5"/>
	<rect x="315.004" y="150.248" fill="#3B3C3B" width="24" height="5"/>
	<rect x="315.004" y="159.248" fill="#3B3C3B" width="24" height="5"/>
</g>
<rect x="352.176" y="130.748" fill="#363737" width="44" height="44"/>
<g>
	<rect x="362.176" y="141.248" fill="#AEB0B0" width="24" height="5"/>
	<rect x="362.176" y="150.248" fill="#AEB0B0" width="24" height="5"/>
	<rect x="362.176" y="159.248" fill="#AEB0B0" width="24" height="5"/>
</g>
</svg>
