<?xml version="1.0" standalone="no"?>
<!DOCTYPE svg PUBLIC "-//W3C//DTD SVG 1.1//EN" "http://www.w3.org/Graphics/SVG/1.1/DTD/svg11.dtd" >
<svg xmlns="http://www.w3.org/2000/svg">
<metadata></metadata>
<defs>
<font id="stagitalic" horiz-adv-x="1468" >
<font-face units-per-em="2048" ascent="1638" descent="-410" />
<missing-glyph horiz-adv-x="346" />
<glyph horiz-adv-x="2048" />
<glyph horiz-adv-x="2048" />
<glyph unicode="&#xd;" horiz-adv-x="682" />
<glyph unicode=" "  horiz-adv-x="346" />
<glyph unicode="&#x09;" horiz-adv-x="346" />
<glyph unicode="&#xa0;" horiz-adv-x="346" />
<glyph unicode="!" horiz-adv-x="417" d="M-49 147q0 72 53 121t125 49q70 0 116 -47t46 -112q0 -72 -54.5 -121t-125.5 -49q-70 0 -115 45.5t-45 113.5zM98 422l119 835l41 177h320l-41 -177l-291 -835h-148z" />
<glyph unicode="#" horiz-adv-x="1011" d="M18 395l58 252h166l51 189h-158l60 251h165l95 347h202l-94 -347h166l94 347h203l-94 -347h160l-60 -251h-168l-51 -189h160l-58 -252h-172l-106 -395h-203l107 395h-166l-107 -395h-202l106 395h-154zM444 647h166l52 189h-166z" />
<glyph unicode="$" horiz-adv-x="1044" d="M-70 78l66 287h180q25 -82 61.5 -124t102.5 -57l100 439q-2 2 -10 6t-10 6q-137 70 -207 147.5t-70 225.5q0 195 133.5 316.5t385.5 125.5l26 115h152l-29 -123q117 -12 311 -70l-67 -291h-166q-31 123 -123 160l-94 -407q80 -37 118.5 -59.5t93 -69t78 -108.5t23.5 -148 q0 -205 -140 -331t-401 -134l-45 -193h-151l45 199q-193 14 -363 88zM412 1063q0 -57 29.5 -93t93.5 -71l81 361q-96 -10 -150 -60.5t-54 -136.5zM489 182q205 29 205 211q0 57 -29.5 94t-89.5 68z" />
<glyph unicode="%" horiz-adv-x="1589" d="M76 -70l1329 1563h188l-1329 -1563h-188zM141 975q0 205 124 340t292 135q137 0 217 -79t80 -216q0 -203 -125 -337t-295 -134q-135 0 -214 77t-79 214zM362 950q0 -117 95 -116q70 0 122 100t52 240q0 123 -88 122q-74 0 -127.5 -101.5t-53.5 -244.5zM819 274 q0 205 124 340.5t292 135.5q137 0 217 -79t80 -216q0 -203 -125 -337t-295 -134q-135 0 -214 76.5t-79 213.5zM1040 250q0 -117 95 -117q70 0 122 100.5t52 239.5q0 123 -88 123q-74 0 -127.5 -101.5t-53.5 -244.5z" />
<glyph unicode="&#x26;" horiz-adv-x="1392" d="M-10 342q0 309 393 453q-55 111 -55 217q0 201 132 319.5t361 118.5q129 0 185 -16h241l-86 -369h-205l-8 152q-53 25 -123 24q-90 0 -140 -48t-50 -138q0 -98 74 -197l260 -352q57 92 100 211h-94l39 170h438l-39 -170h-53q-53 0 -78 -51q-98 -211 -184 -332l80 -109 q16 -23 24 -32t20.5 -16t26.5 -7h37l-39 -170h-284l-82 111q-178 -127 -416 -127q-225 0 -350 99t-125 259zM322 385q0 -88 48 -143.5t150 -55.5q123 0 240 86l-291 394q-147 -101 -147 -281z" />
<glyph unicode="(" horiz-adv-x="618" d="M53 487q0 399 204 680t474 351h92l-37 -164q-76 -16 -156.5 -84t-154.5 -174.5t-121 -270t-47 -348.5q0 -317 178 -422l-34 -155h-86q-129 61 -220.5 209.5t-91.5 377.5z" />
<glyph unicode=")" horiz-adv-x="618" d="M-123 -100l35 155q74 16 156 85t155.5 177.5t121.5 273.5t48 349q0 307 -180 414l37 164h86q129 -61 220 -210t91 -378q0 -399 -203.5 -680t-474.5 -350h-92z" />
<glyph unicode="*" horiz-adv-x="745" d="M135 1018l80 67l268 -2l-247 80l-43 90l88 95l96 -31l119 -221l-37 250l59 88h127l14 -119l-147 -221l209 168h104l39 -115l-80 -70l-268 2l248 -80l43 -88l-86 -94l-96 27l-121 221l37 -246l-58 -88h-127l-16 119l147 217l-211 -168l-104 4z" />
<glyph unicode="+" horiz-adv-x="1042" d="M45 590l55 235h365l88 385h250l-88 -385h362l-55 -235h-363l-88 -385h-249l88 385h-365z" />
<glyph unicode="," horiz-adv-x="417" d="M-137 -225l28 131q68 6 111 30.5t43 57.5q0 8 -2 13t-6 9t-8 7.5t-14 9.5l-15 10q-51 35 -51 102q0 76 50 124t122 48t120 -47t48 -123q0 -170 -114.5 -266t-311.5 -106z" />
<glyph unicode="." horiz-adv-x="415" d="M-49 147q0 72 53 121t125 49q70 0 116 -47t46 -112q0 -72 -54.5 -121t-125.5 -49q-70 0 -115 45.5t-45 113.5z" />
<glyph unicode="0" horiz-adv-x="1314" d="M61 541q0 346 187 602q102 145 248.5 225t308.5 80q244 0 384 -155.5t140 -411.5q0 -174 -51 -338t-139 -281q-102 -139 -246.5 -208.5t-302.5 -69.5q-242 0 -385.5 147.5t-143.5 409.5zM377 498q0 -150 57.5 -231t163.5 -81q207 0 315 238q100 219 101 502 q0 150 -56.5 230.5t-162.5 80.5q-199 0 -314 -248q-104 -231 -104 -491z" />
<glyph unicode="1" horiz-adv-x="765" d="M-100 0l39 170h155q20 0 44 21.5t28 41.5l209 918l-156 -59h-72l39 170l361 172h215l-275 -1201q-6 -23 3.5 -43t29.5 -20h139l-38 -170h-721z" />
<glyph unicode="2" horiz-adv-x="1058" d="M-100 0l30 129q43 180 157 300t327 253q20 14 96 59t99.5 61.5t75.5 57.5t70.5 68.5t37 71.5t18.5 92q0 68 -38 108.5t-111 40.5q-166 0 -273 -162h-178l68 297q211 74 401 74q209 0 334 -89t125 -253q0 -106 -43 -193.5t-125 -154t-163 -114.5t-192 -103l-30 -15 q-301 -154 -359 -292h475l58 155h203l-89 -391h-974z" />
<glyph unicode="3" horiz-adv-x="1040" d="M-82 72l62 270h170q18 -70 78.5 -112t152.5 -42q123 0 199.5 65.5t76.5 201.5q0 86 -58 133t-167 47h-92l41 190h96q145 0 220 72t75 176q0 164 -174 164q-145 0 -236 -133h-174l64 272q78 27 120 39t111.5 23.5t145.5 11.5q211 0 332.5 -90t121.5 -244q0 -303 -360 -391 v-8q119 -16 183.5 -89t64.5 -182q0 -215 -162 -338.5t-440 -123.5q-250 0 -451 88z" />
<glyph unicode="4" horiz-adv-x="1107" d="M-20 342l53 244l809 848h297l-205 -891h153l-45 -201h-153l-25 -109q-6 -23 3.5 -43t29.5 -20h104l-38 -170h-617l39 170h94q20 0 44 21.5t28 41.5l24 109h-595zM221 543h400l127 553h-9l-518 -545v-8z" />
<glyph unicode="5" horiz-adv-x="1026" d="M-84 76l59 258h179q43 -145 219 -146q123 0 204.5 84t81.5 238q0 193 -186 192q-133 0 -215 -96h-190l190 828h877l-80 -342h-199l-6 108h-416l-84 -364h6q94 72 246 71q170 0 273.5 -93t103.5 -265q0 -254 -167 -409.5t-454 -155.5q-254 0 -442 92z" />
<glyph unicode="6" horiz-adv-x="1173" d="M49 477q0 217 76 413.5t203 328.5q221 229 563 229q188 0 354 -57l-53 -232h-172q-49 86 -164 86q-201 0 -319 -176q-82 -121 -136 -305q150 145 351 145q176 0 277 -90t101 -252q0 -250 -164.5 -416.5t-433.5 -166.5q-225 0 -354 131t-129 362zM356 420 q0 -125 45 -185.5t146 -60.5q125 0 193.5 107.5t68.5 248.5q0 178 -195 179q-125 0 -239 -74q-19 -106 -19 -215z" />
<glyph unicode="7" horiz-adv-x="1026" d="M86 0l27 125l827 1063l2 8h-536l-80 -186h-195l96 424h981l-61 -260l-739 -1174h-322z" />
<glyph unicode="8" horiz-adv-x="1161" d="M2 350q0 164 98.5 276.5t274.5 155.5q-160 76 -160 244q0 188 154.5 306t371.5 118t333 -92t116 -240q0 -131 -80 -226t-223 -136q215 -86 215 -289q0 -219 -164 -351t-428 -132q-256 0 -382 101t-126 265zM317 371q0 -190 205 -191q129 0 201 86t72 213q0 188 -213 189 q-123 0 -194 -86t-71 -211zM514 1001q0 -143 162 -143q96 0 152.5 63.5t56.5 178.5q0 68 -39 107.5t-117 39.5q-96 0 -155.5 -66.5t-59.5 -179.5z" />
<glyph unicode="9" horiz-adv-x="1171" d="M12 41l54 231h172q49 -86 163 -86q217 0 328 166q90 133 133 322q-147 -152 -356 -152q-176 0 -277.5 90t-101.5 252q0 250 165 417t433 167q225 0 354 -131t129 -363q0 -219 -72.5 -420.5t-197.5 -330.5q-213 -219 -571 -219q-189 0 -355 57zM449 901q0 -178 194 -178 q123 0 242 74q16 115 16 215q0 125 -45 185t-145 60q-125 0 -193.5 -107.5t-68.5 -248.5z" />
<glyph unicode=":" horiz-adv-x="415" d="M-49 147q0 72 53 121t125 49q70 0 116 -47t46 -112q0 -72 -54.5 -121t-125.5 -49q-70 0 -115 45.5t-45 113.5zM88 741q0 72 53.5 121t124.5 49q70 0 116 -47t46 -112q0 -72 -54.5 -121t-125.5 -49q-70 0 -115 45.5t-45 113.5z" />
<glyph unicode=";" horiz-adv-x="415" d="M-137 -225l28 131q68 6 111 30.5t43 57.5q0 8 -2 13t-6 9t-8 7.5t-14 9.5l-15 10q-51 35 -51 102q0 76 51 124t123 48q70 0 118 -47t48 -123q0 -170 -114.5 -266t-311.5 -106zM88 741q0 72 53.5 121t124.5 49q70 0 116 -47t46 -112q0 -72 -54.5 -121t-125.5 -49 q-70 0 -115 45.5t-45 113.5z" />
<glyph unicode="&#x3c;" horiz-adv-x="913" d="M45 582l45 198l860 389h70l-55 -233l-600 -266v-6l475 -271l-49 -213h-70z" />
<glyph unicode="=" horiz-adv-x="997" d="M-10 311l55 236h916l-56 -236h-915zM90 741l53 236h916l-53 -236h-916z" />
<glyph unicode="&#x3e;" horiz-adv-x="913" d="M-41 180l53 234l600 266v6l-473 270l49 213h70l676 -401l-45 -199l-860 -389h-70z" />
<glyph unicode="?" horiz-adv-x="876" d="M119 147q0 72 53 121t125 49q70 0 116 -47t46 -112q0 -72 -54.5 -121t-125.5 -49q-70 0 -115 45.5t-45 113.5zM160 1116l61 270q170 63 359 64q190 0 295.5 -83t105.5 -226q0 -129 -69.5 -220.5t-206.5 -177.5q-92 -59 -128 -83.5t-85.5 -66.5t-66.5 -81t-22 -90h-172 q0 125 36 206t161 187q6 4 49 38t64.5 54.5t54.5 56t48 75.5t15 83q0 53 -32.5 86t-89.5 33q-123 0 -199 -125h-178z" />
<glyph unicode="@" horiz-adv-x="1775" d="M61 492q0 203 84 373.5t218.5 277t292 165t313.5 58.5q213 0 391 -77t289.5 -233.5t111.5 -365.5q0 -270 -141 -412.5t-344 -142.5q-233 0 -281 146q-100 -145 -264 -146q-117 0 -184.5 72t-67.5 203q0 227 133 385q123 145 326 145q117 0 199 -82q82 70 147 70h84 l-119 -514q-35 -141 68 -142q117 0 189.5 106.5t72.5 311.5q0 246 -168 385t-442 139q-133 0 -257 -45t-226.5 -131t-165 -228t-62.5 -318q0 -313 175 -464t470 -151t486 123h122l-28 -125q-100 -68 -254 -108.5t-326 -40.5q-166 0 -313.5 45t-267 135t-190.5 240.5 t-71 345.5zM729 399q0 -109 90 -108q80 0 164 88l90 381q-45 16 -102 16q-113 0 -177.5 -106.5t-64.5 -270.5z" />
<glyph unicode="A" d="M-102 0l39 170h45q57 0 94 63l553 961q16 27 16 43q0 21 -29 20h-118l41 177h604l114 -1207q4 -25 20.5 -41t37.5 -16h49l-39 -170h-604l39 170h186l-22 272h-488l-49 -88q-45 -82 -45 -127q0 -57 72 -57h82l-39 -170h-559zM535 621h376l-45 591h-4z" />
<glyph unicode="B" horiz-adv-x="1236" d="M-98 0l39 170h77q23 0 46.5 21.5t27.5 41.5l219 961q4 25 -4 44t-31 19h-88l41 177h549q489 0 490 -310q0 -311 -359 -370v-9q285 -37 285 -268q0 -223 -169 -350t-456 -127h-667zM401 188h160q311 0 311 299q0 172 -221 172h-143zM549 834h121q152 0 214 66.5t62 189.5 q0 80 -48 117.5t-155 37.5h-100z" />
<glyph unicode="C" horiz-adv-x="1253" d="M68 547q0 381 246.5 642t615.5 261q125 0 190 -16h285l-107 -463h-206l8 235q-82 35 -166 35q-233 0 -389 -188.5t-156 -507.5q0 -358 285 -359q113 0 188.5 38t155.5 118h153l-55 -236q-193 -122 -463 -122h-4q-279 0 -430 149.5t-151 413.5z" />
<glyph unicode="D" horiz-adv-x="1402" d="M-98 0l39 170h77q23 0 46.5 21.5t27.5 41.5l219 961q4 25 -4 44t-31 19h-88l41 177h549q309 0 477 -147.5t168 -430.5q0 -397 -238.5 -626.5t-652.5 -229.5h-630zM399 178h152q258 0 405.5 186.5t147.5 516.5q0 364 -365 364h-2h-94z" />
<glyph unicode="E" horiz-adv-x="1189" d="M-98 0l39 170h77q23 0 46.5 21.5t27.5 41.5l219 961q4 25 -4 44t-31 19h-88l41 177h1121l-95 -410h-192l16 219h-436l-98 -426h190l56 164h184l-117 -506h-180l18 164h-192l-105 -455h457l86 252h203l-98 -436h-1145z" />
<glyph unicode="F" horiz-adv-x="1157" d="M-98 0l39 170h77q23 0 46.5 21.5t27.5 41.5l219 961q4 25 -4 44t-31 19h-88l41 177h1112l-98 -426h-192l20 235h-428l-104 -457h186l57 164h185l-119 -518h-180l18 176h-188l-101 -438h178l-38 -170h-635z" />
<glyph unicode="G" horiz-adv-x="1351" d="M68 539q0 379 248.5 645t609.5 266q143 0 209 -16h280l-104 -451h-209l10 221q-78 37 -184 37q-227 0 -383 -188.5t-156 -507.5q0 -186 66.5 -272.5t206.5 -86.5q96 0 178 25l65 295h-141l41 176h563l-41 -176h-49q-23 0 -45.5 -21.5t-26.5 -42.5l-102 -442h-168 q-12 45 -47 45q-55 -25 -85 -35t-79 -18t-115 -8q-260 0 -401 145.5t-141 409.5z" />
<glyph unicode="H" horiz-adv-x="1486" d="M-98 0l39 170h77q23 0 46.5 21.5t27.5 41.5l219 961q4 25 -4 44t-31 19h-88l41 177h619l-41 -177h-162l-98 -434h526l98 434h-161l41 177h620l-41 -177h-80q-23 0 -46 -20t-27 -43l-220 -961q-6 -23 4.5 -43t30.5 -20h90l-39 -170h-620l39 170h162l106 471h-526 l-107 -471h162l-39 -170h-618z" />
<glyph unicode="I" horiz-adv-x="669" d="M-98 0l39 170h94q20 0 43.5 21.5t27.5 41.5l220 961q4 23 -4.5 43t-28.5 20h-105l41 177h625l-41 -177h-94q-23 0 -45.5 -20t-26.5 -43l-219 -961q-6 -23 3 -43t30 -20h104l-39 -170h-624z" />
<glyph unicode="J" horiz-adv-x="966" d="M-86 55l51 221h170q43 -88 146 -88q72 0 110.5 42t59.5 132l188 832q4 23 -4 43t-29 20h-90l41 177h594l-41 -177h-78q-23 0 -45 -20t-26 -43l-193 -838q-45 -195 -160.5 -283.5t-339.5 -88.5h-6q-207 0 -348 71z" />
<glyph unicode="K" horiz-adv-x="1396" d="M-98 0l39 170h77q23 0 46.5 21.5t27.5 41.5l219 961q4 25 -4 44t-31 19h-88l41 177h596l-41 -177h-139l-123 -536l463 409q55 51 55 85q0 42 -65 42h-4l41 177h530l-41 -177h-33q-39 0 -88 -38l-467 -383l273 -611q23 -55 53 -55h53l-39 -170h-411l35 154l-205 483 l-207 -170l-68 -297h140l-39 -170h-596z" />
<glyph unicode="L" horiz-adv-x="1161" d="M-98 0l39 170h77q23 0 46.5 21.5t27.5 41.5l219 961q4 25 -4 44t-31 19h-88l41 177h650l-41 -177h-193l-246 -1073h418l105 293h204l-108 -477h-1116z" />
<glyph unicode="M" horiz-adv-x="1798" d="M-98 0l39 170h77q23 0 46.5 21.5t27.5 41.5l219 961q4 25 -4 44t-31 19h-88l41 177h594l49 -967h7l493 967h610l-40 -177h-80q-23 0 -46.5 -20t-27.5 -43l-219 -961q-6 -23 4 -43t31 -20h90l-39 -170h-600l39 170h141l242 1057h-7l-628 -1227h-221l-62 1227h-6 l-242 -1057h144l-39 -170h-514z" />
<glyph unicode="N" horiz-adv-x="1443" d="M-98 0l39 170h77q23 0 46.5 21.5t27.5 41.5l219 961q4 25 -4 44t-31 19h-88l41 177h459l348 -955h6l181 778h-160l41 177h528l-41 -177h-75q-20 0 -44 -20t-28 -43l-273 -1194h-270l-387 1034h-6l-197 -864h164l-39 -170h-534z" />
<glyph unicode="O" horiz-adv-x="1429" d="M63 567q0 373 226.5 627t558.5 254q274 0 436 -155.5t162 -426.5q0 -389 -221 -635.5t-557 -246.5q-279 0 -442 153.5t-163 429.5zM383 557q0 -176 77 -272.5t216 -96.5q205 0 327.5 200t122.5 482q0 176 -74.5 271.5t-215.5 95.5q-205 0 -329 -196.5t-124 -483.5z" />
<glyph unicode="P" horiz-adv-x="1224" d="M-98 0l39 170h77q23 0 46.5 21.5t27.5 41.5l219 961q4 25 -4 44t-31 19h-88l41 177h572q231 0 367.5 -99.5t136.5 -273.5q0 -256 -176.5 -390t-493.5 -134h-156l-82 -367h178l-38 -170h-635zM520 715h135q330 0 330 342q-4 188 -209 188h-133z" />
<glyph unicode="Q" horiz-adv-x="1429" d="M63 567q0 375 226.5 628t558.5 253q279 0 437.5 -154.5t158.5 -427.5q0 -309 -129 -507.5t-357 -262.5v-4q311 -57 392 -184l-39 -162h-264q-33 82 -136.5 136.5t-302.5 90.5q-266 47 -405.5 190.5t-139.5 403.5zM381 514q0 -150 75.5 -241t219.5 -91q199 0 323.5 201 t124.5 479q0 375 -290 375q-203 0 -328 -204t-125 -519z" />
<glyph unicode="R" horiz-adv-x="1351" d="M-98 0l39 170h77q23 0 46.5 21.5t27.5 41.5l219 961q4 25 -4 44t-31 19h-88l41 177h586q240 0 371 -90.5t131 -249.5q0 -172 -105.5 -272.5t-302.5 -127.5v-8q113 -25 158 -87t66 -230l18 -148q6 -51 37 -51h59l-39 -170h-366l-23 389q-8 139 -44 183t-157 44h-118 l-103 -446h178l-38 -170h-635zM537 776h151q305 0 305 299q0 170 -215 170h-135z" />
<glyph unicode="S" horiz-adv-x="1056" d="M-74 0l99 428h213l-21 -219q88 -31 209 -31q276 0 276 215q0 31 -10 57.5t-21.5 43t-43 38t-50 31.5t-68.5 35t-75 37q-133 68 -199.5 146.5t-66.5 226.5q0 199 134 320.5t392 121.5q135 0 230 -16h233l-92 -392h-205l10 191q-68 29 -186 29q-248 0 -248 -199 q0 -74 41 -112t152 -91q12 -6 63 -29.5t67.5 -33t59.5 -34t59.5 -40.5t44 -47t39 -61.5t21.5 -73.5t10 -92q0 -211 -146.5 -338t-426.5 -127q-106 0 -217 16h-277z" />
<glyph unicode="T" horiz-adv-x="1277" d="M129 950l111 484h1214l-111 -484h-196l41 299h-225l-232 -1016q-6 -23 4 -43t31 -20h100l-39 -170h-618l39 170h90q23 0 46.5 21.5t27.5 41.5l231 1016h-221l-94 -299h-199z" />
<glyph unicode="U" horiz-adv-x="1445" d="M152 395q0 71 18 154l145 645q4 25 -4 44t-30 19h-91l41 177h621l-41 -177h-162l-168 -743q-16 -72 -16 -127q0 -84 38 -127q62 -72 199 -72q158 0 235 76t120 262l166 731h-162l41 177h532l-41 -177h-77q-23 0 -46.5 -20t-27.5 -43l-160 -692q-41 -172 -106.5 -281.5 t-188.5 -173t-307 -63.5q-305 0 -437 149q-91 103 -91 262z" />
<glyph unicode="V" horiz-adv-x="1437" d="M184 1257l41 177h584l-41 -177h-170l92 -962h4l451 823q33 58 33 93q0 46 -61 46h-3h-82l41 177h549l-41 -177h-43q-53 0 -92 -63l-694 -1194h-326l-139 1202q-6 55 -49 55h-54z" />
<glyph unicode="W" horiz-adv-x="1974" d="M188 1257l41 177h580l-45 -177h-170l-2 -890h4l502 1067h243l17 -1067h4l344 751q31 62 31 97q0 42 -59 42h-3h-82l41 177h529l-41 -177h-29q-61 0 -92 -63l-576 -1194h-346l-14 901h-4l-418 -901h-346l-21 1202q0 55 -49 55h-39z" />
<glyph unicode="X" horiz-adv-x="1353" d="M-98 0l39 170h57q49 0 84 39l459 516l-219 475q-16 35 -27.5 46t-32.5 11h-74l41 177h580l-41 -177h-123l174 -370l205 252q38 53 38 80q0 7 -2 12q-11 26 -56 26h-3h-32l41 177h528l-41 -177h-65q-47 0 -80 -38l-443 -506l230 -486q27 -57 65 -57h45l-39 -170h-579 l39 170h143l-184 387l-238 -285q-29 -38 -29 -63q0 -6 2 -11q9 -28 56 -28h49l-39 -170h-528z" />
<glyph unicode="Y" horiz-adv-x="1341" d="M188 1257l41 177h580l-41 -177h-162l185 -473h4l249 330q39 56 40 91q0 9 -3 16q-12 36 -76 36h-4h-53l41 177h541l-41 -177h-35q-49 0 -94 -55l-502 -620l-78 -349q-6 -23 4.5 -43t30.5 -20h100l-38 -170h-619l39 170h90q23 0 46.5 21.5t27.5 41.5l82 371l-252 606 q-20 47 -49 47h-54z" />
<glyph unicode="Z" horiz-adv-x="1110" d="M-100 0l49 211l930 1024v8h-435l-82 -219h-192l94 410h1012l-51 -217l-930 -1024v-9h479l86 252h203l-98 -436h-1065z" />
<glyph unicode="[" horiz-adv-x="532" d="M-100 -100l372 1618h465l-41 -177h-207l-292 -1271h206l-38 -170h-465z" />
<glyph unicode="]" horiz-adv-x="532" d="M-123 -100l39 170h207l293 1271h-207l41 177h465l-373 -1618h-465z" />
<glyph unicode="^" horiz-adv-x="806" d="M113 926l16 69l344 439h215l203 -439l-17 -69h-184l-135 270h-6l-236 -270h-200z" />
<glyph unicode="_" horiz-adv-x="763" d="M-203 -332l37 160h772l-37 -160h-772z" />
<glyph unicode="`" horiz-adv-x="819" d="M309 1331l25 103h256l55 -283h-158z" />
<glyph unicode="a" horiz-adv-x="1052" d="M-16 266q0 174 127 273.5t340 99.5q100 0 192 -27l27 115q5 23 5 43q0 46 -27 75q-38 42 -132 42q-61 0 -107.5 -15.5t-68 -30t-61.5 -48.5h-138l56 239q182 59 376 60q229 0 333 -95q73 -67 73 -177q0 -46 -12 -99l-115 -500q-4 -18 8 -34.5t31 -16.5h57l-30 -143 q-78 -41 -179 -41q-168 0 -188 139q-119 -137 -285 -137q-131 0 -206.5 70.5t-75.5 207.5zM264 291q0 -127 123 -127q90 0 172 86l49 215q-78 16 -133 16q-100 0 -155.5 -54t-55.5 -136z" />
<glyph unicode="b" horiz-adv-x="1126" d="M-43 0l274 1202q4 18 -8 36.5t-30 18.5h-64l41 177h362q39 0 39 -40q0 -13 -4 -30l-96 -426q156 156 342 156q137 0 220 -92.5t83 -272.5q0 -137 -52 -298t-142 -265q-158 -180 -398 -180q-180 0 -280 120q-39 -43 -86 -74.5t-70 -31.5h-131zM301 201q61 -37 158 -37 q174 0 267 150.5t93 373.5q0 94 -42 143.5t-113 49.5q-109 0 -228 -90z" />
<glyph unicode="c" horiz-adv-x="950" d="M18 391q0 305 188.5 503t463.5 198q203 0 344 -68l-53 -231h-152q-20 53 -54 80.5t-106 27.5q-152 0 -246 -155.5t-94 -364.5t180 -209q133 0 205 115h162l-53 -232q-160 -69 -327 -69h-5q-221 0 -337 108.5t-116 296.5z" />
<glyph unicode="d" horiz-adv-x="1181" d="M10 340q0 139 52.5 295t144.5 262q170 195 397 195q170 0 258 -95l62 260h-140l41 177h387q39 0 39 -40q0 -13 -4 -30l-264 -1143q-4 -18 8.5 -34.5t30.5 -16.5h57l-32 -152q-76 -32 -142 -32h-4q-197 0 -213 168q-152 -170 -362 -170q-145 0 -230.5 91t-85.5 265z M307 354q0 -182 148 -182q119 0 247 125l127 557q-59 41 -161 41q-174 0 -267.5 -155t-93.5 -386z" />
<glyph unicode="e" horiz-adv-x="1005" d="M23 418q0 279 185 476.5t439 197.5q172 0 272.5 -80t100.5 -209q0 -102 -47 -173t-143.5 -113t-220.5 -63.5t-296 -29.5q0 -252 181 -252q143 0 229 115h158l-54 -232q-145 -69 -344 -69h-6q-221 0 -337.5 114.5t-116.5 317.5zM332 592q213 14 310 59t97 140 q0 55 -30.5 88.5t-90.5 33.5q-109 0 -183 -90t-103 -231z" />
<glyph unicode="f" horiz-adv-x="645" d="M-162 -332l37 160q121 33 162 219l182 848h-127l39 180h127l18 82q68 297 375 297q119 0 185 -29l-37 -168h-64q-72 0 -109.5 -23.5t-52.5 -86.5l-16 -72h184l-39 -180h-186l-190 -854q-66 -285 -303 -373h-185z" />
<glyph unicode="g" horiz-adv-x="962" d="M-129 -127q0 94 66.5 147.5t185.5 88.5q-35 18 -57.5 55t-22.5 82q0 133 190 225q-127 82 -127 234q0 174 133.5 280.5t311.5 106.5q68 0 129 -17h377l-41 -180h-43q-14 0 -30.5 -11.5t-22.5 -25.5q10 -41 10 -76q0 -174 -131 -276.5t-312 -102.5q-90 0 -174 27 q-45 -39 -45 -74q0 -59 80 -59h246q143 0 215 -67.5t72 -178.5q0 -184 -132.5 -296.5t-426.5 -112.5q-219 0 -335 64.5t-116 166.5zM133 -70q0 -49 47 -80.5t148 -31.5q141 0 206.5 42t65.5 107q0 86 -125 86h-291q-51 -57 -51 -123zM367 682q0 -57 29.5 -91t88.5 -34 q74 0 129.5 65.5t55.5 176.5q0 59 -33 93t-90 34q-74 0 -127 -65.5t-53 -178.5z" />
<glyph unicode="h" horiz-adv-x="1187" d="M18 51v5q0 8 2 16l261 1130q4 16 -8.5 35.5t-30.5 19.5h-64l41 177h363q39 0 38 -40q0 -13 -4 -30l-106 -463q215 190 412 191q133 0 183 -77q32 -49 32 -117q0 -39 -11 -83l-137 -594q-4 -18 8.5 -34.5t30.5 -16.5h57l-32 -152q-76 -32 -170 -32h-6q-123 0 -166 67 q-27 42 -27 102q0 37 10 83l117 510q5 25 5 43q0 71 -71 71q-119 0 -268 -108l-172 -754h-235q-29 0 -43 20q-9 13 -9 31z" />
<glyph unicode="i" horiz-adv-x="565" d="M55 155q1 38 11 83l139 602q4 18 -7.5 36.5t-29.5 18.5h-72l35 160q91 32 206 32h7q104 0 149 -55q28 -35 28 -93q0 -32 -9 -71l-150 -647q-4 -18 8.5 -34.5t30.5 -16.5h62l-33 -152q-76 -32 -176 -32h-6q-123 0 -166 67q-27 42 -27 102zM301 1313q0 68 50 115t120 47 q66 0 110 -44.5t44 -107.5q0 -70 -51.5 -116t-120.5 -46q-66 0 -109 44.5t-43 107.5z" />
<glyph unicode="j" horiz-adv-x="528" d="M-240 -315l35 143h55q74 0 107 33t51 112l197 867q4 18 -7.5 36.5t-29.5 18.5h-72l35 160q91 32 206 32h7q104 0 149 -55q28 -35 28 -93q0 -32 -9 -71l-207 -913q-37 -164 -124 -231.5t-238 -67.5q-103 0 -183 29zM301 1313q0 68 50 115t120 47q66 0 110 -44.5t44 -107.5 q0 -70 -51.5 -116t-120.5 -46q-66 0 -109 44.5t-43 107.5z" />
<glyph unicode="k" horiz-adv-x="1073" d="M15 51q0 10 3 21l261 1130q4 16 -8.5 35.5t-30.5 19.5h-64l41 177h363q39 0 38 -40q0 -13 -4 -30l-178 -774q358 238 414 485h283l-31 -139q-125 -162 -352 -344l172 -371q25 -51 63 -51h35l-33 -152q-68 -32 -146 -32h-5q-45 0 -77 11t-54.5 37.5t-35 51.5t-30.5 68 l-117 278q-76 -45 -139 -78l-80 -354h-235q-29 0 -43 20q-9 13 -10 31z" />
<glyph unicode="l" horiz-adv-x="569" d="M56 157q0 37 10 81l223 964q4 16 -8.5 35.5t-30.5 19.5h-72l41 177h371q39 0 39 -40q0 -13 -4 -30l-265 -1143q-4 -18 8.5 -34.5t30.5 -16.5h68l-33 -152q-80 -32 -178 -32h-6q-123 0 -167 67q-27 42 -27 104z" />
<glyph unicode="m" horiz-adv-x="1769" d="M18 51v5q0 8 2 16l177 768q4 18 -7.5 36.5t-29.5 18.5h-64l35 160q91 32 197 32h6q171 0 171 -165q0 -11 -1 -23q188 193 391 193q190 0 205 -203q190 203 401 203q133 0 185 -77q32 -48 32 -114q0 -42 -10 -86l-137 -594q-4 -18 8 -34.5t31 -16.5h57l-33 -152 q-76 -32 -170 -32h-6q-123 0 -166 67q-26 40 -26 98q0 41 10 87l117 510q5 25 5 45q0 71 -69 71q-98 0 -242 -106l-174 -758h-233q-29 0 -43 20.5t-6 51.5l155 676q5 25 6 45q0 71 -69 71q-102 0 -246 -110l-172 -754h-235q-29 0 -43 20q-9 13 -9 31z" />
<glyph unicode="n" horiz-adv-x="1187" d="M18 51v5q0 8 2 16l177 768q4 18 -7.5 36.5t-29.5 18.5h-64l35 160q91 32 197 32h6q171 0 171 -170q0 -12 -1 -24q215 199 418 199q133 0 183 -77q32 -49 32 -117q0 -39 -11 -83l-137 -594q-4 -18 8.5 -34.5t30.5 -16.5h57l-32 -152q-76 -32 -170 -32h-6q-123 0 -166 67 q-27 42 -27 102q0 37 10 83l117 510q5 25 5 43q0 71 -71 71q-119 0 -268 -108l-172 -754h-235q-29 0 -43 20q-9 13 -9 31z" />
<glyph unicode="o" horiz-adv-x="1101" d="M18 444q0 289 177.5 468.5t420.5 179.5q221 0 344 -123t123 -334q0 -291 -171 -469t-425 -178q-221 0 -345 122.5t-124 333.5zM311 410q0 -236 189 -236q133 0 213 142.5t80 342.5q0 236 -187 236q-129 0 -212 -144t-83 -341z" />
<glyph unicode="p" horiz-adv-x="1187" d="M-193 -332l37 160h72q18 0 38.5 16.5t25.5 34.5l217 961q4 18 -7.5 36.5t-29.5 18.5h-64l35 160q91 32 197 32h6q170 0 170 -166v-12q168 184 370 185q137 0 220.5 -92.5t83.5 -272.5q0 -137 -47.5 -285.5t-139.5 -250.5q-152 -172 -387 -173q-174 0 -274 91l-64 -283 h137l-36 -160h-560zM358 233q68 -38 169 -38h5q170 0 259.5 144t89.5 347q0 94 -42 144.5t-114 50.5q-57 0 -125 -29t-119 -74z" />
<glyph unicode="q" horiz-adv-x="1155" d="M14 375q0 307 189 520q172 197 418 197q102 0 160.5 -31t111.5 -96q95 110 192 110h2h93l-271 -1196q-4 -18 8.5 -34.5t30.5 -16.5h78l-37 -160h-565l37 160h137l78 346q-145 -154 -348 -154q-145 0 -229.5 90.5t-84.5 264.5zM311 377q0 -178 137.5 -178t266.5 143 l114 514q-61 39 -159 39q-172 0 -265.5 -153.5t-93.5 -364.5z" />
<glyph unicode="r" horiz-adv-x="780" d="M18 51v5q0 8 2 16l177 768q4 18 -7.5 36.5t-29.5 18.5h-64l35 160q91 32 197 32h6q170 0 170 -166q0 -18 -2 -38q138 202 311 202h2q31 0 62 -10l-50 -221h-36q-182 0 -318 -119l-168 -735h-235q-29 0 -43 20q-9 13 -9 31z" />
<glyph unicode="s" horiz-adv-x="839" d="M-68 72l50 215h151q20 -61 58 -92t114 -31q78 0 127 36t49 99q0 20 -8 36.5t-17.5 28t-32 23.5t-34.5 17.5t-43 17.5l-41 16q-100 43 -155.5 105.5t-55.5 173.5q0 176 119 272t319 96q193 0 345 -71l-52 -221h-141q-45 114 -174 114h-2q-160 0 -160 -127q0 -27 10.5 -47 t39 -37.5t47 -27t67.5 -29.5q57 -25 91 -43t76 -52t62.5 -83t20.5 -113q0 -168 -124 -264t-327 -96q-240 0 -379 84z" />
<glyph unicode="t" horiz-adv-x="651" d="M71 225q0 50 13 109l129 561h-117l39 180h119l65 287h299l-65 -287h192l-38 -180h-197l-129 -567q-7 -29 -7 -54q0 -104 124 -104h51l-35 -160q-73 -26 -156 -26h-6q-172 0 -238 92q-43 59 -43 149z" />
<glyph unicode="u" horiz-adv-x="1179" d="M60 215q0 45 12 98l121 527q4 18 -7.5 36.5t-29.5 18.5h-60l35 160q100 35 199 35q111 0 149 -69q23 -41 23 -98q0 -39 -10 -85l-117 -510q-5 -25 -6 -46q0 -77 82 -77q104 0 243 94l178 776h236q29 0 43 -20q9 -13 9 -30q0 -10 -3 -21l-180 -783q-4 -18 8 -34.5 t31 -16.5h61l-33 -152q-76 -32 -174 -32h-6q-100 0 -147 41q-45 39 -45 122v7q-182 -172 -377 -172q-141 0 -199 92q-36 59 -36 139z" />
<glyph unicode="v" horiz-adv-x="1056" d="M96 895l35 160q100 35 176 35q94 0 129 -46.5t43 -142.5l56 -625h4q238 362 331 799h254l-41 -180q-119 -272 -234.5 -479t-287.5 -416h-258l-119 848q-2 20 -16 33.5t-31 13.5h-41z" />
<glyph unicode="w" horiz-adv-x="1521" d="M96 895l35 160q100 35 172 35q96 0 129 -45.5t33 -143.5l6 -528h4l318 702h239l45 -747h4q176 303 256 747h252l-41 -180q-186 -524 -483 -895h-223l-33 700h-4l-330 -700h-264l-31 848q-2 18 -16 32.5t-31 14.5h-37z" />
<glyph unicode="x" horiz-adv-x="980" d="M-59 0l39 170q147 49 364 344l-168 344q-16 37 -45 37h-55l35 160q68 32 148 32h5q86 0 120 -33.5t97 -166.5l80 -168q174 276 291 356h182l-39 -180q-127 -35 -354 -330l166 -346q23 -49 63 -49h48l-33 -152q-64 -32 -138 -32h-4q-86 0 -127 35.5t-90 136.5l-102 209 q-166 -268 -285 -367h-198z" />
<glyph unicode="y" horiz-adv-x="1148" d="M-41 -295l53 219h172q49 -100 189 -100q215 0 258 186l41 180q-164 -145 -357 -145q-143 0 -204 86q-40 56 -40 136q0 42 11 91l111 482q4 18 -7.5 36.5t-29.5 18.5h-60l35 160q100 35 199 35q111 0 149 -69q23 -41 23 -98q0 -39 -10 -85l-107 -465q-5 -25 -5 -46 q0 -77 81 -77q106 0 246 94l165 731h236q29 0 43 -20q9 -13 9 -30q0 -10 -3 -21l-223 -965q-47 -205 -189.5 -298t-396.5 -93q-233 0 -389 57z" />
<glyph unicode="z" horiz-adv-x="954" d="M-100 0l43 186l725 707h-328l-72 -180h-172l84 362h873l-43 -192l-727 -705h346l65 180h178l-81 -358h-891z" />
<glyph unicode="{" horiz-adv-x="671" d="M45 631l41 176h45q119 0 143 104l82 355q57 252 330 252h191l-41 -177h-148q-23 0 -46.5 -21.5t-27.5 -41.5l-82 -356q-18 -82 -70 -129.5t-159 -73.5v-6q92 -27 120 -85.5t7 -150.5l-80 -344q-4 -20 8.5 -41.5t34.5 -21.5h150l-39 -170h-156q-145 0 -209.5 72.5 t-36.5 199.5l82 356q10 43 -7 73t-68 30h-64z" />
<glyph unicode="}" horiz-adv-x="671" d="M-123 -100l39 170h147q23 0 46.5 21.5t27.5 41.5l84 363q18 82 70.5 129t159.5 73v7q-92 27 -120 85t-7 150l77 338q4 20 -8 41.5t-35 21.5h-149l41 177h156q145 0 209.5 -73t35.5 -200l-82 -356q-10 -43 7.5 -73t68.5 -30h64l-41 -176h-45q-119 0 -144 -104l-82 -354 q-57 -252 -329 -252h-191z" />
<glyph unicode="~" horiz-adv-x="739" d="M4 449l37 165q80 127 219 127q53 0 145.5 -23.5t114.5 -23.5q55 0 88 58h160l-39 -166q-82 -131 -219 -131q-53 0 -145.5 27.5t-114.5 27.5q-53 0 -86 -61h-160z" />
<glyph unicode="&#xa1;" horiz-adv-x="417" d="M-111 -147l41 176l291 835h148l-119 -835l-41 -176h-320zM176 1128q0 72 54.5 121t125.5 49q70 0 115 -46t45 -113q0 -72 -53 -121t-125 -49q-70 0 -116 46.5t-46 112.5z" />
<glyph unicode="&#xa2;" horiz-adv-x="978" d="M20 397q0 299 175.5 486.5t443.5 206.5l27 116h151l-29 -119q154 -14 259 -63l-54 -236h-153q-29 80 -97 103l-165 -715q90 16 147 103h158l-52 -224q-141 -63 -296 -67l-46 -197h-151l47 203q-176 27 -270.5 133t-94.5 270zM311 387q0 -160 119 -201l162 705 q-127 -37 -204 -175.5t-77 -328.5z" />
<glyph unicode="&#xa3;" horiz-adv-x="1024" d="M-100 0l39 168q123 23 191.5 132.5t68.5 289.5v43h-154l41 178h104q-2 35 -2 102q0 150 47.5 257.5t130.5 166t177 85t207 26.5q254 0 417 -92l-63 -281h-176q-39 166 -201 166q-164 0 -207 -184q-8 -29 -24 -246h329l-41 -178h-303q-14 -133 -32 -209q-23 -90 -60 -156 q164 -33 320 -32l61 155h199l-90 -391h-109q-326 0 -532 98q-70 -53 -181 -98h-157z" />
<glyph unicode="&#xa5;" horiz-adv-x="1224" d="M61 371l33 147h355l28 123h-354l35 147h274l-162 422q-18 47 -57 47h-23l41 177h539l-41 -177h-133l131 -413h4l195 270q47 68 33.5 105.5t-70.5 37.5h-39l41 177h520l-41 -177h-39q-45 0 -90 -55l-332 -414h277l-35 -147h-354l-29 -123h354l-32 -147h-357l-31 -138 q-6 -23 4.5 -43t30.5 -20h101l-39 -170h-619l39 170h90q23 0 46.5 21.5t27.5 41.5l31 138h-353z" />
<glyph unicode="&#xa7;" horiz-adv-x="1044" d="M-88 -184l57 247h187q10 -76 52 -115.5t140 -39.5q84 0 133 42t49 109q0 53 -47 90t-190 97q-135 55 -197.5 124.5t-62.5 176.5q0 109 72.5 193.5t207.5 125.5q-66 74 -65 189q0 166 128 280.5t347 114.5q104 0 184 -13.5t117 -25.5t92 -39l-53 -233h-184 q-10 66 -48 97.5t-133 31.5q-96 0 -139 -44t-43 -110q0 -57 40 -91t175 -79q162 -55 235.5 -127t73.5 -178q0 -115 -73.5 -201t-218.5 -129q80 -80 79 -186q0 -182 -123.5 -288.5t-355.5 -106.5q-243 0 -436 88zM293 621q0 -45 36 -82t134 -74q72 -27 147 -64 q141 45 144 164q0 47 -44 83t-141 71q-74 27 -131 55q-145 -38 -145 -153z" />
<glyph unicode="&#xa8;" horiz-adv-x="819" d="M242 1305q0 63 48 107t111.5 44t104.5 -42t41 -101q0 -63 -48 -107.5t-114 -44.5q-61 0 -102 41.5t-41 102.5zM631 1305q0 63 48 107t111.5 44t104.5 -42t41 -101q0 -63 -48 -107.5t-114 -44.5q-61 0 -102 41.5t-41 102.5z" />
<glyph unicode="&#xa9;" horiz-adv-x="1536" d="M88 717q0 342 208 537.5t515 195.5t515 -195.5t208 -537.5t-208 -537.5t-515 -195.5t-515 195.5t-208 537.5zM184 717q0 -305 176.5 -479.5t450.5 -174.5t450.5 174.5t176.5 479.5t-176.5 479t-450.5 174t-450.5 -174t-176.5 -479zM430 715q0 193 103.5 301t273.5 108 q76 0 137 -10h166v-268h-143l-23 121q-39 14 -94 14q-184 0 -184 -258q0 -266 176 -266q100 0 168 86h104v-146q-113 -82 -289 -82q-190 0 -292.5 102.5t-102.5 297.5z" />
<glyph unicode="&#xaa;" horiz-adv-x="921" d="M86 768q0 139 109.5 219t300.5 80q98 0 166 -20l20 81q31 133 -127 134q-115 0 -201 -72h-135l47 211q147 49 336 49q197 0 290 -82t56 -244l-90 -395q-4 -16 7.5 -29.5t25.5 -13.5h49l-29 -131q-70 -37 -159 -37q-145 0 -166 119q-104 -117 -242 -117 q-109 0 -183.5 66.5t-74.5 181.5zM342 778q0 -98 104 -98q76 0 150 78l37 160q-61 14 -117 14q-84 0 -129 -43t-45 -111z" />
<glyph unicode="&#xab;" horiz-adv-x="1001" d="M45 471l37 158l354 354h176l-24 -104l-279 -353v-6l119 -330l-25 -108h-147zM477 471l37 158l354 354h176l-24 -104l-279 -353v-6l119 -330l-24 -108h-148z" />
<glyph unicode="&#xae;" horiz-adv-x="790" d="M152 1083q0 168 107.5 267.5t262.5 99.5q154 0 262.5 -99.5t108.5 -267.5t-108.5 -267t-262 -99t-262 99t-108.5 267zM231 1083.5q0 -141.5 82 -220.5t209 -79t209 79t82 220.5t-82 220t-209 78.5t-209 -78.5t-82 -220zM356 909v60h17q14 0 14 16v207q0 14 -14 14h-17v62 h176q150 0 150 -103q0 -61 -72 -82v-2q29 -4 43.5 -19t24.5 -54l6 -27q4 -12 12 -12h13v-60h-127l-13 99q-8 41 -45 41h-22v-80h35v-60h-181zM498 1108h24q47 0 47 47t-47 47h-24v-94z" />
<glyph unicode="&#xaf;" horiz-adv-x="819" d="M291 1198l45 193h545l-45 -193h-545z" />
<glyph unicode="&#xb0;" horiz-adv-x="712" d="M199 1145q0 135 94 218t223 83q123 0 204 -79t81 -198q0 -137 -94.5 -219t-223.5 -82q-123 0 -203.5 79t-80.5 198zM344 1147q0 -70 40 -114t108 -44q72 0 119.5 48t47.5 132q0 68 -42 112t-109 44q-72 0 -118 -48t-46 -130z" />
<glyph unicode="&#xb2;" horiz-adv-x="1058" d="M-100 0l30 129q43 180 157 300t327 253q20 14 96 59t99.5 61.5t75.5 57.5t70.5 68.5t37 71.5t18.5 92q0 68 -38 108.5t-111 40.5q-166 0 -273 -162h-178l68 297q211 74 401 74q209 0 334 -89t125 -253q0 -106 -43 -193.5t-125 -154t-163 -114.5t-192 -103l-30 -15 q-301 -154 -359 -292h475l58 155h203l-89 -391h-974z" />
<glyph unicode="&#xb3;" horiz-adv-x="1040" d="M-82 72l62 270h170q18 -70 78.5 -112t152.5 -42q123 0 199.5 65.5t76.5 201.5q0 86 -58 133t-167 47h-92l41 190h96q145 0 220 72t75 176q0 164 -174 164q-145 0 -236 -133h-174l64 272q78 27 120 39t111.5 23.5t145.5 11.5q211 0 332.5 -90t121.5 -244q0 -303 -360 -391 v-8q119 -16 183.5 -89t64.5 -182q0 -215 -162 -338.5t-440 -123.5q-250 0 -451 88z" />
<glyph unicode="&#xb4;" horiz-adv-x="819" d="M461 1151l100 283h301l-24 -103l-209 -180h-168z" />
<glyph unicode="&#xb6;" horiz-adv-x="1128" d="M137 946q0 248 164 368t422 120h592l-41 -177h-78q-23 0 -46.5 -21.5t-27.5 -41.5l-319 -1380h-172l330 1431h-140l-329 -1431h-173l187 807q-174 14 -271.5 94.5t-97.5 230.5z" />
<glyph unicode="&#xb8;" horiz-adv-x="819" d="M51 -322l27 117h69q18 -31 66 -31q68 0 68 48q0 18 -18.5 30.5t-51.5 12.5h-39l33 145h129l-12 -51q68 -4 103.5 -39t35.5 -92q0 -82 -66.5 -129t-177.5 -47q-96 -1 -166 36z" />
<glyph unicode="&#xb9;" horiz-adv-x="765" d="M-100 0l39 170h155q20 0 44 21.5t28 41.5l209 918l-156 -59h-72l39 170l361 172h215l-275 -1201q-6 -23 3.5 -43t29.5 -20h139l-38 -170h-721z" />
<glyph unicode="&#xba;" horiz-adv-x="933" d="M111 905q0 242 153.5 393.5t362.5 151.5q190 0 297.5 -104.5t107.5 -280.5q0 -244 -148.5 -395.5t-365.5 -151.5q-193 0 -300 105.5t-107 281.5zM385 877q0 -188 143 -189q109 0 170.5 113.5t61.5 283.5q0 184 -142 185q-104 0 -168.5 -114.5t-64.5 -278.5z" />
<glyph unicode="&#xbb;" horiz-adv-x="1003" d="M-43 82l25 104l278 353v6l-119 329l25 109h147l211 -389l-37 -158l-354 -354h-176zM389 82l25 104l278 353v6l-119 329l25 109h147l211 -389l-36 -158l-355 -354h-176z" />
<glyph unicode="&#xbc;" horiz-adv-x="1386" d="M-2 -70l1329 1563h189l-1330 -1563h-188zM51 645l29 123h92q8 0 20.5 11.5t16.5 21.5l104 454l-90 -43h-53l31 129l219 93h168l-146 -633q-4 -10 1.5 -21.5t15.5 -11.5h98l-29 -123h-477zM649 205l37 155l432 428h219l-104 -452h92l-31 -131h-92l-10 -49q-4 -10 1 -21.5 t15 -11.5h68l-29 -123h-403l28 123h60q8 0 20.5 11t14.5 22l10 49h-328zM823 336h191l57 252h-4l-244 -248v-4z" />
<glyph unicode="&#xbd;" d="M-18 -70l1329 1563h188l-1329 -1563h-188zM51 645l29 123h92q8 0 20.5 11.5t16.5 21.5l104 454l-90 -43h-53l31 129l219 93h168l-146 -633q-4 -10 1.5 -21.5t15.5 -11.5h98l-29 -123h-477zM731 0l23 92q25 100 86 166t170 129q16 10 51 30.5t50 30t40 27t35 30.5t18 32.5 t8 40.5q0 70 -77 69q-80 0 -131 -76h-115l43 187q115 41 233 41q131 0 202 -50.5t71 -146.5q0 -57 -20.5 -103t-66.5 -83t-82 -57.5t-102 -53.5q-164 -80 -192 -141h209l28 63h136l-52 -227h-565z" />
<glyph unicode="&#xbe;" horiz-adv-x="1388" d="M12 -70l1329 1563h189l-1329 -1563h-189zM49 686l39 164h115q23 -74 112 -74q55 0 91 30t36 91q0 78 -106 78h-60l31 133h62q66 0 100.5 31.5t34.5 79.5q0 76 -86 75q-68 0 -115 -61h-113l41 172q121 39 222 39q125 0 195.5 -50.5t70.5 -136.5q0 -172 -193 -215v-4 q63 -10 100.5 -49t37.5 -98q0 -119 -92.5 -187.5t-252.5 -68.5q-164 0 -270 51zM651 205l37 155l432 428h219l-104 -452h92l-31 -131h-92l-10 -49q-4 -10 1 -21.5t15 -11.5h68l-29 -123h-403l28 123h60q8 0 20.5 11t14.5 22l10 49h-328zM825 336h191l57 252h-4l-244 -248v-4 z" />
<glyph unicode="&#xbf;" horiz-adv-x="876" d="M-53 145q0 129 69.5 220.5t206.5 177.5q92 59 128 83.5t85 66.5t66.5 81t21.5 90h172q0 -125 -35.5 -205.5t-160.5 -187.5q-6 -4 -49 -38t-64.5 -54.5t-54.5 -56t-48.5 -75.5t-15.5 -83q0 -53 33 -86t90 -33q123 0 199 125h178l-61 -270q-170 -63 -359 -64 q-190 0 -295.5 83t-105.5 226zM469 1128q0 72 54.5 121t125.5 49q70 0 115 -46t45 -113q0 -72 -53.5 -121t-124.5 -49q-70 0 -116 46.5t-46 112.5z" />
<glyph unicode="&#xc0;" d="M-102 0l39 170h45q57 0 94 63l553 961q37 63 -13 63h-118l41 177h604l114 -1207q4 -25 20.5 -41t37.5 -16h49l-39 -170h-604l39 170h186l-22 272h-488l-49 -88q-102 -184 27 -184h82l-39 -170h-559zM535 621h376l-45 591h-4zM664 1690l24 102h256l55 -283h-157z" />
<glyph unicode="&#xc1;" d="M-102 0l39 170h45q57 0 94 63l553 961q37 63 -13 63h-118l41 177h604l114 -1207q4 -25 20.5 -41t37.5 -16h49l-39 -170h-604l39 170h186l-22 272h-488l-49 -88q-102 -184 27 -184h82l-39 -170h-559zM535 621h376l-45 591h-4zM815 1509l100 283h302l-25 -102l-209 -181 h-168z" />
<glyph unicode="&#xc2;" d="M-102 0l39 170h45q57 0 94 63l553 961q37 63 -13 63h-118l41 177h604l114 -1207q4 -25 20.5 -41t37.5 -16h49l-39 -170h-604l39 170h186l-22 272h-488l-49 -88q-102 -184 27 -184h82l-39 -170h-559zM535 621h376l-45 591h-4zM641 1509l16 76l179 207h239l111 -207 l-17 -76h-104l-135 123l-185 -123h-104z" />
<glyph unicode="&#xc3;" d="M-102 0l39 170h45q57 0 94 63l553 961q37 63 -13 63h-118l41 177h604l114 -1207q4 -25 20.5 -41t37.5 -16h49l-39 -170h-604l39 170h186l-22 272h-488l-49 -88q-102 -184 27 -184h82l-39 -170h-559zM535 621h376l-45 591h-4zM563 1509l33 146q80 127 213 127 q53 0 152.5 -23.5t121.5 -23.5q59 0 93 57h141l-35 -145q-78 -131 -215 -131q-53 0 -151.5 27.5t-120.5 27.5q-59 0 -90 -62h-142z" />
<glyph unicode="&#xc4;" d="M-102 0l39 170h45q57 0 94 63l553 961q37 63 -13 63h-118l41 177h604l114 -1207q4 -25 20.5 -41t37.5 -16h49l-39 -170h-604l39 170h186l-22 272h-488l-49 -88q-102 -184 27 -184h82l-39 -170h-559zM535 621h376l-45 591h-4zM596 1663q0 63 48 107.5t111.5 44.5 t104.5 -42t41 -102q0 -63 -48 -107t-114 -44q-61 0 -102 41t-41 102zM985 1663q0 63 48 107.5t111.5 44.5t104.5 -42t41 -102q0 -63 -48 -107t-114 -44q-61 0 -102 41t-41 102z" />
<glyph unicode="&#xc5;" d="M-102 0l39 170h45q57 0 94 63l553 961q37 63 -13 63h-118l41 177h604l114 -1207q4 -25 20.5 -41t37.5 -16h49l-39 -170h-604l39 170h186l-22 272h-488l-49 -88q-102 -184 27 -184h82l-39 -170h-559zM535 621h376l-45 591h-4zM705 1712q0 98 66.5 157.5t158.5 59.5 q88 0 146.5 -54t58.5 -140q0 -100 -65.5 -158.5t-158.5 -58.5q-90 0 -148 53t-58 141zM813 1714q0 -47 26.5 -74.5t73.5 -27.5q49 0 82 31.5t33 85.5q0 47 -27.5 76.5t-74.5 29.5q-49 0 -81 -32t-32 -89z" />
<glyph unicode="&#xc6;" horiz-adv-x="1947" d="M-106 0l38 170h41q51 0 99 63l727 961q18 25 10 44t-33 19h-104l41 177h1394l-94 -410h-192l16 219h-422l-98 -426h176l55 164h185l-117 -506h-180l18 164h-178l-105 -455h443l86 252h203l-99 -436h-1132l39 170h137l61 272h-440l-70 -92q-63 -88 -54 -134t87 -46h74 l-39 -170h-573zM602 621h348l146 622h-23z" />
<glyph unicode="&#xc7;" horiz-adv-x="1253" d="M68 547q0 381 246.5 642t615.5 261q125 0 190 -16h285l-107 -463h-206l8 235q-82 35 -166 35q-233 0 -389 -188.5t-156 -507.5q0 -358 285 -359q113 0 188.5 38t155.5 118h153l-55 -236q-195 -123 -467 -122q-29 0 -82 4l-8 -39q68 -4 103.5 -39t35.5 -92 q0 -82 -66.5 -129t-176.5 -47q-96 0 -166 36l26 117h70q18 -31 66 -31q68 0 67 48q0 18 -18.5 30.5t-50.5 12.5h-39l34 153q-184 51 -280 190.5t-96 348.5z" />
<glyph unicode="&#xc8;" horiz-adv-x="1189" d="M-98 0l39 170h77q23 0 46.5 21.5t27.5 41.5l219 961q4 25 -4 44t-31 19h-88l41 177h1121l-95 -410h-192l16 219h-436l-98 -426h190l56 164h184l-117 -506h-180l18 164h-192l-105 -455h457l86 252h203l-98 -436h-1145zM582 1690l24 102h256l56 -283h-158z" />
<glyph unicode="&#xc9;" horiz-adv-x="1189" d="M-98 0l39 170h77q23 0 46.5 21.5t27.5 41.5l219 961q4 25 -4 44t-31 19h-88l41 177h1121l-95 -410h-192l16 219h-436l-98 -426h190l56 164h184l-117 -506h-180l18 164h-192l-105 -455h457l86 252h203l-98 -436h-1145zM733 1509l101 283h301l-25 -102l-209 -181h-168z" />
<glyph unicode="&#xca;" horiz-adv-x="1189" d="M-98 0l39 170h77q23 0 46.5 21.5t27.5 41.5l219 961q4 25 -4 44t-31 19h-88l41 177h1121l-95 -410h-192l16 219h-436l-98 -426h190l56 164h184l-117 -506h-180l18 164h-192l-105 -455h457l86 252h203l-98 -436h-1145zM559 1509l16 76l179 207h239l111 -207l-17 -76h-104 l-135 123l-184 -123h-105z" />
<glyph unicode="&#xcb;" horiz-adv-x="1189" d="M-98 0l39 170h77q23 0 46.5 21.5t27.5 41.5l219 961q4 25 -4 44t-31 19h-88l41 177h1121l-95 -410h-192l16 219h-436l-98 -426h190l56 164h184l-117 -506h-180l18 164h-192l-105 -455h457l86 252h203l-98 -436h-1145zM514 1663q0 63 48 107.5t111.5 44.5t104.5 -42 t41 -102q0 -63 -48 -107t-114 -44q-61 0 -102 41t-41 102zM903 1663q0 63 48 107.5t111.5 44.5t104.5 -42t41 -102q0 -63 -48 -107t-113 -44q-61 0 -102.5 41t-41.5 102z" />
<glyph unicode="&#xcc;" horiz-adv-x="669" d="M-98 0l39 170h94q20 0 43.5 21.5t27.5 41.5l220 961q4 23 -4.5 43t-28.5 20h-105l41 177h625l-41 -177h-94q-23 0 -45.5 -20t-26.5 -43l-219 -961q-6 -23 3 -43t30 -20h104l-39 -170h-624zM315 1690l25 102h256l55 -283h-157z" />
<glyph unicode="&#xcd;" horiz-adv-x="669" d="M-98 0l39 170h94q20 0 43.5 21.5t27.5 41.5l220 961q4 23 -4.5 43t-28.5 20h-105l41 177h625l-41 -177h-94q-23 0 -45.5 -20t-26.5 -43l-219 -961q-6 -23 3 -43t30 -20h104l-39 -170h-624zM467 1509l100 283h301l-24 -102l-209 -181h-168z" />
<glyph unicode="&#xce;" horiz-adv-x="669" d="M-98 0l39 170h94q20 0 43.5 21.5t27.5 41.5l220 961q4 23 -4.5 43t-28.5 20h-105l41 177h625l-41 -177h-94q-23 0 -45.5 -20t-26.5 -43l-219 -961q-6 -23 3 -43t30 -20h104l-39 -170h-624zM293 1509l16 76l178 207h240l111 -207l-17 -76h-104l-135 123l-185 -123h-104z " />
<glyph unicode="&#xcf;" horiz-adv-x="669" d="M-98 0l39 170h94q20 0 43.5 21.5t27.5 41.5l220 961q4 23 -4.5 43t-28.5 20h-105l41 177h625l-41 -177h-94q-23 0 -45.5 -20t-26.5 -43l-219 -961q-6 -23 3 -43t30 -20h104l-39 -170h-624zM248 1663q0 63 48 107.5t111.5 44.5t104.5 -42t41 -102q0 -63 -48 -107t-114 -44 q-61 0 -102 41t-41 102zM637 1663q0 63 48 107.5t111.5 44.5t104.5 -42t41 -102q0 -63 -48 -107t-114 -44q-61 0 -102 41t-41 102z" />
<glyph unicode="&#xd0;" horiz-adv-x="1402" d="M-98 0l39 170h77q23 0 46.5 21.5t27.5 41.5l88 385h-137l41 179h137l90 397q4 25 -4 44t-31 19h-88l41 177h549q309 0 477 -147.5t168 -430.5q0 -397 -238.5 -626.5t-652.5 -229.5h-630zM399 178h152q258 0 405.5 186.5t147.5 516.5q0 365 -367 364h-94l-102 -448h293 l-41 -179h-293z" />
<glyph unicode="&#xd1;" horiz-adv-x="1443" d="M-98 0l39 170h77q23 0 46.5 21.5t27.5 41.5l219 961q4 25 -4 44t-31 19h-88l41 177h459l348 -955h6l181 778h-160l41 177h528l-41 -177h-75q-20 0 -44 -20t-28 -43l-273 -1194h-270l-387 1034h-6l-197 -864h164l-39 -170h-534zM602 1509l33 146q80 127 213 127 q53 0 152.5 -23.5t121.5 -23.5q59 0 92 57h142l-35 -145q-78 -131 -215 -131q-53 0 -151.5 27.5t-120.5 27.5q-59 0 -91 -62h-141z" />
<glyph unicode="&#xd2;" horiz-adv-x="1429" d="M63 567q0 373 226.5 627t558.5 254q274 0 436 -155.5t162 -426.5q0 -389 -221 -635.5t-557 -246.5q-279 0 -442 153.5t-163 429.5zM383 557q0 -176 77 -272.5t216 -96.5q205 0 327.5 200t122.5 482q0 176 -74.5 271.5t-215.5 95.5q-205 0 -329 -196.5t-124 -483.5z M659 1710l25 102h256l55 -282h-157z" />
<glyph unicode="&#xd3;" horiz-adv-x="1429" d="M63 567q0 373 226.5 627t558.5 254q274 0 436 -155.5t162 -426.5q0 -389 -221 -635.5t-557 -246.5q-279 0 -442 153.5t-163 429.5zM383 557q0 -176 77 -272.5t216 -96.5q205 0 327.5 200t122.5 482q0 176 -74.5 271.5t-215.5 95.5q-205 0 -329 -196.5t-124 -483.5z M811 1530l100 282h301l-24 -102l-209 -180h-168z" />
<glyph unicode="&#xd4;" horiz-adv-x="1429" d="M63 567q0 373 226.5 627t558.5 254q274 0 436 -155.5t162 -426.5q0 -389 -221 -635.5t-557 -246.5q-279 0 -442 153.5t-163 429.5zM383 557q0 -176 77 -272.5t216 -96.5q205 0 327.5 200t122.5 482q0 176 -74.5 271.5t-215.5 95.5q-205 0 -329 -196.5t-124 -483.5z M637 1530l16 76l178 206h240l111 -206l-17 -76h-104l-135 123l-185 -123h-104z" />
<glyph unicode="&#xd5;" horiz-adv-x="1429" d="M63 567q0 373 226.5 627t558.5 254q274 0 436 -155.5t162 -426.5q0 -389 -221 -635.5t-557 -246.5q-279 0 -442 153.5t-163 429.5zM383 557q0 -176 77 -272.5t216 -96.5q205 0 327.5 200t122.5 482q0 176 -74.5 271.5t-215.5 95.5q-205 0 -329 -196.5t-124 -483.5z M559 1530l33 145q80 127 213 127q53 0 152.5 -23.5t121.5 -23.5q59 0 92 57h142l-35 -145q-78 -131 -215 -131q-53 0 -151.5 27.5t-120.5 27.5q-59 0 -91 -61h-141z" />
<glyph unicode="&#xd6;" horiz-adv-x="1429" d="M63 567q0 373 226.5 627t558.5 254q274 0 436 -155.5t162 -426.5q0 -389 -221 -635.5t-557 -246.5q-279 0 -442 153.5t-163 429.5zM383 557q0 -176 77 -272.5t216 -96.5q205 0 327.5 200t122.5 482q0 176 -74.5 271.5t-215.5 95.5q-205 0 -329 -196.5t-124 -483.5z M580 1628q0 63 48 107.5t111.5 44.5t104.5 -42t41 -102q0 -63 -48.5 -107t-113.5 -44q-61 0 -102 41t-41 102zM969 1628q0 63 48 107.5t111.5 44.5t104.5 -42t41 -102q0 -63 -48 -107t-114 -44q-61 0 -102 41t-41 102z" />
<glyph unicode="&#xd7;" horiz-adv-x="1050" d="M57 397l355 303l-236 304l182 147l230 -299l350 299l129 -160l-352 -303l233 -303l-178 -147l-231 299l-349 -299z" />
<glyph unicode="&#xd8;" horiz-adv-x="1429" d="M-31 -59l217 239q-123 147 -123 387q0 373 226.5 627t558.5 254q236 0 385 -113l129 142h182l-215 -236q117 -147 117 -375q0 -389 -221 -635.5t-557 -246.5q-233 0 -383 104l-133 -147h-183zM377 557q0 -90 16 -147l664 729q-80 98 -221 98q-207 0 -333 -197.5 t-126 -482.5zM459 281q78 -92 217 -93q207 0 332 201t125 481q0 68 -15 136z" />
<glyph unicode="&#xd9;" horiz-adv-x="1445" d="M168 549l145 645q4 25 -4 44t-30 19h-91l41 177h621l-41 -177h-162l-168 -743q-41 -182 21.5 -254t199.5 -72q158 0 235 76t120 262l166 731h-162l41 177h532l-41 -177h-78q-23 0 -46 -20t-27 -43l-160 -692q-41 -172 -106.5 -281.5t-188.5 -173t-307 -63.5 q-305 0 -437 149.5t-73 415.5zM727 1690l25 102h256l55 -283h-158z" />
<glyph unicode="&#xda;" horiz-adv-x="1445" d="M168 549l145 645q4 25 -4 44t-30 19h-91l41 177h621l-41 -177h-162l-168 -743q-41 -182 21.5 -254t199.5 -72q158 0 235 76t120 262l166 731h-162l41 177h532l-41 -177h-78q-23 0 -46 -20t-27 -43l-160 -692q-41 -172 -106.5 -281.5t-188.5 -173t-307 -63.5 q-305 0 -437 149.5t-73 415.5zM879 1509l100 283h301l-25 -102l-208 -181h-168z" />
<glyph unicode="&#xdb;" horiz-adv-x="1445" d="M168 549l145 645q4 25 -4 44t-30 19h-91l41 177h621l-41 -177h-162l-168 -743q-41 -182 21.5 -254t199.5 -72q158 0 235 76t120 262l166 731h-162l41 177h532l-41 -177h-78q-23 0 -46 -20t-27 -43l-160 -692q-41 -172 -106.5 -281.5t-188.5 -173t-307 -63.5 q-305 0 -437 149.5t-73 415.5zM705 1509l16 76l178 207h240l110 -207l-16 -76h-105l-135 123l-184 -123h-104z" />
<glyph unicode="&#xdc;" horiz-adv-x="1445" d="M168 549l145 645q4 25 -4 44t-30 19h-91l41 177h621l-41 -177h-162l-168 -743q-41 -182 21.5 -254t199.5 -72q158 0 235 76t120 262l166 731h-162l41 177h532l-41 -177h-78q-23 0 -46 -20t-27 -43l-160 -692q-41 -172 -106.5 -281.5t-188.5 -173t-307 -63.5 q-305 0 -437 149.5t-73 415.5zM659 1663q0 63 48.5 107.5t112 44.5t104.5 -42t41 -102q0 -63 -48.5 -107t-113.5 -44q-61 0 -102.5 41t-41.5 102zM1049 1663q0 63 48 107.5t111.5 44.5t104.5 -42t41 -102q0 -63 -48.5 -107t-113.5 -44q-61 0 -102 41t-41 102z" />
<glyph unicode="&#xdd;" horiz-adv-x="1341" d="M188 1257l41 177h580l-41 -177h-162l185 -473h4l249 330q49 70 37 106.5t-80 36.5h-53l41 177h541l-41 -177h-35q-49 0 -94 -55l-502 -620l-78 -349q-6 -23 4.5 -43t30.5 -20h100l-38 -170h-619l39 170h90q23 0 46.5 21.5t27.5 41.5l82 371l-252 606q-20 47 -49 47h-54z M817 1509l101 283h301l-25 -102l-209 -181h-168z" />
<glyph unicode="&#xde;" horiz-adv-x="1222" d="M-98 0l39 170h77q23 0 46.5 21.5t27.5 41.5l219 961q4 25 -4 44t-31 19h-88l41 177h621l-41 -177h-162l-35 -149h131q498 0 498 -320q0 -227 -170 -340.5t-444 -113.5h-193l-37 -164h178l-38 -170h-635zM473 512h172q135 0 200.5 66.5t65.5 179.5q0 82 -48 122t-152 40 h-144z" />
<glyph unicode="&#xdf;" horiz-adv-x="1230" d="M-203 -332l37 160q123 33 162 219l215 1008q39 178 181.5 288.5t387.5 110.5q174 0 301 -73.5t127 -198.5q0 -78 -47 -136.5t-137 -119.5q-104 -70 -158.5 -117t-54.5 -80q0 -8 2 -15t9 -16.5t13.5 -15.5t22.5 -18.5t29.5 -21.5t40 -28.5t49.5 -35.5q53 -39 86 -70 t62.5 -84t29.5 -111q0 -141 -120 -233t-314 -92q-156 0 -295 67l53 226h158q18 -117 123 -117q51 0 88 25.5t37 72.5q0 16 -7.5 30.5t-23.5 30t-29.5 25.5t-43 29.5t-44.5 30.5q-100 72 -139 118.5t-39 122.5q0 135 193 297q78 66 112.5 111t34.5 92q0 49 -38 78.5 t-101 29.5q-199 0 -246 -213l-223 -1003q-66 -285 -301 -373h-193z" />
<glyph unicode="&#xe0;" horiz-adv-x="1052" d="M-16 266q0 174 127 273.5t340 99.5q100 0 192 -27l27 115q16 76 -22 118t-132 42q-61 0 -107.5 -15.5t-68 -30t-61.5 -48.5h-138l56 239q182 59 376 60q229 0 333 -94.5t61 -276.5l-115 -500q-4 -18 8 -34.5t31 -16.5h57l-30 -143q-78 -41 -179 -41q-168 0 -188 139 q-119 -137 -285 -137q-131 0 -206.5 70.5t-75.5 207.5zM264 291q0 -127 123 -127q90 0 172 86l49 215q-78 16 -133 16q-100 0 -155.5 -54t-55.5 -136zM387 1331l25 103h256l55 -283h-158z" />
<glyph unicode="&#xe1;" horiz-adv-x="1052" d="M-16 266q0 174 127 273.5t340 99.5q100 0 192 -27l27 115q16 76 -22 118t-132 42q-61 0 -107.5 -15.5t-68 -30t-61.5 -48.5h-138l56 239q182 59 376 60q229 0 333 -94.5t61 -276.5l-115 -500q-4 -18 8 -34.5t31 -16.5h57l-30 -143q-78 -41 -179 -41q-168 0 -188 139 q-119 -137 -285 -137q-131 0 -206.5 70.5t-75.5 207.5zM264 291q0 -127 123 -127q90 0 172 86l49 215q-78 16 -133 16q-100 0 -155.5 -54t-55.5 -136zM539 1151l100 283h301l-25 -103l-208 -180h-168z" />
<glyph unicode="&#xe2;" horiz-adv-x="1052" d="M-16 266q0 174 127 273.5t340 99.5q100 0 192 -27l27 115q16 76 -22 118t-132 42q-61 0 -107.5 -15.5t-68 -30t-61.5 -48.5h-138l56 239q182 59 376 60q229 0 333 -94.5t61 -276.5l-115 -500q-4 -18 8 -34.5t31 -16.5h57l-30 -143q-78 -41 -179 -41q-168 0 -188 139 q-119 -137 -285 -137q-131 0 -206.5 70.5t-75.5 207.5zM264 291q0 -127 123 -127q90 0 172 86l49 215q-78 16 -133 16q-100 0 -155.5 -54t-55.5 -136zM365 1151l16 76l178 207h240l110 -207l-16 -76h-105l-135 123l-184 -123h-104z" />
<glyph unicode="&#xe3;" horiz-adv-x="1052" d="M-16 266q0 174 127 273.5t340 99.5q100 0 192 -27l27 115q16 76 -22 118t-132 42q-61 0 -107.5 -15.5t-68 -30t-61.5 -48.5h-138l56 239q182 59 376 60q229 0 333 -94.5t61 -276.5l-115 -500q-4 -18 8 -34.5t31 -16.5h57l-30 -143q-78 -41 -179 -41q-168 0 -188 139 q-119 -137 -285 -137q-131 0 -206.5 70.5t-75.5 207.5zM264 291q0 -127 123 -127q90 0 172 86l49 215q-78 16 -133 16q-100 0 -155.5 -54t-55.5 -136zM287 1151l32 145q80 127 213 127q53 0 152.5 -23.5t122.5 -23.5q59 0 92 58h141l-34 -146q-78 -131 -215 -131 q-53 0 -151.5 27.5t-121.5 27.5q-59 0 -90 -61h-141z" />
<glyph unicode="&#xe4;" horiz-adv-x="1052" d="M-16 266q0 174 127 273.5t340 99.5q100 0 192 -27l27 115q16 76 -22 118t-132 42q-61 0 -107.5 -15.5t-68 -30t-61.5 -48.5h-138l56 239q182 59 376 60q229 0 333 -94.5t61 -276.5l-115 -500q-4 -18 8 -34.5t31 -16.5h57l-30 -143q-78 -41 -179 -41q-168 0 -188 139 q-119 -137 -285 -137q-131 0 -206.5 70.5t-75.5 207.5zM264 291q0 -127 123 -127q90 0 172 86l49 215q-78 16 -133 16q-100 0 -155.5 -54t-55.5 -136zM319 1305q0 63 48.5 107t112 44t104.5 -42t41 -101q0 -63 -48.5 -107.5t-113.5 -44.5q-61 0 -102.5 41.5t-41.5 102.5z M709 1305q0 63 48 107t111.5 44t104.5 -42t41 -101q0 -63 -48 -107.5t-114 -44.5q-61 0 -102 41.5t-41 102.5z" />
<glyph unicode="&#xe5;" horiz-adv-x="1052" d="M-16 266q0 174 127 273.5t340 99.5q100 0 192 -27l27 115q16 76 -22 118t-132 42q-61 0 -107.5 -15.5t-68 -30t-61.5 -48.5h-138l56 239q182 59 376 60q229 0 333 -94.5t61 -276.5l-115 -500q-4 -18 8 -34.5t31 -16.5h57l-30 -143q-78 -41 -179 -41q-168 0 -188 139 q-119 -137 -285 -137q-131 0 -206.5 70.5t-75.5 207.5zM264 291q0 -127 123 -127q90 0 172 86l49 215q-78 16 -133 16q-100 0 -155.5 -54t-55.5 -136zM428 1354q0 98 66.5 157.5t158.5 59.5q88 0 146.5 -54.5t58.5 -140.5q0 -100 -65.5 -158.5t-157.5 -58.5 q-90 0 -148.5 53.5t-58.5 141.5zM537 1356q0 -47 26.5 -75t73.5 -28q49 0 82 32t33 85q0 47 -28 77t-75 30q-49 0 -80.5 -32t-31.5 -89z" />
<glyph unicode="&#xe6;" horiz-adv-x="1589" d="M-16 279q0 168 118.5 264t327.5 96q106 0 201 -21l24 109q16 76 -17.5 118t-121.5 42q-31 0 -58.5 -4t-45 -8.5t-40 -15.5t-31.5 -17t-30.5 -22.5t-29.5 -20.5h-138l54 233q182 59 376 60q236 0 304 -123q147 123 354 123q172 0 272.5 -80t100.5 -209 q0 -193 -174.5 -270.5t-532.5 -94.5q0 -145 43 -205.5t156 -60.5q137 0 209 107h157l-51 -224q-162 -70 -346 -69q-297 0 -403 190q-139 -188 -373 -188q-147 0 -226 75t-79 216zM264 291q0 -127 123 -127q125 0 231 123q-12 57 -12 131v53q-51 10 -151 10q-96 0 -143.5 -53 t-47.5 -137zM915 600q215 12 311.5 54t96.5 137q0 55 -30.5 88.5t-90.5 33.5q-109 0 -182.5 -86t-104.5 -227z" />
<glyph unicode="&#xe7;" horiz-adv-x="950" d="M18 391q0 305 188.5 503t463.5 198q203 0 344 -68l-53 -231h-152q-20 53 -54 80.5t-106 27.5q-152 0 -246 -155.5t-94 -364.5t180 -209q133 0 205 115h162l-53 -232q-162 -70 -332 -69q-25 0 -65 4l-7 -41q68 -4 104 -39t36 -92q0 -82 -66.5 -129t-177.5 -47 q-96 0 -166 36l27 117h69q18 -31 66 -31q68 0 67 48q0 18 -18 30.5t-51 12.5h-39l33 155q-265 84 -265 381z" />
<glyph unicode="&#xe8;" horiz-adv-x="1005" d="M23 418q0 279 185 476.5t439 197.5q172 0 272.5 -80t100.5 -209q0 -102 -47 -173t-143.5 -113t-220.5 -63.5t-296 -29.5q0 -252 181 -252q143 0 229 115h158l-54 -232q-147 -70 -350 -69q-221 0 -337.5 114.5t-116.5 317.5zM332 592q213 14 310 59t97 140 q0 55 -30.5 88.5t-90.5 33.5q-109 0 -183 -90t-103 -231zM410 1331l24 103h256l55 -283h-157z" />
<glyph unicode="&#xe9;" horiz-adv-x="1005" d="M23 418q0 279 185 476.5t439 197.5q172 0 272.5 -80t100.5 -209q0 -102 -47 -173t-143.5 -113t-220.5 -63.5t-296 -29.5q0 -252 181 -252q143 0 229 115h158l-54 -232q-147 -70 -350 -69q-221 0 -337.5 114.5t-116.5 317.5zM332 592q213 14 310 59t97 140 q0 55 -30.5 88.5t-90.5 33.5q-109 0 -183 -90t-103 -231zM561 1151l101 283h301l-25 -103l-209 -180h-168z" />
<glyph unicode="&#xea;" horiz-adv-x="1005" d="M23 418q0 279 185 476.5t439 197.5q172 0 272.5 -80t100.5 -209q0 -102 -47 -173t-143.5 -113t-220.5 -63.5t-296 -29.5q0 -252 181 -252q143 0 229 115h158l-54 -232q-147 -70 -350 -69q-221 0 -337.5 114.5t-116.5 317.5zM332 592q213 14 310 59t97 140 q0 55 -30.5 88.5t-90.5 33.5q-109 0 -183 -90t-103 -231zM387 1151l16 76l179 207h239l111 -207l-17 -76h-104l-135 123l-184 -123h-105z" />
<glyph unicode="&#xeb;" horiz-adv-x="1005" d="M23 418q0 279 185 476.5t439 197.5q172 0 272.5 -80t100.5 -209q0 -102 -47 -173t-143.5 -113t-220.5 -63.5t-296 -29.5q0 -252 181 -252q143 0 229 115h158l-54 -232q-147 -70 -350 -69q-221 0 -337.5 114.5t-116.5 317.5zM332 592q213 14 310 59t97 140 q0 55 -30.5 88.5t-90.5 33.5q-109 0 -183 -90t-103 -231zM342 1305q0 63 48 107t111.5 44t104.5 -42t41 -101q0 -63 -48 -107.5t-114 -44.5q-61 0 -102 41.5t-41 102.5zM731 1305q0 63 48 107t111.5 44t104.5 -42t41 -101q0 -63 -48 -107.5t-114 -44.5q-61 0 -102 41.5 t-41 102.5z" />
<glyph unicode="&#xec;" horiz-adv-x="565" d="M66 238l139 602q4 18 -7.5 36.5t-29.5 18.5h-72l35 160q94 33 213 32q104 0 148.5 -55t19.5 -164l-150 -647q-4 -18 8.5 -34.5t30.5 -16.5h62l-33 -152q-78 -33 -182 -32q-123 0 -166 67.5t-16 184.5zM162 1331l24 103h256l56 -283h-158z" />
<glyph unicode="&#xed;" horiz-adv-x="565" d="M66 238l139 602q4 18 -7.5 36.5t-29.5 18.5h-72l35 160q94 33 213 32q104 0 148.5 -55t19.5 -164l-150 -647q-4 -18 8.5 -34.5t30.5 -16.5h62l-33 -152q-78 -33 -182 -32q-123 0 -166 67.5t-16 184.5zM313 1151l101 283h301l-25 -103l-209 -180h-168z" />
<glyph unicode="&#xee;" horiz-adv-x="565" d="M66 238l139 602q4 18 -7.5 36.5t-29.5 18.5h-72l35 160q94 33 213 32q104 0 148.5 -55t19.5 -164l-150 -647q-4 -18 8.5 -34.5t30.5 -16.5h62l-33 -152q-78 -33 -182 -32q-123 0 -166 67.5t-16 184.5zM139 1151l17 76l178 207h239l111 -207l-16 -76h-105l-135 123 l-184 -123h-105z" />
<glyph unicode="&#xef;" horiz-adv-x="565" d="M66 238l139 602q4 18 -7.5 36.5t-29.5 18.5h-72l35 160q94 33 213 32q104 0 148.5 -55t19.5 -164l-150 -647q-4 -18 8.5 -34.5t30.5 -16.5h62l-33 -152q-78 -33 -182 -32q-123 0 -166 67.5t-16 184.5zM94 1305q0 63 48 107t111.5 44t104.5 -42t41 -101q0 -63 -48 -107.5 t-113 -44.5q-61 0 -102.5 41.5t-41.5 102.5zM483 1305q0 63 48.5 107t112 44t104 -42t40.5 -101q0 -63 -48 -107.5t-113 -44.5q-61 0 -102.5 41.5t-41.5 102.5z" />
<glyph unicode="&#xf0;" horiz-adv-x="1095" d="M18 444q0 252 159 422t347 170q141 0 219 -78q-51 119 -153 195l-92 -70h-152l12 50l113 86q-39 14 -78 24l45 191h101q88 -31 137 -56l69 56h152l-10 -50l-94 -73q295 -209 294 -627q0 -334 -169.5 -515t-430.5 -181q-221 0 -345 122.5t-124 333.5zM311 410 q0 -236 189 -236q135 0 214 136t79 321q0 223 -187 223q-133 0 -214 -132t-81 -312z" />
<glyph unicode="&#xf1;" horiz-adv-x="1187" d="M20 72l177 768q4 18 -7.5 36.5t-29.5 18.5h-64l35 160q94 33 203 32q182 0 170 -194q215 199 418 199q133 0 183 -77t21 -200l-137 -594q-4 -18 8.5 -34.5t30.5 -16.5h57l-32 -152q-78 -33 -176 -32q-123 0 -166 67.5t-17 184.5l117 510q25 115 -66 114q-119 0 -268 -108 l-172 -754h-235q-29 0 -43.5 20.5t-6.5 51.5zM369 1151l32 145q80 127 213 127q53 0 152.5 -23.5t122.5 -23.5q59 0 92 58h141l-35 -146q-78 -131 -215 -131q-53 0 -151 27.5t-121 27.5q-59 0 -90 -61h-141z" />
<glyph unicode="&#xf2;" horiz-adv-x="1101" d="M18 444q0 289 177.5 468.5t420.5 179.5q221 0 344 -123t123 -334q0 -291 -171 -469t-425 -178q-221 0 -345 122.5t-124 333.5zM311 410q0 -236 189 -236q133 0 213 142.5t80 342.5q0 236 -187 236q-129 0 -212 -144t-83 -341zM403 1331l25 103h256l55 -283h-157z" />
<glyph unicode="&#xf3;" horiz-adv-x="1101" d="M18 444q0 289 177.5 468.5t420.5 179.5q221 0 344 -123t123 -334q0 -291 -171 -469t-425 -178q-221 0 -345 122.5t-124 333.5zM311 410q0 -236 189 -236q133 0 213 142.5t80 342.5q0 236 -187 236q-129 0 -212 -144t-83 -341zM555 1151l100 283h301l-24 -103l-209 -180 h-168z" />
<glyph unicode="&#xf4;" horiz-adv-x="1101" d="M18 444q0 289 177.5 468.5t420.5 179.5q221 0 344 -123t123 -334q0 -291 -171 -469t-425 -178q-221 0 -345 122.5t-124 333.5zM311 410q0 -236 189 -236q133 0 213 142.5t80 342.5q0 236 -187 236q-129 0 -212 -144t-83 -341zM381 1151l16 76l178 207h240l111 -207 l-17 -76h-104l-135 123l-185 -123h-104z" />
<glyph unicode="&#xf5;" horiz-adv-x="1101" d="M18 444q0 289 177.5 468.5t420.5 179.5q221 0 344 -123t123 -334q0 -291 -171 -469t-425 -178q-221 0 -345 122.5t-124 333.5zM303 1151l33 145q80 127 213 127q53 0 152.5 -23.5t121.5 -23.5q59 0 92 58h142l-35 -146q-78 -131 -215 -131q-53 0 -151.5 27.5t-120.5 27.5 q-59 0 -91 -61h-141zM311 410q0 -236 189 -236q133 0 213 142.5t80 342.5q0 236 -187 236q-129 0 -212 -144t-83 -341z" />
<glyph unicode="&#xf6;" horiz-adv-x="1101" d="M18 444q0 289 177.5 468.5t420.5 179.5q221 0 344 -123t123 -334q0 -291 -171 -469t-425 -178q-221 0 -345 122.5t-124 333.5zM311 410q0 -236 189 -236q133 0 213 142.5t80 342.5q0 236 -187 236q-129 0 -212 -144t-83 -341zM336 1305q0 63 48 107t111.5 44t104.5 -42 t41 -101q0 -63 -48 -107.5t-114 -44.5q-61 0 -102 41.5t-41 102.5zM725 1305q0 63 48 107t111.5 44t104.5 -42t41 -101q0 -63 -48 -107.5t-114 -44.5q-61 0 -102 41.5t-41 102.5z" />
<glyph unicode="&#xf7;" horiz-adv-x="1042" d="M45 590l55 235h977l-55 -235h-977zM328 336q0 72 53 121t125 49q70 0 116 -47t46 -113q0 -72 -54.5 -121t-126.5 -49q-70 0 -114.5 46t-44.5 114zM457 1069q0 72 53 121t125 49q70 0 116 -47t46 -113q0 -72 -54.5 -121t-126.5 -49q-70 0 -114.5 46t-44.5 114z" />
<glyph unicode="&#xf8;" horiz-adv-x="1101" d="M-68 -59l183 200q-96 119 -97 305q0 283 177.5 464.5t420.5 181.5q172 0 291 -80l97 106h167l-174 -192q86 -119 86 -291q0 -285 -172 -466t-424 -181q-166 0 -278 71l-109 -118h-168zM305 410l4 -56l439 484q-51 57 -138 57q-133 0 -219 -146t-86 -339zM362 227 q49 -53 138 -53q137 0 218 144.5t81 343.5l-2 43z" />
<glyph unicode="&#xf9;" horiz-adv-x="1179" d="M72 313l121 527q4 18 -7.5 36.5t-29.5 18.5h-60l35 160q100 35 199 35q111 0 149.5 -69t12.5 -183l-117 -510q-27 -123 76 -123q104 0 243 94l178 776h236q29 0 43 -20.5t6 -50.5l-180 -783q-4 -18 8 -34.5t31 -16.5h61l-33 -152q-78 -33 -180 -32q-100 0 -147 41 t-45 129q-182 -172 -377 -172q-141 0 -198.5 92t-24.5 237zM465 1331l24 103h256l56 -283h-158z" />
<glyph unicode="&#xfa;" horiz-adv-x="1179" d="M72 313l121 527q4 18 -7.5 36.5t-29.5 18.5h-60l35 160q100 35 199 35q111 0 149.5 -69t12.5 -183l-117 -510q-27 -123 76 -123q104 0 243 94l178 776h236q29 0 43 -20.5t6 -50.5l-180 -783q-4 -18 8 -34.5t31 -16.5h61l-33 -152q-78 -33 -180 -32q-100 0 -147 41 t-45 129q-182 -172 -377 -172q-141 0 -198.5 92t-24.5 237zM616 1151l101 283h301l-25 -103l-209 -180h-168z" />
<glyph unicode="&#xfb;" horiz-adv-x="1179" d="M72 313l121 527q4 18 -7.5 36.5t-29.5 18.5h-60l35 160q100 35 199 35q111 0 149.5 -69t12.5 -183l-117 -510q-27 -123 76 -123q104 0 243 94l178 776h236q29 0 43 -20.5t6 -50.5l-180 -783q-4 -18 8 -34.5t31 -16.5h61l-33 -152q-78 -33 -180 -32q-100 0 -147 41 t-45 129q-182 -172 -377 -172q-141 0 -198.5 92t-24.5 237zM442 1151l17 76l178 207h240l110 -207l-16 -76h-105l-135 123l-184 -123h-105z" />
<glyph unicode="&#xfc;" horiz-adv-x="1179" d="M72 313l121 527q4 18 -7.5 36.5t-29.5 18.5h-60l35 160q100 35 199 35q111 0 149.5 -69t12.5 -183l-117 -510q-27 -123 76 -123q104 0 243 94l178 776h236q29 0 43 -20.5t6 -50.5l-180 -783q-4 -18 8 -34.5t31 -16.5h61l-33 -152q-78 -33 -180 -32q-100 0 -147 41 t-45 129q-182 -172 -377 -172q-141 0 -198.5 92t-24.5 237zM397 1305q0 63 48.5 107t112 44t104 -42t40.5 -101q0 -63 -48 -107.5t-113 -44.5q-61 0 -102.5 41.5t-41.5 102.5zM786 1305q0 63 48.5 107t112 44t104.5 -42t41 -101q0 -63 -48.5 -107.5t-113.5 -44.5 q-61 0 -102.5 41.5t-41.5 102.5z" />
<glyph unicode="&#xfd;" horiz-adv-x="1148" d="M-41 -295l53 219h172q49 -100 189 -100q215 0 258 186l41 180q-164 -145 -357 -145q-143 0 -204.5 86t-28.5 227l111 482q4 18 -7.5 36.5t-29.5 18.5h-60l35 160q100 35 199 35q111 0 149.5 -69t12.5 -183l-107 -465q-27 -123 76 -123q106 0 246 94l165 731h236 q29 0 43 -20.5t6 -50.5l-223 -965q-47 -205 -189.5 -298t-396.5 -93q-233 0 -389 57zM600 1151l100 283h301l-24 -103l-209 -180h-168z" />
<glyph unicode="&#xfe;" horiz-adv-x="1146" d="M-233 -332l36 160h72q18 0 38.5 16.5t25.5 34.5l301 1323q4 16 -8.5 35.5t-30.5 19.5h-64l41 177h363q51 0 34 -70l-100 -442q164 172 359 172q137 0 220 -92.5t83 -272.5q0 -137 -47.5 -285.5t-139.5 -250.5q-152 -172 -387 -173q-174 0 -274 89l-64 -281h137l-36 -160 h-559zM317 233q70 -39 175 -38q170 0 259 143t89 346q0 94 -42 145.5t-114 51.5q-125 0 -242 -103z" />
<glyph unicode="&#xff;" horiz-adv-x="1148" d="M-41 -295l53 219h172q49 -100 189 -100q215 0 258 186l41 180q-164 -145 -357 -145q-143 0 -204.5 86t-28.5 227l111 482q4 18 -7.5 36.5t-29.5 18.5h-60l35 160q100 35 199 35q111 0 149.5 -69t12.5 -183l-107 -465q-27 -123 76 -123q106 0 246 94l165 731h236 q29 0 43 -20.5t6 -50.5l-223 -965q-47 -205 -189.5 -298t-396.5 -93q-233 0 -389 57zM381 1305q0 63 48 107t111.5 44t104.5 -42t41 -101q0 -63 -48 -107.5t-114 -44.5q-61 0 -102 41.5t-41 102.5zM770 1305q0 63 48 107t111.5 44t104.5 -42t41 -101q0 -63 -48 -107.5 t-114 -44.5q-61 0 -102 41.5t-41 102.5z" />
<glyph unicode="&#x152;" horiz-adv-x="1933" d="M66 578q0 393 245.5 624.5t649.5 231.5h1132l-94 -410h-193l17 219h-424l-99 -426h179l55 164h184l-116 -506h-181l19 164h-180l-105 -455h444l87 252h202l-98 -436h-1075q-309 0 -479 147.5t-170 430.5zM389 551q0 -367 367 -367h82l241 1059h-139q-258 0 -404.5 -182 t-146.5 -510z" />
<glyph unicode="&#x153;" horiz-adv-x="1746" d="M18 444q0 289 175.5 468.5t418.5 179.5q254 0 351 -185q162 184 426 185q172 0 272 -80t100 -209q0 -102 -47 -173t-143 -113t-220 -63.5t-296 -29.5q0 -135 43 -193.5t155 -58.5q137 0 209 107h158l-51 -224q-162 -70 -346 -69q-256 0 -355 159q-145 -158 -385 -157 q-221 0 -343 122.5t-122 333.5zM311 410q0 -236 185 -236q137 0 211.5 140.5t74.5 344.5q0 236 -180 236q-133 0 -212 -142t-79 -343zM1073 592q213 14 310.5 59t97.5 140q0 55 -31 88.5t-90 33.5q-111 0 -184.5 -88t-102.5 -233z" />
<glyph unicode="&#x178;" horiz-adv-x="1341" d="M188 1257l41 177h580l-41 -177h-162l185 -473h4l249 330q49 70 37 106.5t-80 36.5h-53l41 177h541l-41 -177h-35q-49 0 -94 -55l-502 -620l-78 -349q-6 -23 4.5 -43t30.5 -20h100l-38 -170h-619l39 170h90q23 0 46.5 21.5t27.5 41.5l82 371l-252 606q-20 47 -49 47h-54z M598 1663q0 63 48 107.5t111.5 44.5t104.5 -42t41 -102q0 -63 -48 -107t-114 -44q-61 0 -102 41t-41 102zM987 1663q0 63 48 107.5t111.5 44.5t104.5 -42t41 -102q0 -63 -48 -107t-114 -44q-61 0 -102 41t-41 102z" />
<glyph unicode="&#x2c6;" horiz-adv-x="819" d="M287 1151l16 76l178 207h240l110 -207l-16 -76h-104l-136 123l-184 -123h-104z" />
<glyph unicode="&#x2dc;" horiz-adv-x="819" d="M209 1151l33 145q80 127 213 127q53 0 152.5 -23.5t121.5 -23.5q59 0 92 58h142l-35 -146q-78 -131 -215 -131q-53 0 -151.5 27.5t-121.5 27.5q-59 0 -90 -61h-141z" />
<glyph unicode="&#x2000;" horiz-adv-x="964" />
<glyph unicode="&#x2001;" horiz-adv-x="1929" />
<glyph unicode="&#x2002;" horiz-adv-x="964" />
<glyph unicode="&#x2003;" horiz-adv-x="1929" />
<glyph unicode="&#x2004;" horiz-adv-x="643" />
<glyph unicode="&#x2005;" horiz-adv-x="482" />
<glyph unicode="&#x2006;" horiz-adv-x="321" />
<glyph unicode="&#x2007;" horiz-adv-x="321" />
<glyph unicode="&#x2008;" horiz-adv-x="241" />
<glyph unicode="&#x2009;" horiz-adv-x="385" />
<glyph unicode="&#x200a;" horiz-adv-x="107" />
<glyph unicode="&#x2013;" horiz-adv-x="1024" d="M205 512v205h614v-205h-614z" />
<glyph unicode="&#x2014;" horiz-adv-x="2048" d="M205 512v205h1638v-205h-1638z" />
<glyph unicode="&#x2018;" horiz-adv-x="374" d="M160 1087q0 162 108.5 253.5t292.5 99.5l-29 -127q-63 -6 -103 -28.5t-40 -51.5q0 -6 1 -11t3 -8.5t6 -7.5t7.5 -6t11.5 -6t12 -8q49 -33 49 -96q0 -70 -48 -116t-114 -46q-68 0 -112.5 43.5t-44.5 115.5z" />
<glyph unicode="&#x2019;" horiz-adv-x="374" d="M117 936l28 127q63 6 103.5 28.5t40.5 51.5q0 6 -1 11t-3 8t-6.5 7.5t-7.5 6.5t-11 6t-12 8q-49 33 -49 96q0 70 48 116t113 46q68 0 113 -44t45 -116q0 -162 -108.5 -253t-292.5 -99z" />
<glyph unicode="&#x201a;" horiz-adv-x="372" d="M-147 -203l28 127q63 6 103.5 28.5t40.5 51.5q0 6 -1 11t-3.5 8.5t-6.5 7.5t-7 6t-11 6t-12 8q-49 33 -50 96q0 70 48.5 116t113.5 46q68 0 113 -44t45 -115q0 -162 -108.5 -253.5t-292.5 -99.5z" />
<glyph unicode="&#x201c;" horiz-adv-x="747" d="M160 1087q0 162 108.5 253.5t292.5 99.5l-29 -127q-63 -6 -103 -28.5t-40 -51.5q0 -6 1 -11t3 -8.5t6 -7.5t7.5 -6t11.5 -6t12 -8q49 -33 49 -96q0 -70 -48 -116t-114 -46q-68 0 -112.5 43.5t-44.5 115.5zM532 1087q0 162 109 253.5t293 99.5l-29 -127q-63 -6 -103 -28.5 t-40 -51.5q0 -6 1 -11t3 -8.5t6 -7.5t7 -6t11.5 -6t12.5 -8q49 -33 49 -96q0 -70 -48 -116t-114 -46q-68 0 -113 43.5t-45 115.5z" />
<glyph unicode="&#x201d;" horiz-adv-x="747" d="M117 936l28 127q63 6 103.5 28.5t40.5 51.5q0 6 -1 11t-3 8t-6.5 7.5t-7.5 6.5t-11 6t-12 8q-49 33 -49 96q0 70 48 116t113 46q68 0 113 -44t45 -116q0 -162 -108.5 -253t-292.5 -99zM489 936l29 127q63 6 103.5 28.5t40.5 51.5q0 6 -1.5 11t-3.5 8t-6 7.5t-7 6.5t-11 6 t-12 8q-49 33 -50 96q0 70 48.5 116t113.5 46q68 0 113 -44t45 -116q0 -162 -109 -253t-293 -99z" />
<glyph unicode="&#x201e;" horiz-adv-x="745" d="M-147 -203l28 127q63 6 103.5 28.5t40.5 51.5q0 6 -1 11t-3.5 8.5t-6.5 7.5t-7 6t-11 6t-12 8q-49 33 -50 96q0 70 48.5 116t113.5 46q68 0 113 -44t45 -115q0 -162 -108.5 -253.5t-292.5 -99.5zM225 -203l29 127q63 6 103 28.5t40 51.5q0 6 -1 11t-3 8.5t-6 7.5t-7 6 t-11.5 6t-12.5 8q-49 33 -49 96q0 70 48 116t114 46q68 0 113 -44t45 -115q0 -162 -109 -253.5t-293 -99.5z" />
<glyph unicode="&#x2026;" horiz-adv-x="1206" d="M-49 147q0 72 53 121t125 49q70 0 116 -47t46 -112q0 -72 -54.5 -121t-125.5 -49q-70 0 -115 45.5t-45 113.5zM346 147q0 72 53.5 121t124.5 49q70 0 116 -47t46 -112q0 -72 -54 -121t-126 -49q-70 0 -115 45.5t-45 113.5zM741 147q0 72 53.5 121t125.5 49 q70 0 115.5 -47t45.5 -112q0 -72 -54 -121t-126 -49q-70 0 -115 45.5t-45 113.5z" />
<glyph unicode="&#x202f;" horiz-adv-x="385" />
<glyph unicode="&#x2039;" horiz-adv-x="571" d="M47 471l37 158l354 354h176l-24 -104l-279 -353v-6l119 -330l-24 -108h-148z" />
<glyph unicode="&#x203a;" horiz-adv-x="571" d="M-43 82l25 104l278 353v6l-119 329l25 109h147l211 -389l-37 -158l-354 -354h-176z" />
<glyph unicode="&#x205f;" horiz-adv-x="482" />
<glyph unicode="&#x20ac;" horiz-adv-x="1191" d="M29 496l32 147h93q6 61 18 123h-82l35 147h88q41 119 104 211q225 326 590 326q244 0 410 -76l-70 -297h-172q-29 90 -73 127t-113 37q-178 0 -291 -199q-29 -49 -57 -129h415l-65 -147h-393q-8 -41 -21 -123h361l-64 -147h-311q-2 -18 -2 -52q0 -258 227 -258 q147 0 256 133h162l-53 -245q-184 -90 -385 -90q-246 0 -383.5 134t-137.5 378h-118z" />
<glyph unicode="&#x2122;" horiz-adv-x="1390" d="M193 1229l47 205h540l-47 -205h-102l12 112h-72l-86 -370q-4 -27 13 -27h39l-19 -84h-282l18 84h31q10 0 19 8.5t11 18.5l86 370h-71l-35 -112h-102zM676 860l18 84h29q8 0 18.5 8.5t12.5 18.5l82 350q4 25 -13 25h-35l21 88h283l14 -326h2l168 326h299l-21 -88h-30 q-8 0 -17.5 -8.5t-11.5 -16.5l-82 -350q-4 -27 10 -27h37l-18 -84h-275l19 84h55l86 369h-2l-238 -453h-104l-27 453h-2l-86 -369h56l-19 -84h-229z" />
<glyph unicode="&#xe000;" horiz-adv-x="1085" d="M0 0v1085h1085v-1085h-1085z" />
<glyph unicode="&#xfb01;" horiz-adv-x="1148" d="M-158 -332l37 160q121 33 162 219l182 848h-127l39 180h127l19 82q66 297 374 297q119 0 185 -29l-37 -168h-64q-72 0 -109.5 -23.5t-51.5 -86.5l-17 -72h367q217 0 168 -207l-150 -647q-4 -18 8.5 -34.5t30.5 -16.5h62l-33 -152q-78 -33 -183 -32q-123 0 -165.5 67.5 t-16.5 184.5l152 657h-281l-190 -854q-66 -285 -303 -373h-185zM885 1313q0 68 50 115t120 47q66 0 109.5 -44.5t43.5 -107.5q0 -70 -51 -116t-121 -46q-66 0 -108.5 44.5t-42.5 107.5z" />
<glyph unicode="&#xfb02;" horiz-adv-x="1155" d="M-158 -332l37 160q121 33 162 219l182 848h-127l39 180h127l19 82q68 297 381 297q100 0 178 -20h336q51 0 34 -70l-264 -1143q-4 -18 8.5 -34.5t30.5 -16.5h68l-33 -152q-82 -33 -184 -32q-123 0 -167 67.5t-18 184.5l236 1019h-148q-72 0 -109.5 -23.5t-51.5 -86.5 l-17 -72h184l-38 -180h-187l-190 -854q-66 -285 -303 -373h-185z" />
<glyph unicode="&#xfb03;" horiz-adv-x="1722" d="M-158 -332l37 160q121 33 162 219l182 848h-127l39 180h127l17 74q66 297 370 297q113 0 178 -29l-36 -168h-54q-72 0 -109.5 -23.5t-52.5 -86.5l-14 -64h275l18 82q68 297 375 297q119 0 184 -29l-37 -168h-63q-72 0 -110 -23.5t-52 -86.5l-16 -72h366q217 0 168 -207 l-149 -647q-4 -18 8 -34.5t31 -16.5h61l-33 -152q-78 -33 -182 -32q-123 0 -166 67.5t-16 184.5l151 657h-280l-191 -854q-66 -285 -303 -373h-184l37 160q121 33 161 219l183 848h-277l-190 -854q-66 -285 -303 -373h-185zM1458 1313q0 68 50.5 115t119.5 47 q66 0 110 -44.5t44 -107.5q0 -70 -51.5 -116t-120.5 -46q-66 0 -109 44.5t-43 107.5z" />
<glyph unicode="&#xfb04;" horiz-adv-x="1728" d="M-158 -332l37 160q121 33 162 219l182 848h-127l39 180h127l17 74q68 297 370 297q113 0 178 -29l-36 -168h-54q-72 0 -109.5 -23.5t-52.5 -86.5l-14 -64h275l18 82q68 297 381 297q100 0 178 -20h336q51 0 35 -70l-264 -1143q-4 -18 8 -34.5t31 -16.5h67l-33 -152 q-82 -33 -184 -32q-123 0 -167 67.5t-17 184.5l235 1019h-147q-72 0 -110 -23.5t-52 -86.5l-16 -72h184l-39 -180h-186l-191 -854q-66 -285 -303 -373h-184l37 160q121 33 161 219l183 848h-277l-190 -854q-66 -285 -303 -373h-185z" />
</font>
</defs>
</svg>
